%TF.GenerationSoftware,KiCad,Pcbnew,10.0.5*%
%TF.CreationDate,2026-08-25T09:53:28+01:00*%
%TF.ProjectId,USB_C_PD_Prototyping_Board,5553425f-435f-4504-945f-50726f746f74,rev?*%
%TF.SameCoordinates,Original*%
%TF.FileFunction,Copper,L1,Top*%
%TF.FilePolarity,Positive*%
%FSLAX46Y46*%
G04 Gerber Fmt 4.6, Leading zero omitted, Abs format (unit mm)*
G04 Created by KiCad (PCBNEW 10.0.5) date 2026-08-25 09:53:28*
%MOMM*%
%LPD*%
G01*
G04 APERTURE LIST*
G04 Aperture macros list*
%AMRoundRect*
0 Rectangle with rounded corners*
0 $1 Rounding radius*
0 $2 $3 $4 $5 $6 $7 $8 $9 X,Y pos of 4 corners*
0 Add a 4 corners polygon primitive as box body*
4,1,4,$2,$3,$4,$5,$6,$7,$8,$9,$2,$3,0*
0 Add four circle primitives for the rounded corners*
1,1,$1+$1,$2,$3*
1,1,$1+$1,$4,$5*
1,1,$1+$1,$6,$7*
1,1,$1+$1,$8,$9*
0 Add four rect primitives between the rounded corners*
20,1,$1+$1,$2,$3,$4,$5,0*
20,1,$1+$1,$4,$5,$6,$7,0*
20,1,$1+$1,$6,$7,$8,$9,0*
20,1,$1+$1,$8,$9,$2,$3,0*%
%AMFreePoly0*
4,1,23,0.500000,-0.750000,0.000000,-0.750000,0.000000,-0.745722,-0.065263,-0.745722,-0.191342,-0.711940,-0.304381,-0.646677,-0.396677,-0.554381,-0.461940,-0.441342,-0.495722,-0.315263,-0.495722,-0.250000,-0.500000,-0.250000,-0.500000,0.250000,-0.495722,0.250000,-0.495722,0.315263,-0.461940,0.441342,-0.396677,0.554381,-0.304381,0.646677,-0.191342,0.711940,-0.065263,0.745722,0.000000,0.745722,
0.000000,0.750000,0.500000,0.750000,0.500000,-0.750000,0.500000,-0.750000,$1*%
%AMFreePoly1*
4,1,23,0.000000,0.745722,0.065263,0.745722,0.191342,0.711940,0.304381,0.646677,0.396677,0.554381,0.461940,0.441342,0.495722,0.315263,0.495722,0.250000,0.500000,0.250000,0.500000,-0.250000,0.495722,-0.250000,0.495722,-0.315263,0.461940,-0.441342,0.396677,-0.554381,0.304381,-0.646677,0.191342,-0.711940,0.065263,-0.745722,0.000000,-0.745722,0.000000,-0.750000,-0.500000,-0.750000,
-0.500000,0.750000,0.000000,0.750000,0.000000,0.745722,0.000000,0.745722,$1*%
G04 Aperture macros list end*
%TA.AperFunction,EtchedComponent*%
%ADD10C,0.000000*%
%TD*%
%TA.AperFunction,ComponentPad*%
%ADD11R,2.000000X2.000000*%
%TD*%
%TA.AperFunction,ComponentPad*%
%ADD12C,1.700000*%
%TD*%
%TA.AperFunction,ComponentPad*%
%ADD13R,1.700000X1.700000*%
%TD*%
%TA.AperFunction,ComponentPad*%
%ADD14C,1.800000*%
%TD*%
%TA.AperFunction,SMDPad,CuDef*%
%ADD15RoundRect,0.160000X-0.197500X-0.160000X0.197500X-0.160000X0.197500X0.160000X-0.197500X0.160000X0*%
%TD*%
%TA.AperFunction,SMDPad,CuDef*%
%ADD16R,0.420000X0.700000*%
%TD*%
%TA.AperFunction,SMDPad,CuDef*%
%ADD17R,0.420000X0.540000*%
%TD*%
%TA.AperFunction,SMDPad,CuDef*%
%ADD18R,2.370000X1.710000*%
%TD*%
%TA.AperFunction,SMDPad,CuDef*%
%ADD19RoundRect,0.250000X-0.850000X-0.350000X0.850000X-0.350000X0.850000X0.350000X-0.850000X0.350000X0*%
%TD*%
%TA.AperFunction,SMDPad,CuDef*%
%ADD20RoundRect,0.249997X-2.950003X-2.650003X2.950003X-2.650003X2.950003X2.650003X-2.950003X2.650003X0*%
%TD*%
%TA.AperFunction,SMDPad,CuDef*%
%ADD21RoundRect,0.160000X0.160000X-0.197500X0.160000X0.197500X-0.160000X0.197500X-0.160000X-0.197500X0*%
%TD*%
%TA.AperFunction,SMDPad,CuDef*%
%ADD22RoundRect,0.155000X0.212500X0.155000X-0.212500X0.155000X-0.212500X-0.155000X0.212500X-0.155000X0*%
%TD*%
%TA.AperFunction,SMDPad,CuDef*%
%ADD23FreePoly0,90.000000*%
%TD*%
%TA.AperFunction,SMDPad,CuDef*%
%ADD24FreePoly1,90.000000*%
%TD*%
%TA.AperFunction,SMDPad,CuDef*%
%ADD25RoundRect,0.160000X-0.160000X0.197500X-0.160000X-0.197500X0.160000X-0.197500X0.160000X0.197500X0*%
%TD*%
%TA.AperFunction,SMDPad,CuDef*%
%ADD26RoundRect,0.155000X0.155000X-0.212500X0.155000X0.212500X-0.155000X0.212500X-0.155000X-0.212500X0*%
%TD*%
%TA.AperFunction,SMDPad,CuDef*%
%ADD27RoundRect,0.250000X0.450000X-0.325000X0.450000X0.325000X-0.450000X0.325000X-0.450000X-0.325000X0*%
%TD*%
%TA.AperFunction,ComponentPad*%
%ADD28O,2.500000X1.500000*%
%TD*%
%TA.AperFunction,SMDPad,CuDef*%
%ADD29RoundRect,0.250000X-0.450000X0.325000X-0.450000X-0.325000X0.450000X-0.325000X0.450000X0.325000X0*%
%TD*%
%TA.AperFunction,SMDPad,CuDef*%
%ADD30FreePoly0,0.000000*%
%TD*%
%TA.AperFunction,SMDPad,CuDef*%
%ADD31FreePoly1,0.000000*%
%TD*%
%TA.AperFunction,SMDPad,CuDef*%
%ADD32R,0.600000X0.300000*%
%TD*%
%TA.AperFunction,SMDPad,CuDef*%
%ADD33R,0.600000X0.250000*%
%TD*%
%TA.AperFunction,SMDPad,CuDef*%
%ADD34R,0.300000X2.400000*%
%TD*%
%TA.AperFunction,SMDPad,CuDef*%
%ADD35R,0.250000X0.350000*%
%TD*%
%TA.AperFunction,ComponentPad*%
%ADD36O,1.100000X1.700000*%
%TD*%
%TA.AperFunction,SMDPad,CuDef*%
%ADD37R,0.460000X1.200000*%
%TD*%
%TA.AperFunction,SMDPad,CuDef*%
%ADD38R,0.660000X1.200000*%
%TD*%
%TA.AperFunction,SMDPad,CuDef*%
%ADD39R,0.560000X1.200000*%
%TD*%
%TA.AperFunction,SMDPad,CuDef*%
%ADD40RoundRect,0.062500X-0.062500X0.312500X-0.062500X-0.312500X0.062500X-0.312500X0.062500X0.312500X0*%
%TD*%
%TA.AperFunction,HeatsinkPad*%
%ADD41R,2.500000X1.800000*%
%TD*%
%TA.AperFunction,SMDPad,CuDef*%
%ADD42RoundRect,0.155000X-0.155000X0.212500X-0.155000X-0.212500X0.155000X-0.212500X0.155000X0.212500X0*%
%TD*%
%TA.AperFunction,ViaPad*%
%ADD43C,0.600000*%
%TD*%
%TA.AperFunction,Conductor*%
%ADD44C,0.200000*%
%TD*%
%TA.AperFunction,Conductor*%
%ADD45C,1.000000*%
%TD*%
%TA.AperFunction,Conductor*%
%ADD46C,0.500000*%
%TD*%
%TA.AperFunction,Conductor*%
%ADD47C,0.800000*%
%TD*%
G04 APERTURE END LIST*
D10*
%TA.AperFunction,EtchedComponent*%
%TO.C,JP1*%
G36*
X66800000Y-20100000D02*
G01*
X66200000Y-20100000D01*
X66200000Y-19600000D01*
X66800000Y-19600000D01*
X66800000Y-20100000D01*
G37*
%TD.AperFunction*%
%TA.AperFunction,EtchedComponent*%
%TO.C,JP4*%
G36*
X69800000Y-20100000D02*
G01*
X69200000Y-20100000D01*
X69200000Y-19600000D01*
X69800000Y-19600000D01*
X69800000Y-20100000D01*
G37*
%TD.AperFunction*%
%TD*%
D11*
%TO.P,TP3,1,1_1*%
%TO.N,VFuse*%
X40750000Y-29000000D03*
%TD*%
D12*
%TO.P,J5,4,Pin_4_4*%
%TO.N,GND*%
X61380000Y-23500000D03*
%TO.P,J5,3,Pin_3_3*%
%TO.N,VDD*%
X63920000Y-23500000D03*
%TO.P,J5,2,Pin_2_2*%
%TO.N,SDA*%
X66460000Y-23500000D03*
D13*
%TO.P,J5,1,Pin_1_1*%
%TO.N,SCL*%
X69000000Y-23500000D03*
%TD*%
D14*
%TO.P,DIP1,12*%
%TO.N,Net-(JP6-B)*%
X22060000Y-15150000D03*
%TO.P,DIP1,11*%
%TO.N,Net-(DIP1-Pad11)*%
X22060000Y-17690000D03*
%TO.P,DIP1,10*%
%TO.N,Net-(DIP1-Pad10)*%
X22060000Y-20230000D03*
%TO.P,DIP1,9*%
%TO.N,Net-(DIP1-Pad9)*%
X22060000Y-22770000D03*
%TO.P,DIP1,8*%
%TO.N,Net-(DIP1-Pad8)*%
X22060000Y-25310000D03*
%TO.P,DIP1,7*%
%TO.N,unconnected-(DIP1-Pad7)*%
X22060000Y-27850000D03*
%TO.P,DIP1,6*%
%TO.N,GND*%
X14440000Y-15150000D03*
%TO.P,DIP1,5*%
X14440000Y-17690000D03*
%TO.P,DIP1,4*%
X14440000Y-20230000D03*
%TO.P,DIP1,3*%
X14440000Y-22770000D03*
%TO.P,DIP1,2*%
X14440000Y-25310000D03*
%TO.P,DIP1,1*%
X14440000Y-27850000D03*
%TD*%
D15*
%TO.P,R4,2,2_2*%
%TO.N,Net-(JP6-B)*%
X29900000Y-27250000D03*
%TO.P,R4,1,1_1*%
%TO.N,Net-(DIP1-Pad8)*%
X28705000Y-27250000D03*
%TD*%
D16*
%TO.P,Q1,1*%
%TO.N,VBUS*%
X45975000Y-29000000D03*
%TO.P,Q1,2,S_2*%
X45325000Y-29000000D03*
%TO.P,Q1,3,S_3*%
X44675000Y-29000000D03*
%TO.P,Q1,4,G_4*%
%TO.N,Net-(Q1-G)*%
X44025000Y-29000000D03*
D17*
%TO.P,Q1,5*%
%TO.N,VFuse*%
X44025000Y-32080000D03*
X44675000Y-32080000D03*
X45325000Y-32080000D03*
X45975000Y-32080000D03*
D18*
X45000000Y-30955000D03*
%TD*%
D19*
%TO.P,IC2,1,VCC_1*%
%TO.N,VOUT*%
X58950000Y-31470000D03*
D20*
%TO.P,IC2,3,GND_3*%
%TO.N,GND*%
X65250000Y-33750000D03*
D19*
%TO.P,IC2,2,VO_2*%
%TO.N,+3V3*%
X58950000Y-36030000D03*
%TD*%
D21*
%TO.P,R20,1*%
%TO.N,Net-(JP5-A)*%
X39505000Y-40232500D03*
%TO.P,R20,2*%
%TO.N,GND*%
X39505000Y-39037500D03*
%TD*%
D13*
%TO.P,JP5,1,A_1*%
%TO.N,Net-(JP5-A)*%
X43750000Y-41040000D03*
D12*
%TO.P,JP5,2,C_2*%
%TO.N,Net-(IC1-ILM)*%
X43750000Y-38500000D03*
%TO.P,JP5,3,B_3*%
%TO.N,Net-(JP5-B)*%
X43750000Y-35960000D03*
%TD*%
D21*
%TO.P,R12,1*%
%TO.N,GND*%
X28425000Y-39195000D03*
%TO.P,R12,2*%
%TO.N,Net-(IC1-OVLO{slash}_OVCSEL)*%
X28425000Y-38000000D03*
%TD*%
D22*
%TO.P,C8,1*%
%TO.N,GND*%
X61250000Y-39500000D03*
%TO.P,C8,2*%
%TO.N,+3V3*%
X60115000Y-39500000D03*
%TD*%
D23*
%TO.P,JP1,1,A_1*%
%TO.N,SDA*%
X66500000Y-20500000D03*
D24*
%TO.P,JP1,2,B_2*%
%TO.N,Net-(JP1-B)*%
X66500000Y-19200000D03*
%TD*%
D25*
%TO.P,R14,1*%
%TO.N,Net-(JP5-B)*%
X38675000Y-34902500D03*
%TO.P,R14,2*%
%TO.N,GND*%
X38675000Y-36097500D03*
%TD*%
D26*
%TO.P,C1,1*%
%TO.N,GND*%
X43053750Y-23267500D03*
%TO.P,C1,2*%
%TO.N,Net-(U1-VIN)*%
X43053750Y-22132500D03*
%TD*%
D27*
%TO.P,D2,1,K_1*%
%TO.N,GND*%
X33000000Y-53025000D03*
%TO.P,D2,2,A_2*%
%TO.N,Net-(D2-A)*%
X33000000Y-50975000D03*
%TD*%
D21*
%TO.P,R18,1,1_1*%
%TO.N,Net-(JP4-B)*%
X69500000Y-17000000D03*
%TO.P,R18,2,2_2*%
%TO.N,VDD*%
X69500000Y-15805000D03*
%TD*%
D14*
%TO.P,SW1,1,A_1*%
%TO.N,VBUS*%
X53500000Y-45000000D03*
%TO.P,SW1,2,B_2*%
%TO.N,Net-(Q1-G)*%
X53500000Y-48000000D03*
%TO.P,SW1,3,C_3*%
%TO.N,unconnected-(SW1-C-Pad3)*%
X53500000Y-51000000D03*
D28*
%TO.P,SW1,4*%
%TO.N,N/C*%
X53500000Y-53850000D03*
%TO.P,SW1,5*%
X53500000Y-42150000D03*
%TD*%
D13*
%TO.P,JP6,1,A_1*%
%TO.N,Net-(JP6-A)*%
X15250000Y-33000000D03*
D12*
%TO.P,JP6,2,B_2*%
%TO.N,Net-(JP6-B)*%
X17790000Y-33000000D03*
%TD*%
D29*
%TO.P,D1,1,K_1*%
%TO.N,GND*%
X51500000Y-13475000D03*
%TO.P,D1,2,A_2*%
%TO.N,Net-(D1-A)*%
X51500000Y-15525000D03*
%TD*%
D21*
%TO.P,R6,1,1_1*%
%TO.N,Net-(Q1-G)*%
X43053750Y-26450000D03*
%TO.P,R6,2,2_2*%
%TO.N,Net-(U1-GATE)*%
X43053750Y-25255000D03*
%TD*%
D25*
%TO.P,R11,1*%
%TO.N,/UVLO*%
X28425000Y-35152500D03*
%TO.P,R11,2*%
%TO.N,Net-(IC1-OVLO{slash}_OVCSEL)*%
X28425000Y-36347500D03*
%TD*%
D15*
%TO.P,R1,1,1_1*%
%TO.N,Net-(DIP1-Pad11)*%
X28802500Y-20650000D03*
%TO.P,R1,2,2_2*%
%TO.N,Net-(JP6-B)*%
X29997500Y-20650000D03*
%TD*%
D30*
%TO.P,JP7,1,A_1*%
%TO.N,Net-(JP6-A)*%
X14450000Y-36500000D03*
D31*
%TO.P,JP7,2,B_2*%
%TO.N,Net-(JP6-B)*%
X15750000Y-36500000D03*
%TD*%
D26*
%TO.P,C7,1*%
%TO.N,VOUT*%
X56250000Y-35817500D03*
%TO.P,C7,2*%
%TO.N,GND*%
X56250000Y-34682500D03*
%TD*%
D21*
%TO.P,R17,1,1_1*%
%TO.N,Net-(D2-A)*%
X32750000Y-49025000D03*
%TO.P,R17,2,2_2*%
%TO.N,VOUT*%
X32750000Y-47830000D03*
%TD*%
D15*
%TO.P,R10,1*%
%TO.N,/UVLO*%
X30730000Y-33250000D03*
%TO.P,R10,2*%
%TO.N,VFuse*%
X31925000Y-33250000D03*
%TD*%
D22*
%TO.P,C5,1*%
%TO.N,GND*%
X34742500Y-33250000D03*
%TO.P,C5,2*%
%TO.N,/I_TIMER*%
X33607500Y-33250000D03*
%TD*%
D15*
%TO.P,R15,1*%
%TO.N,/PGTH*%
X30730000Y-40750000D03*
%TO.P,R15,2*%
%TO.N,VOUT*%
X31925000Y-40750000D03*
%TD*%
D16*
%TO.P,Q2,1,S_1*%
%TO.N,Net-(JP6-B)*%
X27887500Y-17455000D03*
%TO.P,Q2,2,S_2*%
X28537500Y-17455000D03*
%TO.P,Q2,3,S_3*%
X29187500Y-17455000D03*
%TO.P,Q2,4,G_4*%
%TO.N,Net-(JP6-A)*%
X29837500Y-17455000D03*
D17*
%TO.P,Q2,5*%
%TO.N,GND*%
X29837500Y-14375000D03*
X29187500Y-14375000D03*
X28537500Y-14375000D03*
X27887500Y-14375000D03*
D18*
X28862500Y-15500000D03*
%TD*%
D21*
%TO.P,R13,1*%
%TO.N,GND*%
X36925000Y-36097500D03*
%TO.P,R13,2*%
%TO.N,Net-(IC1-ILM)*%
X36925000Y-34902500D03*
%TD*%
D14*
%TO.P,J2,1,Pin_1_1*%
%TO.N,VOUT*%
X40255000Y-50500000D03*
%TO.P,J2,2,Pin_2_2*%
%TO.N,GND*%
X45255000Y-50500000D03*
%TD*%
D15*
%TO.P,R2,1,1_1*%
%TO.N,Net-(DIP1-Pad10)*%
X28802500Y-22850000D03*
%TO.P,R2,2,2_2*%
%TO.N,Net-(JP6-B)*%
X29997500Y-22850000D03*
%TD*%
D32*
%TO.P,IC1,1,EN/UVLO_1_1*%
%TO.N,/UVLO*%
X31500000Y-36275000D03*
D33*
%TO.P,IC1,2,OVLO/_OVCSEL_2*%
%TO.N,Net-(IC1-OVLO{slash}_OVCSEL)*%
X31500000Y-36750000D03*
%TO.P,IC1,3,PG/_AUXOFF_3*%
%TO.N,unconnected-(IC1-PG{slash}_AUXOFF-Pad3)*%
X31500000Y-37200000D03*
D32*
%TO.P,IC1,4,PGTH/~{FLT_1}_4*%
%TO.N,/PGTH*%
X31500000Y-37675000D03*
D34*
%TO.P,IC1,5,IN_5*%
%TO.N,VFuse*%
X32150000Y-36975000D03*
%TO.P,IC1,6,OUT_6*%
%TO.N,VOUT*%
X32650000Y-36975000D03*
D32*
%TO.P,IC1,7,DVDT_1_7*%
%TO.N,/DVDT*%
X33300000Y-37675000D03*
D33*
%TO.P,IC1,8,GND_8*%
%TO.N,GND*%
X33300000Y-37200000D03*
%TO.P,IC1,9,ILM_9*%
%TO.N,Net-(IC1-ILM)*%
X33300000Y-36750000D03*
D32*
%TO.P,IC1,10,ITIMER_1_10*%
%TO.N,/I_TIMER*%
X33300000Y-36275000D03*
D35*
%TO.P,IC1,11,EN/UVLO_2_11*%
%TO.N,/UVLO*%
X31675000Y-35950000D03*
%TO.P,IC1,12,PGTH/~{FLT_2}_12*%
%TO.N,/PGTH*%
X31675000Y-38000000D03*
%TO.P,IC1,13,DVDT_2_13*%
%TO.N,/DVDT*%
X33125000Y-38000000D03*
%TO.P,IC1,14,ITIMER_2_14*%
%TO.N,/I_TIMER*%
X33125000Y-35950000D03*
%TD*%
D13*
%TO.P,J3,1,Pin_1_1*%
%TO.N,D-*%
X58225000Y-14250000D03*
D12*
%TO.P,J3,2,Pin_2_2*%
%TO.N,D+*%
X60765000Y-14250000D03*
%TD*%
D21*
%TO.P,R19,1,1_1*%
%TO.N,Net-(JP1-B)*%
X66500000Y-17000000D03*
%TO.P,R19,2,2_2*%
%TO.N,VDD*%
X66500000Y-15805000D03*
%TD*%
D25*
%TO.P,R7,1,1_1*%
%TO.N,VBUS*%
X44803750Y-25255000D03*
%TO.P,R7,2,2_2*%
%TO.N,Net-(Q1-G)*%
X44803750Y-26450000D03*
%TD*%
D15*
%TO.P,R3,1,1_1*%
%TO.N,Net-(DIP1-Pad9)*%
X28802500Y-25050000D03*
%TO.P,R3,2,2_2*%
%TO.N,Net-(JP6-B)*%
X29997500Y-25050000D03*
%TD*%
D36*
%TO.P,J1,1*%
%TO.N,N/C*%
X46825000Y-17960000D03*
%TO.P,J1,2*%
X38185000Y-17960000D03*
%TO.P,J1,3*%
X38185000Y-14160000D03*
%TO.P,J1,4*%
X46825000Y-14160000D03*
D37*
%TO.P,J1,A5,CC1_A5*%
%TO.N,CC1*%
X43625000Y-18240000D03*
%TO.P,J1,A6,D+_A6*%
%TO.N,D+*%
X42875000Y-18240000D03*
%TO.P,J1,A7,D-_A7*%
%TO.N,D-*%
X42125000Y-18240000D03*
D38*
%TO.P,J1,B1,GND_B1*%
%TO.N,GND*%
X39625000Y-18240000D03*
D39*
%TO.P,J1,B4,VBUS_B4*%
%TO.N,VBUS*%
X40575000Y-18240000D03*
D37*
%TO.P,J1,B5,CC2_B5*%
%TO.N,CC2*%
X41385000Y-18240000D03*
D39*
%TO.P,J1,B9,VBUS_B9*%
%TO.N,VBUS*%
X44425000Y-18240000D03*
D38*
%TO.P,J1,B12,GND_B12*%
%TO.N,GND*%
X45385000Y-18240000D03*
%TD*%
D40*
%TO.P,U1,1,VIN_1*%
%TO.N,Net-(U1-VIN)*%
X40428750Y-22275000D03*
%TO.P,U1,2,D+_2*%
%TO.N,D+*%
X39928750Y-22275000D03*
%TO.P,U1,3,D-_3*%
%TO.N,D-*%
X39428750Y-22275000D03*
%TO.P,U1,4,CC1_4*%
%TO.N,CC1*%
X38928750Y-22275000D03*
%TO.P,U1,5,CC2_5*%
%TO.N,CC2*%
X38428750Y-22275000D03*
%TO.P,U1,6,SDA_6*%
%TO.N,SDA*%
X38428750Y-25225000D03*
%TO.P,U1,7,SCL_7*%
%TO.N,SCL*%
X38928750Y-25225000D03*
%TO.P,U1,8,VSET_8*%
%TO.N,Net-(JP6-B)*%
X39428750Y-25225000D03*
%TO.P,U1,9,ISET_9*%
%TO.N,unconnected-(U1-ISET-Pad9)*%
X39928750Y-25225000D03*
%TO.P,U1,10,GATE_10*%
%TO.N,Net-(U1-GATE)*%
X40428750Y-25225000D03*
D41*
%TO.P,U1,11,GND_11*%
%TO.N,GND*%
X39428750Y-23750000D03*
%TD*%
D23*
%TO.P,JP4,1,A_1*%
%TO.N,SCL*%
X69500000Y-20500000D03*
D24*
%TO.P,JP4,2,B_2*%
%TO.N,Net-(JP4-B)*%
X69500000Y-19200000D03*
%TD*%
D11*
%TO.P,TP2,1,1_1*%
%TO.N,VBUS*%
X48500000Y-23000000D03*
%TD*%
D25*
%TO.P,R8,1,1_1*%
%TO.N,Net-(D1-A)*%
X51500000Y-17805000D03*
%TO.P,R8,2,2_2*%
%TO.N,VBUS*%
X51500000Y-19000000D03*
%TD*%
D42*
%TO.P,C6,1*%
%TO.N,GND*%
X36925000Y-37932500D03*
%TO.P,C6,2*%
%TO.N,/DVDT*%
X36925000Y-39067500D03*
%TD*%
D15*
%TO.P,R16,1*%
%TO.N,VOUT*%
X33577500Y-40750000D03*
%TO.P,R16,2*%
%TO.N,GND*%
X34772500Y-40750000D03*
%TD*%
D25*
%TO.P,R9,1,1_1*%
%TO.N,GND*%
X32537500Y-16260000D03*
%TO.P,R9,2,2_2*%
%TO.N,Net-(JP6-A)*%
X32537500Y-17455000D03*
%TD*%
D21*
%TO.P,R5,1,1_1*%
%TO.N,VBUS*%
X44803750Y-23297500D03*
%TO.P,R5,2,2_2*%
%TO.N,Net-(U1-VIN)*%
X44803750Y-22102500D03*
%TD*%
D11*
%TO.P,TP1,1,1_1*%
%TO.N,Net-(JP6-B)*%
X18500000Y-38000000D03*
%TD*%
D13*
%TO.P,J7,1,Pin_1_1*%
%TO.N,GND*%
X66275000Y-45210000D03*
D12*
%TO.P,J7,2,Pin_2_2*%
%TO.N,+3V3*%
X63735000Y-45210000D03*
%TO.P,J7,3,Pin_3_3*%
%TO.N,GND*%
X66275000Y-47750000D03*
%TO.P,J7,4,Pin_4_4*%
%TO.N,+3V3*%
X63735000Y-47750000D03*
%TO.P,J7,5,Pin_5_5*%
%TO.N,GND*%
X66275000Y-50290000D03*
%TO.P,J7,6,Pin_6_6*%
%TO.N,+3V3*%
X63735000Y-50290000D03*
%TD*%
D13*
%TO.P,J6,1,Pin_1_1*%
%TO.N,GND*%
X21275000Y-45210000D03*
D12*
%TO.P,J6,2,Pin_2_2*%
%TO.N,VOUT*%
X18735000Y-45210000D03*
%TO.P,J6,3,Pin_3_3*%
%TO.N,GND*%
X21275000Y-47750000D03*
%TO.P,J6,4,Pin_4_4*%
%TO.N,VOUT*%
X18735000Y-47750000D03*
%TO.P,J6,5,Pin_5_5*%
%TO.N,GND*%
X21275000Y-50290000D03*
%TO.P,J6,6,Pin_6_6*%
%TO.N,VOUT*%
X18735000Y-50290000D03*
%TD*%
D43*
%TO.N,Net-(JP6-A)*%
X31362500Y-17455000D03*
%TO.N,SCL*%
X38415110Y-26236360D03*
%TO.N,SDA*%
X37500000Y-25750000D03*
%TO.N,GND*%
X35500000Y-33250000D03*
%TO.N,VOUT*%
X53000000Y-35250000D03*
X53000000Y-36750000D03*
X51500000Y-35250000D03*
X52250000Y-36000000D03*
X52250000Y-35250000D03*
X51500000Y-36000000D03*
X51500000Y-36750000D03*
X52250000Y-36750000D03*
X53000000Y-36000000D03*
%TO.N,CC1*%
X43625000Y-19027717D03*
X38634620Y-21417990D03*
%TO.N,CC2*%
X41385000Y-19027717D03*
X37750000Y-21750000D03*
%TO.N,D+*%
X42894998Y-17940000D03*
X40222882Y-21417990D03*
%TO.N,D-*%
X39428750Y-21321250D03*
X42125000Y-18240000D03*
%TO.N,Net-(Q1-G)*%
X44025000Y-27228750D03*
%TD*%
%TO.N,Net-(JP6-B)*%
D44*
X29187500Y-17455000D02*
X29187500Y-18012500D01*
X29187500Y-18012500D02*
X29997500Y-18822500D01*
X29997500Y-18822500D02*
X29997500Y-20650000D01*
X22060000Y-15150000D02*
X22650000Y-15150000D01*
X22650000Y-15150000D02*
X24955000Y-17455000D01*
X24955000Y-17455000D02*
X27887500Y-17455000D01*
X27887500Y-17455000D02*
X29187500Y-17455000D01*
%TO.N,GND*%
D45*
X28862500Y-15500000D02*
X33194566Y-15500000D01*
X33194566Y-15500000D02*
X37722283Y-20027717D01*
X14440000Y-15150000D02*
X16390000Y-13200000D01*
X16390000Y-13200000D02*
X26000000Y-13200000D01*
X26000000Y-13200000D02*
X28300000Y-15500000D01*
X28300000Y-15500000D02*
X28862500Y-15500000D01*
%TO.N,Net-(JP6-B)*%
D44*
X29900000Y-27250000D02*
X29900000Y-20747500D01*
X29900000Y-20747500D02*
X29997500Y-20650000D01*
X29900000Y-27250000D02*
X38250000Y-27250000D01*
X29900000Y-27250000D02*
X24150000Y-33000000D01*
X24150000Y-33000000D02*
X17790000Y-33000000D01*
%TO.N,Net-(DIP1-Pad8)*%
X28705000Y-27250000D02*
X24000000Y-27250000D01*
X24000000Y-27250000D02*
X22060000Y-25310000D01*
%TO.N,Net-(DIP1-Pad9)*%
X28802500Y-25050000D02*
X24340000Y-25050000D01*
X24340000Y-25050000D02*
X22060000Y-22770000D01*
%TO.N,Net-(DIP1-Pad10)*%
X28802500Y-22850000D02*
X24680000Y-22850000D01*
X24680000Y-22850000D02*
X22060000Y-20230000D01*
%TO.N,Net-(DIP1-Pad11)*%
X22060000Y-17690000D02*
X25020000Y-20650000D01*
X25020000Y-20650000D02*
X28802500Y-20650000D01*
%TO.N,VFuse*%
D45*
X31925000Y-33250000D02*
X34220000Y-30955000D01*
X40750000Y-29000000D02*
X40750000Y-30955000D01*
X31925000Y-33250000D02*
X31925000Y-34850000D01*
X31925000Y-34850000D02*
X32150000Y-35075000D01*
D46*
X32150000Y-35500000D02*
X32150000Y-35850000D01*
D45*
X34220000Y-30955000D02*
X40750000Y-30955000D01*
X40750000Y-30955000D02*
X45000000Y-30955000D01*
%TO.N,SCL*%
D44*
X38415110Y-26236360D02*
X38442390Y-26236360D01*
X38442390Y-26236360D02*
X38928750Y-25750000D01*
X38928750Y-25225000D02*
X38928750Y-25750000D01*
%TO.N,SDA*%
X37903750Y-25750000D02*
X37500000Y-25750000D01*
X38428750Y-25225000D02*
X37903750Y-25750000D01*
%TO.N,GND*%
D45*
X34742500Y-33250000D02*
X35500000Y-33250000D01*
X36000000Y-21750000D02*
X37250000Y-20500000D01*
X14440000Y-27850000D02*
X14440000Y-15150000D01*
%TO.N,Net-(JP6-A)*%
D44*
X31362500Y-17455000D02*
X29837500Y-17455000D01*
X32537500Y-17455000D02*
X31362500Y-17455000D01*
%TO.N,Net-(JP6-B)*%
X38250000Y-27250000D02*
X39428750Y-26071250D01*
X39428750Y-26071250D02*
X39428750Y-25225000D01*
X22410000Y-15500000D02*
X22060000Y-15150000D01*
%TO.N,Net-(JP6-A)*%
X14450000Y-36500000D02*
X14450000Y-33800000D01*
X14450000Y-33800000D02*
X15250000Y-33000000D01*
%TO.N,Net-(JP6-B)*%
X15750000Y-36500000D02*
X17250000Y-38000000D01*
X17250000Y-38000000D02*
X18500000Y-38000000D01*
X15750000Y-36500000D02*
X15750000Y-35040000D01*
X15750000Y-35040000D02*
X17790000Y-33000000D01*
%TO.N,SCL*%
X69500000Y-20500000D02*
X69000000Y-21000000D01*
X69000000Y-21000000D02*
X69000000Y-23500000D01*
%TO.N,Net-(JP4-B)*%
X69500000Y-17000000D02*
X69500000Y-19200000D01*
%TO.N,SDA*%
X66500000Y-20500000D02*
X66500000Y-23460000D01*
X66500000Y-23460000D02*
X66460000Y-23500000D01*
%TO.N,Net-(JP1-B)*%
X66500000Y-17000000D02*
X66500000Y-19200000D01*
%TO.N,VDD*%
X66500000Y-15805000D02*
X63920000Y-18385000D01*
X63920000Y-18385000D02*
X63920000Y-23500000D01*
X69500000Y-15805000D02*
X66500000Y-15805000D01*
%TO.N,GND*%
D45*
X65250000Y-33750000D02*
X65250000Y-27370000D01*
X65250000Y-27370000D02*
X61380000Y-23500000D01*
%TO.N,+3V3*%
X59000000Y-40000000D02*
X59000000Y-40475000D01*
X59000000Y-40000000D02*
X59615000Y-40000000D01*
X59615000Y-40000000D02*
X60050000Y-39565000D01*
X60050000Y-39565000D02*
X60050000Y-39500000D01*
%TO.N,GND*%
X65250000Y-33750000D02*
X57117500Y-33750000D01*
X57117500Y-33750000D02*
X56250000Y-34617500D01*
%TO.N,VOUT*%
X56250000Y-35817500D02*
X53182500Y-35817500D01*
X53182500Y-35817500D02*
X53000000Y-36000000D01*
%TO.N,GND*%
X51500000Y-13475000D02*
X52200000Y-13475000D01*
X52200000Y-13475000D02*
X61380000Y-22655000D01*
X61380000Y-22655000D02*
X61380000Y-23500000D01*
%TO.N,Net-(D1-A)*%
D44*
X51500000Y-17805000D02*
X51500000Y-15525000D01*
%TO.N,VBUS*%
D45*
X48075000Y-20409408D02*
X48075000Y-19750000D01*
X51500000Y-19000000D02*
X48825000Y-19000000D01*
X48825000Y-19000000D02*
X48075000Y-19750000D01*
X45186908Y-23297500D02*
X46742204Y-21742204D01*
X48500000Y-23000000D02*
X47242204Y-21742204D01*
X47242204Y-21742204D02*
X46742204Y-21742204D01*
%TO.N,GND*%
X39505000Y-39037500D02*
X38475948Y-39037500D01*
X38475948Y-39037500D02*
X37935000Y-38496552D01*
%TO.N,Net-(JP5-A)*%
D44*
X43750000Y-41040000D02*
X40312500Y-41040000D01*
X40312500Y-41040000D02*
X39505000Y-40232500D01*
%TO.N,Net-(IC1-ILM)*%
X36925000Y-34902500D02*
X37582500Y-34245000D01*
X37582500Y-34245000D02*
X43661346Y-34245000D01*
X44900000Y-35483654D02*
X44900000Y-37350000D01*
X43661346Y-34245000D02*
X44900000Y-35483654D01*
X44900000Y-37350000D02*
X43750000Y-38500000D01*
%TO.N,Net-(JP5-B)*%
X38675000Y-34902500D02*
X42692500Y-34902500D01*
X42692500Y-34902500D02*
X43750000Y-35960000D01*
%TO.N,GND*%
D45*
X36823448Y-40750000D02*
X36823448Y-42068448D01*
X37370948Y-37932500D02*
X37935000Y-38496552D01*
X42730000Y-53025000D02*
X45255000Y-50500000D01*
X36000000Y-22571250D02*
X36000000Y-21750000D01*
X39475000Y-18695635D02*
X39475000Y-18240000D01*
X33000000Y-53025000D02*
X42730000Y-53025000D01*
X45525000Y-19420000D02*
X45525000Y-18240000D01*
X39500000Y-20027717D02*
X44917283Y-20027717D01*
X43053750Y-23267500D02*
X42571250Y-23750000D01*
X37722283Y-20027717D02*
X39500000Y-20027717D01*
X21275000Y-50290000D02*
X29540000Y-50290000D01*
X65250000Y-33750000D02*
X66275000Y-34775000D01*
X36925000Y-37932500D02*
X37370948Y-37932500D01*
X39500000Y-18720635D02*
X39475000Y-18695635D01*
X37935000Y-39638448D02*
X36823448Y-40750000D01*
X37250000Y-20500000D02*
X37722283Y-20027717D01*
X36823448Y-40750000D02*
X34777500Y-40750000D01*
X39428750Y-23750000D02*
X37178750Y-23750000D01*
X29540000Y-50290000D02*
X32275000Y-53025000D01*
X32275000Y-53025000D02*
X33000000Y-53025000D01*
X37935000Y-38496552D02*
X37935000Y-39638448D01*
X39500000Y-20027717D02*
X39500000Y-18720635D01*
X36823448Y-42068448D02*
X45255000Y-50500000D01*
X36925000Y-36097500D02*
X38675000Y-36097500D01*
D44*
X33300000Y-37200000D02*
X36875000Y-37200000D01*
D45*
X65250000Y-35500000D02*
X61250000Y-39500000D01*
D44*
X36875000Y-37200000D02*
X36925000Y-37250000D01*
D45*
X36925000Y-37932500D02*
X36925000Y-37250000D01*
X65250000Y-33750000D02*
X65250000Y-35500000D01*
X66275000Y-34775000D02*
X66275000Y-50290000D01*
X37178750Y-23750000D02*
X36000000Y-22571250D01*
X42571250Y-23750000D02*
X39428750Y-23750000D01*
X36925000Y-37250000D02*
X36925000Y-36097500D01*
X44917283Y-20027717D02*
X45525000Y-19420000D01*
%TO.N,Net-(U1-VIN)*%
D44*
X43053750Y-22132500D02*
X40571250Y-22132500D01*
X44803750Y-22102500D02*
X43083750Y-22102500D01*
X43083750Y-22102500D02*
X43053750Y-22132500D01*
X40571250Y-22132500D02*
X40428750Y-22275000D01*
%TO.N,/I_TIMER*%
X33607500Y-33250000D02*
X33607500Y-35467500D01*
X33607500Y-35467500D02*
X33125000Y-35950000D01*
%TO.N,/DVDT*%
X36925000Y-39067500D02*
X34692500Y-39067500D01*
X34692500Y-39067500D02*
X33300000Y-37675000D01*
%TO.N,VOUT*%
X32650000Y-38525000D02*
X32675000Y-38525000D01*
D45*
X32750000Y-47830000D02*
X32920000Y-47830000D01*
D46*
X32650000Y-38175000D02*
X32650000Y-38525000D01*
D45*
X31925000Y-40750000D02*
X31925000Y-41133158D01*
X31925000Y-40750000D02*
X32925000Y-40750000D01*
X18735000Y-44015000D02*
X18735000Y-45210000D01*
X59000000Y-31450000D02*
X56800000Y-31450000D01*
X32675000Y-40500000D02*
X32675000Y-38925000D01*
X30250000Y-42500000D02*
X20250000Y-42500000D01*
X20250000Y-42500000D02*
X18735000Y-44015000D01*
D44*
X32650000Y-36975000D02*
X32650000Y-37475000D01*
X32675000Y-38525000D02*
X32675000Y-38925000D01*
D45*
X56800000Y-31450000D02*
X51500000Y-36750000D01*
X32925000Y-40750000D02*
X33577500Y-40750000D01*
X30558158Y-42500000D02*
X30250000Y-42500000D01*
X51500000Y-36750000D02*
X51500000Y-35250000D01*
X32925000Y-40750000D02*
X32675000Y-40500000D01*
D44*
X32650000Y-37475000D02*
X32650000Y-38175000D01*
D45*
X37502500Y-50500000D02*
X40255000Y-50500000D01*
X30558158Y-43555658D02*
X33876250Y-46873750D01*
X31925000Y-41133158D02*
X30558158Y-42500000D01*
X18735000Y-45210000D02*
X18735000Y-50290000D01*
X32920000Y-47830000D02*
X33876250Y-46873750D01*
X33876250Y-46873750D02*
X37502500Y-50500000D01*
X30558158Y-42500000D02*
X30558158Y-43555658D01*
%TO.N,+3V3*%
X59000000Y-40475000D02*
X63735000Y-45210000D01*
X59000000Y-36050000D02*
X59000000Y-40000000D01*
X63735000Y-45210000D02*
X63735000Y-50290000D01*
%TO.N,Net-(D2-A)*%
D44*
X33000000Y-50975000D02*
X33000000Y-49275000D01*
X33000000Y-49275000D02*
X32750000Y-49025000D01*
%TO.N,Net-(IC1-OVLO{slash}_OVCSEL)*%
X28425000Y-37152500D02*
X28425000Y-38000000D01*
X28827500Y-36750000D02*
X28425000Y-37152500D01*
X31500000Y-36750000D02*
X28827500Y-36750000D01*
X28827500Y-36750000D02*
X28425000Y-36347500D01*
%TO.N,/UVLO*%
X28425000Y-35152500D02*
X30377500Y-35152500D01*
X30377500Y-35152500D02*
X31500000Y-36275000D01*
X30730000Y-33250000D02*
X30730000Y-34800000D01*
X30730000Y-34800000D02*
X30377500Y-35152500D01*
%TO.N,Net-(IC1-ILM)*%
X33300000Y-36750000D02*
X35077500Y-36750000D01*
X35077500Y-36750000D02*
X36925000Y-34902500D01*
%TO.N,/PGTH*%
X30730000Y-38445000D02*
X31500000Y-37675000D01*
X30730000Y-40750000D02*
X30730000Y-38445000D01*
%TO.N,VBUS*%
D45*
X47500000Y-30000000D02*
X46500000Y-29000000D01*
D47*
X44425000Y-18240000D02*
X44425000Y-16940000D01*
D45*
X44803750Y-23297500D02*
X44803750Y-25255000D01*
D46*
X40575000Y-17115000D02*
X40750000Y-16940000D01*
D45*
X45186908Y-25255000D02*
X45975000Y-26043092D01*
X44955000Y-16410000D02*
X44425000Y-16940000D01*
D47*
X40575000Y-18240000D02*
X40575000Y-17115000D01*
D45*
X45975000Y-26043092D02*
X45975000Y-29000000D01*
X44981250Y-23475000D02*
X44803750Y-23297500D01*
X44425000Y-16940000D02*
X40750000Y-16940000D01*
X46742204Y-21742204D02*
X48075000Y-20409408D01*
X47342767Y-16410000D02*
X44955000Y-16410000D01*
X47500000Y-39000000D02*
X47500000Y-30000000D01*
X53500000Y-45000000D02*
X47500000Y-39000000D01*
X48075000Y-19750000D02*
X48075000Y-18500000D01*
X45325000Y-29000000D02*
X45975000Y-29000000D01*
X45325000Y-29000000D02*
X44935000Y-29000000D01*
X48075000Y-18500000D02*
X48075000Y-17142233D01*
X44803750Y-25255000D02*
X45186908Y-25255000D01*
X44803750Y-23297500D02*
X45186908Y-23297500D01*
X48075000Y-17142233D02*
X47342767Y-16410000D01*
X46500000Y-29000000D02*
X45975000Y-29000000D01*
%TO.N,CC1*%
D44*
X38667990Y-21417990D02*
X38750000Y-21500000D01*
X38634620Y-21417990D02*
X38667990Y-21417990D01*
X38928750Y-21678750D02*
X38928750Y-22275000D01*
X38667990Y-21417990D02*
X38928750Y-21678750D01*
%TO.N,CC2*%
X38275000Y-22275000D02*
X37750000Y-21750000D01*
X41385000Y-18240000D02*
X41385000Y-19135000D01*
X38428750Y-22275000D02*
X38275000Y-22275000D01*
%TO.N,D+*%
X39928750Y-21821250D02*
X39928750Y-22275000D01*
X40222882Y-21527118D02*
X39928750Y-21821250D01*
X40222882Y-21417990D02*
X40222882Y-21527118D01*
%TO.N,D-*%
X39428750Y-22275000D02*
X39428750Y-21321250D01*
%TO.N,Net-(Q1-G)*%
X44025000Y-27228750D02*
X44803750Y-26450000D01*
X44025000Y-29000000D02*
X44025000Y-27228750D01*
X44803750Y-26450000D02*
X43053750Y-26450000D01*
%TO.N,Net-(U1-GATE)*%
X43053750Y-25255000D02*
X40458750Y-25255000D01*
X40458750Y-25255000D02*
X40428750Y-25225000D01*
%TD*%
%TA.AperFunction,Conductor*%
%TO.N,GND*%
G36*
X20809075Y-47942993D02*
G01*
X20874901Y-48057007D01*
X20967993Y-48150099D01*
X21082007Y-48215925D01*
X21145590Y-48232962D01*
X20513282Y-48865269D01*
X20513282Y-48865270D01*
X20567452Y-48904626D01*
X20577048Y-48909516D01*
X20627844Y-48957491D01*
X20644638Y-49025312D01*
X20622100Y-49091447D01*
X20577051Y-49130483D01*
X20567440Y-49135380D01*
X20513282Y-49174727D01*
X20513282Y-49174728D01*
X21145591Y-49807037D01*
X21082007Y-49824075D01*
X20967993Y-49889901D01*
X20874901Y-49982993D01*
X20809075Y-50097007D01*
X20792037Y-50160591D01*
X20159728Y-49528282D01*
X20159727Y-49528282D01*
X20120380Y-49582440D01*
X20120376Y-49582446D01*
X20115760Y-49591505D01*
X20067781Y-49642297D01*
X19999959Y-49659087D01*
X19933826Y-49636543D01*
X19894794Y-49591493D01*
X19890051Y-49582184D01*
X19890049Y-49582181D01*
X19890048Y-49582179D01*
X19762241Y-49406266D01*
X19763108Y-49405635D01*
X19736641Y-49346581D01*
X19735500Y-49329800D01*
X19735500Y-48710199D01*
X19755185Y-48643160D01*
X19764471Y-48630664D01*
X19850890Y-48511717D01*
X19890051Y-48457816D01*
X19894793Y-48448508D01*
X19942763Y-48397711D01*
X20010583Y-48380911D01*
X20076719Y-48403445D01*
X20115763Y-48448500D01*
X20120373Y-48457547D01*
X20159728Y-48511716D01*
X20792037Y-47879408D01*
X20809075Y-47942993D01*
G37*
%TD.AperFunction*%
%TA.AperFunction,Conductor*%
G36*
X19940703Y-46235717D02*
G01*
X19975682Y-46286097D01*
X19981645Y-46302086D01*
X19981649Y-46302093D01*
X20067809Y-46417187D01*
X20067812Y-46417190D01*
X20182906Y-46503350D01*
X20182913Y-46503354D01*
X20317620Y-46553596D01*
X20317619Y-46553596D01*
X20400444Y-46562501D01*
X20400116Y-46565550D01*
X20417014Y-46564642D01*
X20476196Y-46597642D01*
X21145591Y-47267037D01*
X21082007Y-47284075D01*
X20967993Y-47349901D01*
X20874901Y-47442993D01*
X20809075Y-47557007D01*
X20792037Y-47620591D01*
X20159728Y-46988282D01*
X20159727Y-46988282D01*
X20120380Y-47042440D01*
X20120376Y-47042446D01*
X20115760Y-47051505D01*
X20067781Y-47102297D01*
X19999959Y-47119087D01*
X19933826Y-47096543D01*
X19894794Y-47051493D01*
X19890051Y-47042184D01*
X19890049Y-47042181D01*
X19890048Y-47042179D01*
X19762241Y-46866266D01*
X19763108Y-46865635D01*
X19736641Y-46806581D01*
X19735500Y-46789800D01*
X19735500Y-46329430D01*
X19755185Y-46262391D01*
X19807989Y-46216636D01*
X19877147Y-46206692D01*
X19940703Y-46235717D01*
G37*
%TD.AperFunction*%
%TA.AperFunction,Conductor*%
G36*
X65809075Y-47942993D02*
G01*
X65874901Y-48057007D01*
X65967993Y-48150099D01*
X66082007Y-48215925D01*
X66145590Y-48232962D01*
X65513282Y-48865269D01*
X65513282Y-48865270D01*
X65567452Y-48904626D01*
X65577048Y-48909516D01*
X65627844Y-48957491D01*
X65644638Y-49025312D01*
X65622100Y-49091447D01*
X65577051Y-49130483D01*
X65567440Y-49135380D01*
X65513282Y-49174727D01*
X65513282Y-49174728D01*
X66145591Y-49807037D01*
X66082007Y-49824075D01*
X65967993Y-49889901D01*
X65874901Y-49982993D01*
X65809075Y-50097007D01*
X65792037Y-50160591D01*
X65159728Y-49528282D01*
X65159727Y-49528282D01*
X65120380Y-49582440D01*
X65120376Y-49582446D01*
X65115760Y-49591505D01*
X65067781Y-49642297D01*
X64999959Y-49659087D01*
X64933826Y-49636543D01*
X64894794Y-49591493D01*
X64890051Y-49582184D01*
X64890049Y-49582181D01*
X64890048Y-49582179D01*
X64762241Y-49406266D01*
X64763108Y-49405635D01*
X64736641Y-49346581D01*
X64735500Y-49329800D01*
X64735500Y-48710199D01*
X64755185Y-48643160D01*
X64764471Y-48630664D01*
X64850890Y-48511717D01*
X64890051Y-48457816D01*
X64894793Y-48448508D01*
X64942763Y-48397711D01*
X65010583Y-48380911D01*
X65076719Y-48403445D01*
X65115763Y-48448500D01*
X65120373Y-48457547D01*
X65159728Y-48511716D01*
X65792037Y-47879408D01*
X65809075Y-47942993D01*
G37*
%TD.AperFunction*%
%TA.AperFunction,Conductor*%
G36*
X64940703Y-46235717D02*
G01*
X64975682Y-46286097D01*
X64981645Y-46302086D01*
X64981649Y-46302093D01*
X65067809Y-46417187D01*
X65067812Y-46417190D01*
X65182906Y-46503350D01*
X65182913Y-46503354D01*
X65317620Y-46553596D01*
X65317619Y-46553596D01*
X65400444Y-46562501D01*
X65400116Y-46565550D01*
X65417014Y-46564642D01*
X65476196Y-46597642D01*
X66145591Y-47267037D01*
X66082007Y-47284075D01*
X65967993Y-47349901D01*
X65874901Y-47442993D01*
X65809075Y-47557007D01*
X65792037Y-47620591D01*
X65159728Y-46988282D01*
X65159727Y-46988282D01*
X65120380Y-47042440D01*
X65120376Y-47042446D01*
X65115760Y-47051505D01*
X65067781Y-47102297D01*
X64999959Y-47119087D01*
X64933826Y-47096543D01*
X64894794Y-47051493D01*
X64890051Y-47042184D01*
X64890049Y-47042181D01*
X64890048Y-47042179D01*
X64762241Y-46866266D01*
X64763108Y-46865635D01*
X64736641Y-46806581D01*
X64735500Y-46789800D01*
X64735500Y-46329430D01*
X64755185Y-46262391D01*
X64807989Y-46216636D01*
X64877147Y-46206692D01*
X64940703Y-46235717D01*
G37*
%TD.AperFunction*%
%TA.AperFunction,Conductor*%
G36*
X50414285Y-12520185D02*
G01*
X50460040Y-12572989D01*
X50469984Y-12642147D01*
X50452785Y-12689597D01*
X50365643Y-12830875D01*
X50365641Y-12830880D01*
X50310494Y-12997302D01*
X50310493Y-12997309D01*
X50300000Y-13100013D01*
X50300000Y-13225000D01*
X52699999Y-13225000D01*
X52699999Y-13100028D01*
X52699998Y-13100013D01*
X52689505Y-12997302D01*
X52634358Y-12830880D01*
X52634356Y-12830875D01*
X52547215Y-12689597D01*
X52528775Y-12622204D01*
X52549698Y-12555541D01*
X52603340Y-12510771D01*
X52652754Y-12500500D01*
X67934108Y-12500500D01*
X67996949Y-12500500D01*
X68003032Y-12500648D01*
X68336929Y-12517052D01*
X68349037Y-12518245D01*
X68362116Y-12520185D01*
X68676699Y-12566849D01*
X68688617Y-12569219D01*
X69009951Y-12649709D01*
X69021588Y-12653240D01*
X69092806Y-12678722D01*
X69333467Y-12764832D01*
X69344688Y-12769479D01*
X69644163Y-12911120D01*
X69654871Y-12916844D01*
X69867058Y-13044024D01*
X69938988Y-13087137D01*
X69949103Y-13093895D01*
X70125877Y-13225000D01*
X70215170Y-13291224D01*
X70224576Y-13298944D01*
X70470013Y-13521395D01*
X70478604Y-13529986D01*
X70655354Y-13725000D01*
X70701055Y-13775423D01*
X70708775Y-13784829D01*
X70906102Y-14050893D01*
X70912862Y-14061011D01*
X71041776Y-14276092D01*
X71083148Y-14345116D01*
X71088883Y-14355844D01*
X71210314Y-14612589D01*
X71230514Y-14655297D01*
X71235170Y-14666540D01*
X71346759Y-14978411D01*
X71350292Y-14990055D01*
X71430777Y-15311369D01*
X71433151Y-15323305D01*
X71481754Y-15650962D01*
X71482947Y-15663071D01*
X71499351Y-15996966D01*
X71499500Y-16003051D01*
X71499500Y-52996948D01*
X71499351Y-53003033D01*
X71482947Y-53336928D01*
X71481754Y-53349037D01*
X71433151Y-53676694D01*
X71430777Y-53688630D01*
X71350292Y-54009944D01*
X71346759Y-54021588D01*
X71235170Y-54333459D01*
X71230514Y-54344702D01*
X71088885Y-54644151D01*
X71083148Y-54654883D01*
X70912862Y-54938988D01*
X70906102Y-54949106D01*
X70708775Y-55215170D01*
X70701055Y-55224576D01*
X70478611Y-55470006D01*
X70470006Y-55478611D01*
X70224576Y-55701055D01*
X70215170Y-55708775D01*
X69949106Y-55906102D01*
X69938988Y-55912862D01*
X69654883Y-56083148D01*
X69644151Y-56088885D01*
X69344702Y-56230514D01*
X69333459Y-56235170D01*
X69021588Y-56346759D01*
X69009944Y-56350292D01*
X68688630Y-56430777D01*
X68676694Y-56433151D01*
X68349037Y-56481754D01*
X68336928Y-56482947D01*
X68021989Y-56498419D01*
X68003031Y-56499351D01*
X67996949Y-56499500D01*
X16003051Y-56499500D01*
X15996968Y-56499351D01*
X15976900Y-56498365D01*
X15663071Y-56482947D01*
X15650962Y-56481754D01*
X15323305Y-56433151D01*
X15311369Y-56430777D01*
X14990055Y-56350292D01*
X14978411Y-56346759D01*
X14666540Y-56235170D01*
X14655301Y-56230515D01*
X14355844Y-56088883D01*
X14345121Y-56083150D01*
X14061011Y-55912862D01*
X14050893Y-55906102D01*
X13784829Y-55708775D01*
X13775423Y-55701055D01*
X13736475Y-55665755D01*
X13529986Y-55478604D01*
X13521395Y-55470013D01*
X13298944Y-55224576D01*
X13291224Y-55215170D01*
X13183343Y-55069709D01*
X13093895Y-54949103D01*
X13087137Y-54938988D01*
X13075470Y-54919523D01*
X12916844Y-54654871D01*
X12911120Y-54644163D01*
X12769479Y-54344688D01*
X12764829Y-54333459D01*
X12763600Y-54330025D01*
X12653240Y-54021588D01*
X12649707Y-54009944D01*
X12634297Y-53948422D01*
X12569219Y-53688617D01*
X12566848Y-53676694D01*
X12565724Y-53669119D01*
X12533539Y-53452146D01*
X12525802Y-53399986D01*
X31800001Y-53399986D01*
X31810494Y-53502697D01*
X31865641Y-53669119D01*
X31865643Y-53669124D01*
X31957684Y-53818345D01*
X32081654Y-53942315D01*
X32230875Y-54034356D01*
X32230880Y-54034358D01*
X32397302Y-54089505D01*
X32397309Y-54089506D01*
X32500019Y-54099999D01*
X32749999Y-54099999D01*
X33250000Y-54099999D01*
X33499972Y-54099999D01*
X33499986Y-54099998D01*
X33602697Y-54089505D01*
X33769119Y-54034358D01*
X33769124Y-54034356D01*
X33918345Y-53942315D01*
X34042315Y-53818345D01*
X34134356Y-53669124D01*
X34134358Y-53669119D01*
X34189505Y-53502697D01*
X34189506Y-53502690D01*
X34199999Y-53399986D01*
X34200000Y-53399973D01*
X34200000Y-53275000D01*
X33250000Y-53275000D01*
X33250000Y-54099999D01*
X32749999Y-54099999D01*
X32750000Y-54099998D01*
X32750000Y-53275000D01*
X31800001Y-53275000D01*
X31800001Y-53399986D01*
X12525802Y-53399986D01*
X12518245Y-53349037D01*
X12517052Y-53336928D01*
X12500649Y-53003032D01*
X12500500Y-52996948D01*
X12500500Y-36184166D01*
X13444500Y-36184166D01*
X13444500Y-36815833D01*
X13461449Y-36944566D01*
X13461725Y-36946662D01*
X13495800Y-37073829D01*
X13518729Y-37129185D01*
X13546302Y-37195750D01*
X13546303Y-37195751D01*
X13612120Y-37309749D01*
X13612132Y-37309767D01*
X13675836Y-37392786D01*
X13692459Y-37414449D01*
X13785551Y-37507541D01*
X13785555Y-37507544D01*
X13890232Y-37587867D01*
X13890236Y-37587869D01*
X13890243Y-37587875D01*
X13890250Y-37587879D01*
X14004248Y-37653696D01*
X14004249Y-37653697D01*
X14004252Y-37653698D01*
X14004257Y-37653701D01*
X14126171Y-37704200D01*
X14253338Y-37738275D01*
X14384174Y-37755500D01*
X14384181Y-37755500D01*
X14950000Y-37755500D01*
X15021940Y-37750355D01*
X15059259Y-37739396D01*
X15111841Y-37735636D01*
X15250000Y-37755500D01*
X15250003Y-37755500D01*
X15815819Y-37755500D01*
X15815826Y-37755500D01*
X15946662Y-37738275D01*
X16029235Y-37716149D01*
X16099083Y-37717812D01*
X16149008Y-37748243D01*
X16765139Y-38364374D01*
X16765149Y-38364385D01*
X16881285Y-38480521D01*
X16937499Y-38512975D01*
X16985715Y-38563542D01*
X16999500Y-38620363D01*
X16999500Y-39047870D01*
X16999501Y-39047876D01*
X17005908Y-39107483D01*
X17056202Y-39242328D01*
X17056206Y-39242335D01*
X17142452Y-39357544D01*
X17142455Y-39357547D01*
X17257664Y-39443793D01*
X17257671Y-39443797D01*
X17392517Y-39494091D01*
X17392516Y-39494091D01*
X17399444Y-39494835D01*
X17452127Y-39500500D01*
X19547872Y-39500499D01*
X19607483Y-39494091D01*
X19736859Y-39445837D01*
X27605000Y-39445837D01*
X27611043Y-39512343D01*
X27658724Y-39665359D01*
X27658726Y-39665363D01*
X27741639Y-39802519D01*
X27741642Y-39802523D01*
X27854976Y-39915857D01*
X27854980Y-39915860D01*
X27992136Y-39998773D01*
X27992138Y-39998774D01*
X28145155Y-40046456D01*
X28145161Y-40046458D01*
X28174999Y-40049168D01*
X28175000Y-40049168D01*
X28675000Y-40049168D01*
X28704838Y-40046458D01*
X28704844Y-40046456D01*
X28857861Y-39998774D01*
X28857863Y-39998773D01*
X28995019Y-39915860D01*
X28995023Y-39915857D01*
X29108357Y-39802523D01*
X29108360Y-39802519D01*
X29191273Y-39665363D01*
X29191275Y-39665359D01*
X29238956Y-39512343D01*
X29245000Y-39445837D01*
X29245000Y-39445000D01*
X28675000Y-39445000D01*
X28675000Y-40049168D01*
X28175000Y-40049168D01*
X28175000Y-39445000D01*
X27605000Y-39445000D01*
X27605000Y-39445837D01*
X19736859Y-39445837D01*
X19742331Y-39443796D01*
X19857546Y-39357546D01*
X19943796Y-39242331D01*
X19994091Y-39107483D01*
X20000500Y-39047873D01*
X20000499Y-36952128D01*
X19994091Y-36892517D01*
X19977732Y-36848657D01*
X19943797Y-36757671D01*
X19943793Y-36757664D01*
X19857547Y-36642455D01*
X19857544Y-36642452D01*
X19742335Y-36556206D01*
X19742328Y-36556202D01*
X19607482Y-36505908D01*
X19607483Y-36505908D01*
X19547883Y-36499501D01*
X19547881Y-36499500D01*
X19547873Y-36499500D01*
X19547864Y-36499500D01*
X17452129Y-36499500D01*
X17452123Y-36499501D01*
X17392516Y-36505908D01*
X17257671Y-36556202D01*
X17257664Y-36556206D01*
X17142455Y-36642452D01*
X17056638Y-36757087D01*
X17000704Y-36798958D01*
X16931012Y-36803941D01*
X16869691Y-36770456D01*
X16791819Y-36692584D01*
X16758334Y-36631261D01*
X16755500Y-36604903D01*
X16755500Y-36184180D01*
X16755499Y-36184166D01*
X16747679Y-36124767D01*
X16738275Y-36053338D01*
X16704200Y-35926171D01*
X16653701Y-35804257D01*
X16653698Y-35804252D01*
X16653697Y-35804249D01*
X16653696Y-35804248D01*
X16599361Y-35710137D01*
X16587875Y-35690243D01*
X16567653Y-35663890D01*
X16507544Y-35585555D01*
X16507541Y-35585551D01*
X16414449Y-35492459D01*
X16414447Y-35492457D01*
X16414443Y-35492454D01*
X16399010Y-35480611D01*
X16357809Y-35424182D01*
X16350500Y-35382238D01*
X16350500Y-35340096D01*
X16370185Y-35273057D01*
X16386814Y-35252419D01*
X17305478Y-34333755D01*
X17366799Y-34300272D01*
X17431473Y-34303506D01*
X17473757Y-34317246D01*
X17683713Y-34350500D01*
X17683714Y-34350500D01*
X17896286Y-34350500D01*
X17896287Y-34350500D01*
X18106243Y-34317246D01*
X18308412Y-34251557D01*
X18497816Y-34155051D01*
X18585085Y-34091647D01*
X18669786Y-34030109D01*
X18669788Y-34030106D01*
X18669792Y-34030104D01*
X18820104Y-33879792D01*
X18820106Y-33879788D01*
X18820109Y-33879786D01*
X18898657Y-33771672D01*
X18945051Y-33707816D01*
X18948097Y-33701838D01*
X18965235Y-33668205D01*
X19013209Y-33617409D01*
X19075719Y-33600500D01*
X24063331Y-33600500D01*
X24063347Y-33600501D01*
X24070943Y-33600501D01*
X24229054Y-33600501D01*
X24229057Y-33600501D01*
X24381785Y-33559577D01*
X24433129Y-33529933D01*
X24518716Y-33480520D01*
X24630520Y-33368716D01*
X24630520Y-33368714D01*
X24640724Y-33358511D01*
X24640728Y-33358506D01*
X29892416Y-28106818D01*
X29953739Y-28073333D01*
X29980097Y-28070499D01*
X30150888Y-28070499D01*
X30217426Y-28064453D01*
X30217427Y-28064452D01*
X30217433Y-28064452D01*
X30370569Y-28016733D01*
X30464050Y-27960222D01*
X30507829Y-27933757D01*
X30507830Y-27933755D01*
X30507835Y-27933753D01*
X30554769Y-27886819D01*
X30616092Y-27853334D01*
X30642450Y-27850500D01*
X38163331Y-27850500D01*
X38163347Y-27850501D01*
X38170943Y-27850501D01*
X38329054Y-27850501D01*
X38329057Y-27850501D01*
X38481785Y-27809577D01*
X38531904Y-27780639D01*
X38618716Y-27730520D01*
X38730520Y-27618716D01*
X38730520Y-27618714D01*
X38740728Y-27608507D01*
X38740730Y-27608504D01*
X39787256Y-26561978D01*
X39787261Y-26561974D01*
X39797464Y-26551770D01*
X39797466Y-26551770D01*
X39909270Y-26439966D01*
X39972832Y-26329872D01*
X39988327Y-26303035D01*
X40021680Y-26178557D01*
X40058044Y-26118900D01*
X40120890Y-26088370D01*
X40125256Y-26087715D01*
X40138222Y-26086009D01*
X40138227Y-26086006D01*
X40146071Y-26083906D01*
X40146955Y-26087208D01*
X40200675Y-26081392D01*
X40211264Y-26084501D01*
X40211424Y-26083905D01*
X40219274Y-26086008D01*
X40219276Y-26086008D01*
X40219278Y-26086009D01*
X40329349Y-26100500D01*
X40528150Y-26100499D01*
X40528153Y-26100499D01*
X40638213Y-26086011D01*
X40638217Y-26086009D01*
X40638222Y-26086009D01*
X40775179Y-26029279D01*
X40892786Y-25939036D01*
X40919659Y-25904013D01*
X40976087Y-25862811D01*
X41018035Y-25855500D01*
X42157115Y-25855500D01*
X42224154Y-25875185D01*
X42269909Y-25927989D01*
X42279853Y-25997147D01*
X42275500Y-26016390D01*
X42239298Y-26132565D01*
X42233250Y-26199121D01*
X42233250Y-26700888D01*
X42239296Y-26767426D01*
X42239298Y-26767433D01*
X42287015Y-26920566D01*
X42287017Y-26920570D01*
X42369992Y-27057829D01*
X42369996Y-27057834D01*
X42483415Y-27171253D01*
X42483420Y-27171257D01*
X42620679Y-27254232D01*
X42620683Y-27254234D01*
X42674850Y-27271112D01*
X42773817Y-27301952D01*
X42840369Y-27308000D01*
X43122816Y-27307999D01*
X43189855Y-27327683D01*
X43235610Y-27380487D01*
X43244433Y-27407806D01*
X43255261Y-27462242D01*
X43255264Y-27462251D01*
X43315602Y-27607922D01*
X43315609Y-27607935D01*
X43403602Y-27739624D01*
X43424480Y-27806301D01*
X43424500Y-27808515D01*
X43424500Y-28295202D01*
X43404815Y-28362241D01*
X43399767Y-28369512D01*
X43371206Y-28407664D01*
X43371202Y-28407671D01*
X43320908Y-28542517D01*
X43314501Y-28602116D01*
X43314500Y-28602135D01*
X43314500Y-29397870D01*
X43314501Y-29397876D01*
X43320908Y-29457483D01*
X43371202Y-29592328D01*
X43371203Y-29592330D01*
X43414891Y-29650689D01*
X43439308Y-29716153D01*
X43424457Y-29784426D01*
X43414891Y-29799311D01*
X43371204Y-29857668D01*
X43365176Y-29873832D01*
X43323306Y-29929766D01*
X43257842Y-29954184D01*
X43248994Y-29954500D01*
X42374500Y-29954500D01*
X42307461Y-29934815D01*
X42261706Y-29882011D01*
X42250500Y-29830500D01*
X42250499Y-27952129D01*
X42250498Y-27952123D01*
X42250497Y-27952116D01*
X42244091Y-27892517D01*
X42228419Y-27850499D01*
X42193797Y-27757671D01*
X42193793Y-27757664D01*
X42107547Y-27642455D01*
X42107544Y-27642452D01*
X41992335Y-27556206D01*
X41992328Y-27556202D01*
X41857482Y-27505908D01*
X41857483Y-27505908D01*
X41797883Y-27499501D01*
X41797881Y-27499500D01*
X41797873Y-27499500D01*
X41797864Y-27499500D01*
X39702129Y-27499500D01*
X39702123Y-27499501D01*
X39642516Y-27505908D01*
X39507671Y-27556202D01*
X39507664Y-27556206D01*
X39392455Y-27642452D01*
X39392452Y-27642455D01*
X39306206Y-27757664D01*
X39306202Y-27757671D01*
X39255908Y-27892517D01*
X39251987Y-27928991D01*
X39249500Y-27952127D01*
X39249500Y-28918247D01*
X39249501Y-29830500D01*
X39229816Y-29897539D01*
X39177013Y-29943294D01*
X39125501Y-29954500D01*
X34121455Y-29954500D01*
X34024812Y-29973724D01*
X33928167Y-29992947D01*
X33928161Y-29992949D01*
X33874834Y-30015037D01*
X33874834Y-30015038D01*
X33829315Y-30033892D01*
X33746089Y-30068366D01*
X33746079Y-30068371D01*
X33582219Y-30177859D01*
X33512540Y-30247538D01*
X33442861Y-30317218D01*
X33442858Y-30317221D01*
X31311703Y-32448375D01*
X31250380Y-32481860D01*
X31187132Y-32479080D01*
X31047433Y-32435548D01*
X31047431Y-32435547D01*
X31047429Y-32435547D01*
X30995780Y-32430854D01*
X30980881Y-32429500D01*
X30980878Y-32429500D01*
X30479111Y-32429500D01*
X30412573Y-32435546D01*
X30412566Y-32435548D01*
X30259433Y-32483265D01*
X30259429Y-32483267D01*
X30122170Y-32566242D01*
X30122165Y-32566246D01*
X30008746Y-32679665D01*
X30008742Y-32679670D01*
X29925767Y-32816929D01*
X29925765Y-32816933D01*
X29878048Y-32970065D01*
X29872000Y-33036621D01*
X29872000Y-33463388D01*
X29878046Y-33529926D01*
X29878048Y-33529932D01*
X29925765Y-33683066D01*
X29925767Y-33683070D01*
X30008742Y-33820329D01*
X30008746Y-33820334D01*
X30093181Y-33904769D01*
X30126666Y-33966092D01*
X30129500Y-33992450D01*
X30129500Y-34428000D01*
X30109815Y-34495039D01*
X30057011Y-34540794D01*
X30005500Y-34552000D01*
X29167450Y-34552000D01*
X29100411Y-34532315D01*
X29079769Y-34515681D01*
X28995334Y-34431246D01*
X28995329Y-34431242D01*
X28858070Y-34348267D01*
X28858066Y-34348265D01*
X28704933Y-34300548D01*
X28704935Y-34300548D01*
X28678312Y-34298128D01*
X28638381Y-34294500D01*
X28638378Y-34294500D01*
X28211611Y-34294500D01*
X28145073Y-34300546D01*
X28145066Y-34300548D01*
X27991933Y-34348265D01*
X27991929Y-34348267D01*
X27854670Y-34431242D01*
X27854665Y-34431246D01*
X27741246Y-34544665D01*
X27741242Y-34544670D01*
X27658267Y-34681929D01*
X27658265Y-34681933D01*
X27610548Y-34835065D01*
X27604500Y-34901621D01*
X27604500Y-35403388D01*
X27610546Y-35469926D01*
X27610548Y-35469933D01*
X27658265Y-35623066D01*
X27658267Y-35623070D01*
X27696219Y-35685851D01*
X27714055Y-35753406D01*
X27696219Y-35814149D01*
X27658267Y-35876929D01*
X27658265Y-35876933D01*
X27610548Y-36030065D01*
X27609557Y-36040969D01*
X27605132Y-36089670D01*
X27604500Y-36096621D01*
X27604500Y-36598388D01*
X27610546Y-36664926D01*
X27610548Y-36664933D01*
X27658265Y-36818066D01*
X27658267Y-36818070D01*
X27741242Y-36955329D01*
X27741246Y-36955334D01*
X27788180Y-37002268D01*
X27821665Y-37063591D01*
X27824499Y-37089949D01*
X27824499Y-37241546D01*
X27824500Y-37241559D01*
X27824500Y-37257550D01*
X27804815Y-37324589D01*
X27788181Y-37345231D01*
X27741246Y-37392165D01*
X27741242Y-37392170D01*
X27658267Y-37529429D01*
X27658265Y-37529433D01*
X27610548Y-37682565D01*
X27610548Y-37682566D01*
X27610548Y-37682567D01*
X27605384Y-37739397D01*
X27604500Y-37749121D01*
X27604501Y-38250881D01*
X27604500Y-38250886D01*
X27610546Y-38317426D01*
X27610548Y-38317433D01*
X27658265Y-38470566D01*
X27658267Y-38470570D01*
X27696511Y-38533834D01*
X27714347Y-38601389D01*
X27696512Y-38662132D01*
X27658724Y-38724641D01*
X27611043Y-38877656D01*
X27605000Y-38944162D01*
X27605000Y-38945000D01*
X29245000Y-38945000D01*
X29245000Y-38944162D01*
X29238956Y-38877656D01*
X29191275Y-38724640D01*
X29153488Y-38662133D01*
X29135652Y-38594578D01*
X29153488Y-38533834D01*
X29191733Y-38470569D01*
X29239452Y-38317433D01*
X29245500Y-38250881D01*
X29245499Y-37749120D01*
X29245499Y-37749119D01*
X29245499Y-37749111D01*
X29239453Y-37682573D01*
X29239452Y-37682570D01*
X29239452Y-37682567D01*
X29203926Y-37568561D01*
X29191734Y-37529433D01*
X29189916Y-37525394D01*
X29180350Y-37456182D01*
X29209723Y-37392786D01*
X29268706Y-37355334D01*
X29302990Y-37350500D01*
X30575500Y-37350500D01*
X30642539Y-37370185D01*
X30688294Y-37422989D01*
X30699500Y-37474500D01*
X30699500Y-37574902D01*
X30679815Y-37641941D01*
X30663181Y-37662583D01*
X30249482Y-38076281D01*
X30249478Y-38076287D01*
X30203292Y-38156284D01*
X30170424Y-38213212D01*
X30170423Y-38213213D01*
X30160330Y-38250881D01*
X30129499Y-38365943D01*
X30129499Y-38365945D01*
X30129499Y-38534046D01*
X30129500Y-38534059D01*
X30129500Y-40007550D01*
X30109815Y-40074589D01*
X30093181Y-40095231D01*
X30008746Y-40179665D01*
X30008742Y-40179670D01*
X29925767Y-40316929D01*
X29925765Y-40316933D01*
X29878048Y-40470065D01*
X29872000Y-40536621D01*
X29872000Y-40963388D01*
X29878046Y-41029926D01*
X29878048Y-41029933D01*
X29925765Y-41183066D01*
X29925767Y-41183070D01*
X30003315Y-41311351D01*
X30021151Y-41378905D01*
X29999633Y-41445379D01*
X29945592Y-41489667D01*
X29897198Y-41499500D01*
X20354675Y-41499500D01*
X20354655Y-41499499D01*
X20348541Y-41499499D01*
X20151460Y-41499499D01*
X20151457Y-41499499D01*
X19958172Y-41537946D01*
X19958164Y-41537948D01*
X19776088Y-41613366D01*
X19776079Y-41613371D01*
X19612219Y-41722859D01*
X19612215Y-41722862D01*
X18456978Y-42878101D01*
X18097220Y-43237859D01*
X18097218Y-43237861D01*
X18027538Y-43307540D01*
X17957859Y-43377219D01*
X17848371Y-43541079D01*
X17848364Y-43541092D01*
X17772950Y-43723160D01*
X17772947Y-43723170D01*
X17734500Y-43916456D01*
X17734500Y-44249800D01*
X17714815Y-44316839D01*
X17705506Y-44329365D01*
X17579951Y-44502179D01*
X17483444Y-44691585D01*
X17417753Y-44893760D01*
X17398233Y-45017007D01*
X17384500Y-45103713D01*
X17384500Y-45316287D01*
X17386348Y-45327952D01*
X17417753Y-45526239D01*
X17483444Y-45728414D01*
X17579951Y-45917820D01*
X17707759Y-46093734D01*
X17706888Y-46094366D01*
X17733357Y-46153401D01*
X17734500Y-46170199D01*
X17734500Y-46789800D01*
X17714815Y-46856839D01*
X17705506Y-46869365D01*
X17579951Y-47042179D01*
X17483444Y-47231585D01*
X17417753Y-47433760D01*
X17416291Y-47442993D01*
X17384500Y-47643713D01*
X17384500Y-47856287D01*
X17394534Y-47919644D01*
X17417735Y-48066127D01*
X17417754Y-48066243D01*
X17435818Y-48121839D01*
X17483444Y-48268414D01*
X17579951Y-48457820D01*
X17707759Y-48633734D01*
X17706888Y-48634366D01*
X17733357Y-48693401D01*
X17734500Y-48710199D01*
X17734500Y-49329800D01*
X17714815Y-49396839D01*
X17705506Y-49409365D01*
X17579951Y-49582179D01*
X17483444Y-49771585D01*
X17417753Y-49973760D01*
X17384500Y-50183713D01*
X17384500Y-50396286D01*
X17417735Y-50606127D01*
X17417754Y-50606243D01*
X17483275Y-50807896D01*
X17483444Y-50808414D01*
X17579951Y-50997820D01*
X17704890Y-51169786D01*
X17855213Y-51320109D01*
X18027179Y-51445048D01*
X18027181Y-51445049D01*
X18027184Y-51445051D01*
X18216588Y-51541557D01*
X18418757Y-51607246D01*
X18628713Y-51640500D01*
X18628714Y-51640500D01*
X18841286Y-51640500D01*
X18841287Y-51640500D01*
X19051243Y-51607246D01*
X19253412Y-51541557D01*
X19442816Y-51445051D01*
X19487805Y-51412365D01*
X19614786Y-51320109D01*
X19614788Y-51320106D01*
X19614792Y-51320104D01*
X19765104Y-51169792D01*
X19765106Y-51169788D01*
X19765109Y-51169786D01*
X19850890Y-51051717D01*
X19890051Y-50997816D01*
X19894793Y-50988508D01*
X19942763Y-50937711D01*
X20010583Y-50920911D01*
X20076719Y-50943445D01*
X20115763Y-50988500D01*
X20120373Y-50997547D01*
X20159728Y-51051716D01*
X20792037Y-50419408D01*
X20809075Y-50482993D01*
X20874901Y-50597007D01*
X20967993Y-50690099D01*
X21082007Y-50755925D01*
X21145590Y-50772962D01*
X20513282Y-51405269D01*
X20513282Y-51405270D01*
X20567449Y-51444624D01*
X20756782Y-51541095D01*
X20958870Y-51606757D01*
X21168754Y-51640000D01*
X21381246Y-51640000D01*
X21591127Y-51606757D01*
X21591130Y-51606757D01*
X21793217Y-51541095D01*
X21982554Y-51444622D01*
X22036716Y-51405270D01*
X22036717Y-51405270D01*
X21404408Y-50772962D01*
X21467993Y-50755925D01*
X21582007Y-50690099D01*
X21675099Y-50597007D01*
X21740925Y-50482993D01*
X21757962Y-50419408D01*
X22390270Y-51051717D01*
X22390270Y-51051716D01*
X22429622Y-50997554D01*
X22526095Y-50808217D01*
X22591757Y-50606130D01*
X22591757Y-50606127D01*
X22625000Y-50396246D01*
X22625000Y-50183753D01*
X22591757Y-49973872D01*
X22591757Y-49973869D01*
X22526095Y-49771782D01*
X22429624Y-49582449D01*
X22390270Y-49528282D01*
X22390269Y-49528282D01*
X21757962Y-50160590D01*
X21740925Y-50097007D01*
X21675099Y-49982993D01*
X21582007Y-49889901D01*
X21467993Y-49824075D01*
X21404409Y-49807037D01*
X22036716Y-49174728D01*
X21982550Y-49135375D01*
X21972954Y-49130486D01*
X21922157Y-49082512D01*
X21905361Y-49014692D01*
X21927897Y-48948556D01*
X21972954Y-48909514D01*
X21982554Y-48904622D01*
X22036716Y-48865270D01*
X22036717Y-48865270D01*
X21404408Y-48232962D01*
X21467993Y-48215925D01*
X21582007Y-48150099D01*
X21675099Y-48057007D01*
X21740925Y-47942993D01*
X21757962Y-47879408D01*
X22390270Y-48511717D01*
X22390270Y-48511716D01*
X22429622Y-48457554D01*
X22526095Y-48268217D01*
X22591757Y-48066130D01*
X22591757Y-48066127D01*
X22625000Y-47856246D01*
X22625000Y-47643753D01*
X22591757Y-47433872D01*
X22591757Y-47433869D01*
X22526095Y-47231782D01*
X22429624Y-47042449D01*
X22390270Y-46988282D01*
X22390269Y-46988282D01*
X21757962Y-47620590D01*
X21740925Y-47557007D01*
X21675099Y-47442993D01*
X21582007Y-47349901D01*
X21467993Y-47284075D01*
X21404409Y-47267037D01*
X22073802Y-46597642D01*
X22135125Y-46564157D01*
X22149833Y-46565078D01*
X22149556Y-46562501D01*
X22232375Y-46553598D01*
X22367086Y-46503354D01*
X22367093Y-46503350D01*
X22482187Y-46417190D01*
X22482190Y-46417187D01*
X22568350Y-46302093D01*
X22568354Y-46302086D01*
X22618596Y-46167379D01*
X22618598Y-46167372D01*
X22624999Y-46107844D01*
X22625000Y-46107827D01*
X22625000Y-45460000D01*
X21708012Y-45460000D01*
X21740925Y-45402993D01*
X21775000Y-45275826D01*
X21775000Y-45144174D01*
X21740925Y-45017007D01*
X21708012Y-44960000D01*
X22625000Y-44960000D01*
X22625000Y-44312172D01*
X22624999Y-44312155D01*
X22618598Y-44252627D01*
X22618596Y-44252620D01*
X22568354Y-44117913D01*
X22568350Y-44117906D01*
X22482190Y-44002812D01*
X22482187Y-44002809D01*
X22367093Y-43916649D01*
X22367086Y-43916645D01*
X22232379Y-43866403D01*
X22232372Y-43866401D01*
X22172844Y-43860000D01*
X21525000Y-43860000D01*
X21525000Y-44776988D01*
X21467993Y-44744075D01*
X21340826Y-44710000D01*
X21209174Y-44710000D01*
X21082007Y-44744075D01*
X21025000Y-44776988D01*
X21025000Y-43860000D01*
X20604282Y-43860000D01*
X20537243Y-43840315D01*
X20491488Y-43787511D01*
X20481544Y-43718353D01*
X20510569Y-43654797D01*
X20516578Y-43648342D01*
X20628104Y-43536816D01*
X20689425Y-43503334D01*
X20715783Y-43500500D01*
X29433658Y-43500500D01*
X29500697Y-43520185D01*
X29546452Y-43572989D01*
X29557658Y-43624500D01*
X29557658Y-43654202D01*
X29596104Y-43847486D01*
X29596106Y-43847490D01*
X29596107Y-43847494D01*
X29600327Y-43857683D01*
X29601080Y-43859500D01*
X29671524Y-44029569D01*
X29671529Y-44029578D01*
X29781017Y-44193438D01*
X29781018Y-44193439D01*
X29781019Y-44193440D01*
X29920376Y-44332797D01*
X29920377Y-44332797D01*
X29927444Y-44339864D01*
X29927443Y-44339864D01*
X29927447Y-44339867D01*
X32325075Y-46737496D01*
X32358560Y-46798819D01*
X32353576Y-46868511D01*
X32311704Y-46924444D01*
X32284853Y-46939736D01*
X32276087Y-46943367D01*
X32276079Y-46943371D01*
X32112218Y-47052860D01*
X32112214Y-47052863D01*
X31972863Y-47192214D01*
X31972860Y-47192218D01*
X31863371Y-47356079D01*
X31863364Y-47356092D01*
X31787950Y-47538160D01*
X31787947Y-47538170D01*
X31749500Y-47731456D01*
X31749500Y-47731459D01*
X31749500Y-47928541D01*
X31749500Y-47928543D01*
X31749499Y-47928543D01*
X31787947Y-48121829D01*
X31787950Y-48121839D01*
X31863364Y-48303907D01*
X31863371Y-48303920D01*
X31965468Y-48456719D01*
X31986346Y-48523397D01*
X31980752Y-48562499D01*
X31959512Y-48630664D01*
X31935548Y-48707567D01*
X31935548Y-48707573D01*
X31929500Y-48774121D01*
X31929500Y-49275888D01*
X31935546Y-49342426D01*
X31935548Y-49342433D01*
X31983265Y-49495566D01*
X31983267Y-49495570D01*
X32066242Y-49632829D01*
X32066246Y-49632834D01*
X32179665Y-49746253D01*
X32179667Y-49746254D01*
X32210900Y-49765135D01*
X32258089Y-49816662D01*
X32269928Y-49885521D01*
X32242661Y-49949850D01*
X32211849Y-49976792D01*
X32081342Y-50057289D01*
X31957289Y-50181342D01*
X31865187Y-50330663D01*
X31865186Y-50330666D01*
X31810001Y-50497203D01*
X31810001Y-50497204D01*
X31810000Y-50497204D01*
X31799500Y-50599983D01*
X31799500Y-51350001D01*
X31799501Y-51350019D01*
X31810000Y-51452796D01*
X31810001Y-51452799D01*
X31839413Y-51541557D01*
X31865186Y-51619334D01*
X31957288Y-51768656D01*
X32081344Y-51892712D01*
X32084628Y-51894737D01*
X32084653Y-51894753D01*
X32086445Y-51896746D01*
X32087011Y-51897193D01*
X32086934Y-51897289D01*
X32131379Y-51946699D01*
X32142603Y-52015661D01*
X32114761Y-52079744D01*
X32084665Y-52105826D01*
X32081660Y-52107679D01*
X32081655Y-52107683D01*
X31957684Y-52231654D01*
X31865643Y-52380875D01*
X31865641Y-52380880D01*
X31810494Y-52547302D01*
X31810493Y-52547309D01*
X31800000Y-52650013D01*
X31800000Y-52775000D01*
X34199999Y-52775000D01*
X34199999Y-52650028D01*
X34199998Y-52650013D01*
X34189505Y-52547302D01*
X34134358Y-52380880D01*
X34134356Y-52380875D01*
X34042315Y-52231654D01*
X33918344Y-52107683D01*
X33918341Y-52107681D01*
X33915339Y-52105829D01*
X33913713Y-52104021D01*
X33912677Y-52103202D01*
X33912817Y-52103024D01*
X33868617Y-52053880D01*
X33857397Y-51984917D01*
X33885243Y-51920836D01*
X33915344Y-51894754D01*
X33918656Y-51892712D01*
X34042712Y-51768656D01*
X34134814Y-51619334D01*
X34189999Y-51452797D01*
X34200500Y-51350009D01*
X34200499Y-50599992D01*
X34196824Y-50564020D01*
X34189999Y-50497203D01*
X34189998Y-50497200D01*
X34178464Y-50462393D01*
X34134814Y-50330666D01*
X34042712Y-50181344D01*
X33918656Y-50057288D01*
X33798204Y-49982993D01*
X33769336Y-49965187D01*
X33769331Y-49965185D01*
X33723053Y-49949850D01*
X33685495Y-49937404D01*
X33628051Y-49897632D01*
X33601228Y-49833116D01*
X33600500Y-49819699D01*
X33600500Y-49195945D01*
X33600500Y-49195943D01*
X33574724Y-49099746D01*
X33570499Y-49067653D01*
X33570499Y-48774111D01*
X33564453Y-48707573D01*
X33564452Y-48707570D01*
X33564452Y-48707567D01*
X33561308Y-48697480D01*
X33560155Y-48627623D01*
X33592009Y-48572911D01*
X33697139Y-48467782D01*
X33697140Y-48467779D01*
X33788571Y-48376348D01*
X33849891Y-48342865D01*
X33919583Y-48347849D01*
X33963930Y-48376350D01*
X36722235Y-51134655D01*
X36722264Y-51134686D01*
X36864714Y-51277136D01*
X36864718Y-51277139D01*
X37028579Y-51386628D01*
X37028592Y-51386635D01*
X37157333Y-51439961D01*
X37200244Y-51457735D01*
X37210664Y-51462051D01*
X37307312Y-51481275D01*
X37355635Y-51490887D01*
X37403958Y-51500500D01*
X37403959Y-51500500D01*
X37403960Y-51500500D01*
X37601040Y-51500500D01*
X39223531Y-51500500D01*
X39290570Y-51520185D01*
X39311212Y-51536819D01*
X39342636Y-51568243D01*
X39342641Y-51568247D01*
X39412960Y-51619336D01*
X39520978Y-51697815D01*
X39649375Y-51763237D01*
X39717393Y-51797895D01*
X39717396Y-51797896D01*
X39822221Y-51831955D01*
X39927049Y-51866015D01*
X40144778Y-51900500D01*
X40144779Y-51900500D01*
X40365221Y-51900500D01*
X40365222Y-51900500D01*
X40582951Y-51866015D01*
X40792606Y-51797895D01*
X40989022Y-51697815D01*
X41167365Y-51568242D01*
X41323242Y-51412365D01*
X41452815Y-51234022D01*
X41552895Y-51037606D01*
X41621015Y-50827951D01*
X41655500Y-50610222D01*
X41655500Y-50389818D01*
X43855000Y-50389818D01*
X43855000Y-50610181D01*
X43889473Y-50827835D01*
X43957567Y-51037410D01*
X44057611Y-51233756D01*
X44103932Y-51297513D01*
X44653949Y-50747495D01*
X44678968Y-50807896D01*
X44750104Y-50914358D01*
X44840642Y-51004896D01*
X44947104Y-51076032D01*
X45007502Y-51101049D01*
X44457485Y-51651065D01*
X44457485Y-51651066D01*
X44521243Y-51697388D01*
X44717589Y-51797432D01*
X44927164Y-51865526D01*
X45144819Y-51900000D01*
X45365181Y-51900000D01*
X45582835Y-51865526D01*
X45792410Y-51797432D01*
X45988760Y-51697386D01*
X46052513Y-51651066D01*
X46052514Y-51651066D01*
X45502497Y-51101049D01*
X45562896Y-51076032D01*
X45669358Y-51004896D01*
X45759896Y-50914358D01*
X45831032Y-50807896D01*
X45856049Y-50747497D01*
X46406066Y-51297514D01*
X46406066Y-51297513D01*
X46452386Y-51233760D01*
X46552432Y-51037410D01*
X46620526Y-50827835D01*
X46655000Y-50610181D01*
X46655000Y-50389818D01*
X46620526Y-50172164D01*
X46552432Y-49962589D01*
X46452388Y-49766243D01*
X46406066Y-49702485D01*
X46406065Y-49702485D01*
X45856049Y-50252501D01*
X45831032Y-50192104D01*
X45759896Y-50085642D01*
X45669358Y-49995104D01*
X45562896Y-49923968D01*
X45502495Y-49898949D01*
X46052513Y-49348932D01*
X45988756Y-49302611D01*
X45792410Y-49202567D01*
X45582835Y-49134473D01*
X45365181Y-49100000D01*
X45144819Y-49100000D01*
X44927164Y-49134473D01*
X44717589Y-49202567D01*
X44521233Y-49302616D01*
X44457485Y-49348931D01*
X44457485Y-49348932D01*
X45007503Y-49898950D01*
X44947104Y-49923968D01*
X44840642Y-49995104D01*
X44750104Y-50085642D01*
X44678968Y-50192104D01*
X44653950Y-50252503D01*
X44103932Y-49702485D01*
X44103931Y-49702485D01*
X44057616Y-49766233D01*
X43957567Y-49962589D01*
X43889473Y-50172164D01*
X43855000Y-50389818D01*
X41655500Y-50389818D01*
X41655500Y-50389778D01*
X41621015Y-50172049D01*
X41557573Y-49976792D01*
X41552896Y-49962396D01*
X41552895Y-49962393D01*
X41495621Y-49849989D01*
X41452815Y-49765978D01*
X41406408Y-49702104D01*
X41323247Y-49587641D01*
X41323243Y-49587636D01*
X41167363Y-49431756D01*
X41167358Y-49431752D01*
X40989025Y-49302187D01*
X40989024Y-49302186D01*
X40989022Y-49302185D01*
X40926096Y-49270122D01*
X40792606Y-49202104D01*
X40792603Y-49202103D01*
X40582952Y-49133985D01*
X40474086Y-49116742D01*
X40365222Y-49099500D01*
X40144778Y-49099500D01*
X40072201Y-49110995D01*
X39927047Y-49133985D01*
X39717396Y-49202103D01*
X39717393Y-49202104D01*
X39520974Y-49302187D01*
X39342641Y-49431752D01*
X39342636Y-49431756D01*
X39311212Y-49463181D01*
X39249889Y-49496666D01*
X39223531Y-49499500D01*
X37968282Y-49499500D01*
X37901243Y-49479815D01*
X37880601Y-49463181D01*
X34657734Y-46240314D01*
X34657706Y-46240283D01*
X34510936Y-46093513D01*
X34510905Y-46093484D01*
X31594977Y-43177556D01*
X31561492Y-43116233D01*
X31558658Y-43089875D01*
X31558658Y-42965782D01*
X31578343Y-42898743D01*
X31594977Y-42878101D01*
X32139282Y-42333797D01*
X32686260Y-41786819D01*
X32747583Y-41753334D01*
X32773941Y-41750500D01*
X33676043Y-41750500D01*
X33815000Y-41722859D01*
X33869335Y-41712051D01*
X34051414Y-41636632D01*
X34204753Y-41534173D01*
X34271430Y-41513296D01*
X34310534Y-41518890D01*
X34455161Y-41563957D01*
X34521663Y-41570000D01*
X34522500Y-41570000D01*
X35022500Y-41570000D01*
X35023337Y-41570000D01*
X35089843Y-41563956D01*
X35242859Y-41516275D01*
X35242863Y-41516273D01*
X35380019Y-41433360D01*
X35380023Y-41433357D01*
X35493357Y-41320023D01*
X35493360Y-41320019D01*
X35576273Y-41182863D01*
X35576275Y-41182859D01*
X35623956Y-41029844D01*
X35626669Y-41000000D01*
X35022500Y-41000000D01*
X35022500Y-41570000D01*
X34522500Y-41570000D01*
X34522500Y-41107664D01*
X34525899Y-41078831D01*
X34528181Y-41069283D01*
X34539551Y-41041835D01*
X34578000Y-40848541D01*
X34578000Y-40651459D01*
X34578000Y-40651458D01*
X34578000Y-40651456D01*
X34547873Y-40500000D01*
X35022500Y-40500000D01*
X35626668Y-40500000D01*
X35623956Y-40470155D01*
X35576275Y-40317140D01*
X35576273Y-40317136D01*
X35493360Y-40179980D01*
X35493357Y-40179976D01*
X35380023Y-40066642D01*
X35380019Y-40066639D01*
X35242863Y-39983726D01*
X35242859Y-39983724D01*
X35089842Y-39936043D01*
X35089843Y-39936043D01*
X35023337Y-39930000D01*
X35022500Y-39930000D01*
X35022500Y-40500000D01*
X34547873Y-40500000D01*
X34539551Y-40458166D01*
X34539551Y-40458165D01*
X34535788Y-40449082D01*
X34531938Y-40439784D01*
X34522500Y-40392333D01*
X34522500Y-39933259D01*
X34519183Y-39930225D01*
X34455159Y-39936043D01*
X34310533Y-39981109D01*
X34240673Y-39982259D01*
X34204753Y-39965825D01*
X34051420Y-39863371D01*
X34051407Y-39863364D01*
X33869339Y-39787950D01*
X33869329Y-39787947D01*
X33775308Y-39769245D01*
X33713397Y-39736860D01*
X33678823Y-39676144D01*
X33675500Y-39647628D01*
X33675500Y-39199097D01*
X33695185Y-39132058D01*
X33747989Y-39086303D01*
X33817147Y-39076359D01*
X33880703Y-39105384D01*
X33887181Y-39111416D01*
X34207639Y-39431874D01*
X34207649Y-39431885D01*
X34211979Y-39436215D01*
X34211980Y-39436216D01*
X34323784Y-39548020D01*
X34323786Y-39548021D01*
X34323790Y-39548024D01*
X34455977Y-39624341D01*
X34460716Y-39627077D01*
X34565117Y-39655051D01*
X34613442Y-39668000D01*
X34613443Y-39668000D01*
X36179621Y-39668000D01*
X36246660Y-39687685D01*
X36267297Y-39704314D01*
X36365046Y-39802063D01*
X36365047Y-39802064D01*
X36365049Y-39802065D01*
X36365842Y-39802534D01*
X36507600Y-39886370D01*
X36549541Y-39898555D01*
X36666637Y-39932575D01*
X36666640Y-39932575D01*
X36666642Y-39932576D01*
X36703797Y-39935500D01*
X37146202Y-39935499D01*
X37183358Y-39932576D01*
X37342400Y-39886370D01*
X37484954Y-39802063D01*
X37602063Y-39684954D01*
X37686370Y-39542400D01*
X37732576Y-39383358D01*
X37735500Y-39346203D01*
X37735499Y-38788798D01*
X37735331Y-38786662D01*
X38685000Y-38786662D01*
X38685000Y-38787500D01*
X39255000Y-38787500D01*
X39755000Y-38787500D01*
X40325000Y-38787500D01*
X40325000Y-38786662D01*
X40318956Y-38720156D01*
X40271275Y-38567140D01*
X40271273Y-38567136D01*
X40188360Y-38429980D01*
X40188357Y-38429976D01*
X40075023Y-38316642D01*
X40075019Y-38316639D01*
X39937863Y-38233726D01*
X39937859Y-38233724D01*
X39784843Y-38186043D01*
X39784844Y-38186043D01*
X39755000Y-38183331D01*
X39755000Y-38787500D01*
X39255000Y-38787500D01*
X39255000Y-38183331D01*
X39225155Y-38186043D01*
X39072140Y-38233724D01*
X39072136Y-38233726D01*
X38934980Y-38316639D01*
X38934976Y-38316642D01*
X38821642Y-38429976D01*
X38821639Y-38429980D01*
X38738726Y-38567136D01*
X38738724Y-38567140D01*
X38691043Y-38720156D01*
X38685000Y-38786662D01*
X37735331Y-38786662D01*
X37732576Y-38751642D01*
X37686370Y-38592600D01*
X37668644Y-38562628D01*
X37651462Y-38494905D01*
X37668646Y-38436386D01*
X37685905Y-38407202D01*
X37685908Y-38407194D01*
X37732077Y-38248283D01*
X37732078Y-38248277D01*
X37734999Y-38211157D01*
X37735000Y-38211142D01*
X37735000Y-38182500D01*
X36115000Y-38182500D01*
X36115000Y-38211157D01*
X36117921Y-38248277D01*
X36117922Y-38248283D01*
X36135390Y-38308405D01*
X36135191Y-38378274D01*
X36097249Y-38436944D01*
X36033611Y-38465788D01*
X36016314Y-38467000D01*
X34992597Y-38467000D01*
X34925558Y-38447315D01*
X34904916Y-38430681D01*
X34136818Y-37662583D01*
X34103333Y-37601260D01*
X34100499Y-37574902D01*
X34100499Y-37474500D01*
X34120184Y-37407461D01*
X34172988Y-37361706D01*
X34224499Y-37350500D01*
X34990831Y-37350500D01*
X34990847Y-37350501D01*
X34998443Y-37350501D01*
X35156554Y-37350501D01*
X35156557Y-37350501D01*
X35309285Y-37309577D01*
X35376202Y-37270942D01*
X35446216Y-37230520D01*
X35558020Y-37118716D01*
X35558020Y-37118714D01*
X35568224Y-37108511D01*
X35568227Y-37108506D01*
X36028030Y-36648704D01*
X36089348Y-36615222D01*
X36159039Y-36620206D01*
X36214973Y-36662077D01*
X36221823Y-36672239D01*
X36241638Y-36705018D01*
X36241642Y-36705023D01*
X36354976Y-36818357D01*
X36354980Y-36818360D01*
X36498556Y-36905154D01*
X36497136Y-36907502D01*
X36540413Y-36944566D01*
X36560484Y-37011491D01*
X36541186Y-37078643D01*
X36499607Y-37118938D01*
X36365358Y-37198332D01*
X36365349Y-37198339D01*
X36248339Y-37315349D01*
X36248333Y-37315357D01*
X36164092Y-37457802D01*
X36164091Y-37457805D01*
X36117922Y-37616716D01*
X36117921Y-37616722D01*
X36115000Y-37653842D01*
X36115000Y-37682500D01*
X36675000Y-37682500D01*
X36675000Y-37013029D01*
X36676220Y-37013029D01*
X37173562Y-37013029D01*
X37175000Y-37013029D01*
X37175000Y-37682500D01*
X37735000Y-37682500D01*
X37735000Y-37653857D01*
X37734999Y-37653842D01*
X37732078Y-37616722D01*
X37732077Y-37616716D01*
X37685908Y-37457805D01*
X37685907Y-37457802D01*
X37601666Y-37315357D01*
X37601660Y-37315349D01*
X37484650Y-37198339D01*
X37484641Y-37198332D01*
X37350392Y-37118938D01*
X37302709Y-37067869D01*
X37290205Y-36999127D01*
X37316850Y-36934538D01*
X37352529Y-36906949D01*
X37351444Y-36905154D01*
X37495019Y-36818360D01*
X37495023Y-36818357D01*
X37608357Y-36705023D01*
X37608360Y-36705019D01*
X37693883Y-36563546D01*
X37745410Y-36516358D01*
X37814269Y-36504519D01*
X37878598Y-36531787D01*
X37906117Y-36563546D01*
X37991639Y-36705019D01*
X37991642Y-36705023D01*
X38104976Y-36818357D01*
X38104980Y-36818360D01*
X38242136Y-36901273D01*
X38242138Y-36901274D01*
X38395155Y-36948956D01*
X38395161Y-36948958D01*
X38424999Y-36951668D01*
X38425000Y-36951668D01*
X38925000Y-36951668D01*
X38954838Y-36948958D01*
X38954844Y-36948956D01*
X39107861Y-36901274D01*
X39107863Y-36901273D01*
X39245019Y-36818360D01*
X39245023Y-36818357D01*
X39358357Y-36705023D01*
X39358360Y-36705019D01*
X39441273Y-36567863D01*
X39441275Y-36567859D01*
X39488956Y-36414843D01*
X39495000Y-36348337D01*
X39495000Y-36347500D01*
X38925000Y-36347500D01*
X38925000Y-36951668D01*
X38425000Y-36951668D01*
X38425000Y-36347500D01*
X37827830Y-36347500D01*
X37826358Y-36348304D01*
X37815116Y-36347500D01*
X37803638Y-36347500D01*
X37803638Y-36346679D01*
X37796362Y-36346158D01*
X37796362Y-36347500D01*
X37175000Y-36347500D01*
X37175000Y-37006353D01*
X37173736Y-37006353D01*
X37173562Y-37013029D01*
X36676220Y-37013029D01*
X36676435Y-37006353D01*
X36675000Y-37006353D01*
X36675000Y-36221500D01*
X36694685Y-36154461D01*
X36747489Y-36108706D01*
X36799000Y-36097500D01*
X36925000Y-36097500D01*
X36925000Y-35971500D01*
X36944685Y-35904461D01*
X36997489Y-35858706D01*
X37049000Y-35847500D01*
X37772170Y-35847500D01*
X37773642Y-35846696D01*
X37784884Y-35847500D01*
X37796362Y-35847500D01*
X37796362Y-35848320D01*
X37803638Y-35848841D01*
X37803638Y-35847500D01*
X39495000Y-35847500D01*
X39495000Y-35846662D01*
X39488957Y-35780161D01*
X39452726Y-35663890D01*
X39451576Y-35594030D01*
X39488377Y-35534637D01*
X39551446Y-35504569D01*
X39571112Y-35503000D01*
X42309863Y-35503000D01*
X42376902Y-35522685D01*
X42422657Y-35575489D01*
X42432601Y-35644647D01*
X42432342Y-35646355D01*
X42399500Y-35853713D01*
X42399500Y-36066287D01*
X42404444Y-36097500D01*
X42418172Y-36184180D01*
X42432754Y-36276243D01*
X42490928Y-36455284D01*
X42498444Y-36478414D01*
X42594951Y-36667820D01*
X42719890Y-36839786D01*
X42870213Y-36990109D01*
X43042182Y-37115050D01*
X43050946Y-37119516D01*
X43101742Y-37167491D01*
X43118536Y-37235312D01*
X43095998Y-37301447D01*
X43050946Y-37340484D01*
X43042182Y-37344949D01*
X42870213Y-37469890D01*
X42719890Y-37620213D01*
X42594951Y-37792179D01*
X42498444Y-37981585D01*
X42432753Y-38183760D01*
X42411581Y-38317434D01*
X42399500Y-38393713D01*
X42399500Y-38606287D01*
X42401973Y-38621898D01*
X42430851Y-38804233D01*
X42432754Y-38816243D01*
X42473081Y-38940357D01*
X42498444Y-39018414D01*
X42594951Y-39207820D01*
X42719890Y-39379786D01*
X42833430Y-39493326D01*
X42866915Y-39554649D01*
X42861931Y-39624341D01*
X42820059Y-39680274D01*
X42789083Y-39697189D01*
X42657669Y-39746203D01*
X42657664Y-39746206D01*
X42542455Y-39832452D01*
X42542452Y-39832455D01*
X42456206Y-39947664D01*
X42456202Y-39947671D01*
X42405908Y-40082517D01*
X42399501Y-40142116D01*
X42399501Y-40142123D01*
X42399500Y-40142135D01*
X42399500Y-40315500D01*
X42379815Y-40382539D01*
X42327011Y-40428294D01*
X42275500Y-40439500D01*
X40612597Y-40439500D01*
X40545558Y-40419815D01*
X40524916Y-40403181D01*
X40361818Y-40240083D01*
X40328333Y-40178760D01*
X40325499Y-40152402D01*
X40325499Y-39981611D01*
X40319453Y-39915073D01*
X40319452Y-39915070D01*
X40319452Y-39915067D01*
X40277278Y-39779726D01*
X40271734Y-39761933D01*
X40271732Y-39761929D01*
X40233488Y-39698665D01*
X40215652Y-39631111D01*
X40233489Y-39570365D01*
X40271273Y-39507862D01*
X40318957Y-39354838D01*
X40325000Y-39288337D01*
X40325000Y-39287500D01*
X38685000Y-39287500D01*
X38685000Y-39288337D01*
X38691043Y-39354843D01*
X38738724Y-39507859D01*
X38738726Y-39507863D01*
X38776511Y-39570367D01*
X38794347Y-39637921D01*
X38776512Y-39698664D01*
X38738267Y-39761931D01*
X38738264Y-39761937D01*
X38690548Y-39915065D01*
X38690548Y-39915066D01*
X38690548Y-39915067D01*
X38684547Y-39981109D01*
X38684500Y-39981621D01*
X38684500Y-40483388D01*
X38690546Y-40549926D01*
X38690548Y-40549933D01*
X38738265Y-40703066D01*
X38738267Y-40703070D01*
X38821242Y-40840329D01*
X38821246Y-40840334D01*
X38934665Y-40953753D01*
X38934670Y-40953757D01*
X39071929Y-41036732D01*
X39071933Y-41036734D01*
X39126100Y-41053612D01*
X39225067Y-41084452D01*
X39291619Y-41090500D01*
X39462401Y-41090499D01*
X39529441Y-41110183D01*
X39550083Y-41126818D01*
X39827639Y-41404374D01*
X39827649Y-41404385D01*
X39831979Y-41408715D01*
X39831980Y-41408716D01*
X39943784Y-41520520D01*
X39943786Y-41520521D01*
X39943790Y-41520524D01*
X40080709Y-41599573D01*
X40080716Y-41599577D01*
X40192519Y-41629534D01*
X40233442Y-41640500D01*
X40233443Y-41640500D01*
X42275501Y-41640500D01*
X42342540Y-41660185D01*
X42388295Y-41712989D01*
X42399501Y-41764500D01*
X42399501Y-41937876D01*
X42405908Y-41997483D01*
X42456202Y-42132328D01*
X42456206Y-42132335D01*
X42542452Y-42247544D01*
X42542455Y-42247547D01*
X42657664Y-42333793D01*
X42657671Y-42333797D01*
X42792517Y-42384091D01*
X42792516Y-42384091D01*
X42799444Y-42384835D01*
X42852127Y-42390500D01*
X44647872Y-42390499D01*
X44707483Y-42384091D01*
X44842331Y-42333796D01*
X44957546Y-42247546D01*
X45043796Y-42132331D01*
X45094091Y-41997483D01*
X45100500Y-41937873D01*
X45100499Y-40142128D01*
X45094091Y-40082517D01*
X45085562Y-40059650D01*
X45043797Y-39947671D01*
X45043793Y-39947664D01*
X44957547Y-39832455D01*
X44957544Y-39832452D01*
X44842335Y-39746206D01*
X44842328Y-39746202D01*
X44710917Y-39697189D01*
X44654983Y-39655318D01*
X44630566Y-39589853D01*
X44645418Y-39521580D01*
X44666563Y-39493332D01*
X44780104Y-39379792D01*
X44798231Y-39354843D01*
X44905048Y-39207820D01*
X44905047Y-39207820D01*
X44905051Y-39207816D01*
X45001557Y-39018412D01*
X45067246Y-38816243D01*
X45100500Y-38606287D01*
X45100500Y-38393713D01*
X45067246Y-38183757D01*
X45053506Y-38141473D01*
X45051512Y-38071635D01*
X45083753Y-38015480D01*
X45380520Y-37718716D01*
X45459577Y-37581784D01*
X45500501Y-37429057D01*
X45500501Y-37270942D01*
X45500501Y-37270940D01*
X45500501Y-37263347D01*
X45500500Y-37263329D01*
X45500500Y-35404598D01*
X45500499Y-35404594D01*
X45496172Y-35388443D01*
X45495058Y-35384285D01*
X45459577Y-35251869D01*
X45417920Y-35179718D01*
X45380520Y-35114938D01*
X45268716Y-35003134D01*
X45268715Y-35003133D01*
X45264385Y-34998803D01*
X45264374Y-34998793D01*
X44148936Y-33883355D01*
X44148934Y-33883352D01*
X44030063Y-33764481D01*
X44030062Y-33764480D01*
X43931916Y-33707816D01*
X43931915Y-33707815D01*
X43893129Y-33685422D01*
X43837227Y-33670443D01*
X43740403Y-33644499D01*
X43582289Y-33644499D01*
X43574693Y-33644499D01*
X43574677Y-33644500D01*
X37503440Y-33644500D01*
X37462519Y-33655464D01*
X37462519Y-33655465D01*
X37425251Y-33665451D01*
X37350714Y-33685423D01*
X37350709Y-33685426D01*
X37213790Y-33764475D01*
X37213782Y-33764481D01*
X37115747Y-33862517D01*
X37101980Y-33876284D01*
X37101978Y-33876286D01*
X37029931Y-33948333D01*
X36970082Y-34008182D01*
X36908759Y-34041666D01*
X36882402Y-34044500D01*
X36711611Y-34044500D01*
X36645073Y-34050546D01*
X36645066Y-34050548D01*
X36491933Y-34098265D01*
X36491929Y-34098267D01*
X36354670Y-34181242D01*
X36354665Y-34181246D01*
X36241246Y-34294665D01*
X36241242Y-34294670D01*
X36158267Y-34431929D01*
X36158265Y-34431933D01*
X36110548Y-34585065D01*
X36104500Y-34651621D01*
X36104500Y-34822401D01*
X36084815Y-34889440D01*
X36068181Y-34910082D01*
X35766922Y-35211342D01*
X35164116Y-35814149D01*
X34865084Y-36113181D01*
X34803761Y-36146666D01*
X34777403Y-36149500D01*
X34219664Y-36149500D01*
X34201526Y-36144174D01*
X34182626Y-36143839D01*
X34168696Y-36134534D01*
X34152625Y-36129815D01*
X34140246Y-36115529D01*
X34124527Y-36105029D01*
X34117839Y-36089670D01*
X34106870Y-36077011D01*
X34104179Y-36058300D01*
X34096633Y-36040969D01*
X34096374Y-36038754D01*
X34094091Y-36017517D01*
X34070598Y-35954531D01*
X34065615Y-35884841D01*
X34084706Y-35843690D01*
X34083955Y-35843256D01*
X34088018Y-35836217D01*
X34088020Y-35836216D01*
X34150374Y-35728215D01*
X34167077Y-35699285D01*
X34208001Y-35546557D01*
X34208001Y-35388443D01*
X34208001Y-35380848D01*
X34208000Y-35380830D01*
X34208000Y-34158686D01*
X34227685Y-34091647D01*
X34280489Y-34045892D01*
X34349647Y-34035948D01*
X34366595Y-34039610D01*
X34426716Y-34057077D01*
X34426722Y-34057078D01*
X34463842Y-34059999D01*
X34463858Y-34060000D01*
X34492500Y-34060000D01*
X34992500Y-34060000D01*
X35021142Y-34060000D01*
X35021157Y-34059999D01*
X35058277Y-34057078D01*
X35058283Y-34057077D01*
X35217194Y-34010908D01*
X35217197Y-34010907D01*
X35359642Y-33926666D01*
X35359650Y-33926660D01*
X35476660Y-33809650D01*
X35476666Y-33809642D01*
X35560907Y-33667197D01*
X35560909Y-33667194D01*
X35607078Y-33508281D01*
X35607730Y-33500000D01*
X34992500Y-33500000D01*
X34992500Y-34060000D01*
X34492500Y-34060000D01*
X34492500Y-33000000D01*
X34992500Y-33000000D01*
X35607730Y-33000000D01*
X35607078Y-32991718D01*
X35560909Y-32832805D01*
X35560907Y-32832802D01*
X35476666Y-32690357D01*
X35476660Y-32690349D01*
X35359650Y-32573339D01*
X35359642Y-32573333D01*
X35217197Y-32489092D01*
X35217194Y-32489091D01*
X35058283Y-32442922D01*
X35058277Y-32442921D01*
X35021157Y-32440000D01*
X34992500Y-32440000D01*
X34992500Y-33000000D01*
X34492500Y-33000000D01*
X34492500Y-32470497D01*
X34399727Y-32430854D01*
X34395351Y-32427246D01*
X34389802Y-32426081D01*
X34368688Y-32405265D01*
X34345816Y-32386409D01*
X34344085Y-32381009D01*
X34340047Y-32377028D01*
X34333539Y-32348107D01*
X34324490Y-32319874D01*
X34325953Y-32314394D01*
X34324709Y-32308863D01*
X34334870Y-32281014D01*
X34342522Y-32252371D01*
X34346715Y-32248553D01*
X34348659Y-32243226D01*
X34360772Y-32229147D01*
X34450584Y-32139336D01*
X34598101Y-31991819D01*
X34659424Y-31958334D01*
X34685782Y-31955500D01*
X40651459Y-31955500D01*
X43190500Y-31955500D01*
X43257539Y-31975185D01*
X43303294Y-32027989D01*
X43314500Y-32079500D01*
X43314500Y-32397869D01*
X43314501Y-32397876D01*
X43320908Y-32457483D01*
X43371202Y-32592328D01*
X43371206Y-32592335D01*
X43457452Y-32707544D01*
X43457455Y-32707547D01*
X43572664Y-32793793D01*
X43572671Y-32793797D01*
X43617618Y-32810561D01*
X43707517Y-32844091D01*
X43767127Y-32850500D01*
X44282872Y-32850499D01*
X44336753Y-32844707D01*
X44363246Y-32844707D01*
X44417127Y-32850500D01*
X44932872Y-32850499D01*
X44986753Y-32844707D01*
X45013246Y-32844707D01*
X45067127Y-32850500D01*
X45582872Y-32850499D01*
X45636753Y-32844707D01*
X45663246Y-32844707D01*
X45717127Y-32850500D01*
X46232872Y-32850499D01*
X46292483Y-32844091D01*
X46300001Y-32841287D01*
X46332167Y-32829290D01*
X46401859Y-32824306D01*
X46463182Y-32857791D01*
X46496666Y-32919114D01*
X46499500Y-32945472D01*
X46499500Y-39098544D01*
X46535354Y-39278794D01*
X46537948Y-39291834D01*
X46537949Y-39291838D01*
X46613364Y-39473907D01*
X46613371Y-39473920D01*
X46722859Y-39637780D01*
X46722860Y-39637781D01*
X46722861Y-39637782D01*
X46862218Y-39777139D01*
X46862219Y-39777139D01*
X46869286Y-39784206D01*
X46869285Y-39784206D01*
X46869289Y-39784209D01*
X52063181Y-44978101D01*
X52096666Y-45039424D01*
X52099500Y-45065782D01*
X52099500Y-45110222D01*
X52112186Y-45190315D01*
X52133985Y-45327952D01*
X52202103Y-45537603D01*
X52202104Y-45537606D01*
X52302187Y-45734025D01*
X52431752Y-45912358D01*
X52431756Y-45912363D01*
X52587636Y-46068243D01*
X52587641Y-46068247D01*
X52724086Y-46167379D01*
X52765978Y-46197815D01*
X52892714Y-46262391D01*
X52962393Y-46297895D01*
X52962396Y-46297896D01*
X53059450Y-46329430D01*
X53172049Y-46366015D01*
X53235001Y-46375985D01*
X53244732Y-46377527D01*
X53307867Y-46407456D01*
X53344798Y-46466768D01*
X53343800Y-46536630D01*
X53305190Y-46594863D01*
X53244732Y-46622473D01*
X53172047Y-46633985D01*
X52962396Y-46702103D01*
X52962393Y-46702104D01*
X52765974Y-46802187D01*
X52587641Y-46931752D01*
X52587636Y-46931756D01*
X52431756Y-47087636D01*
X52431752Y-47087641D01*
X52302187Y-47265974D01*
X52202104Y-47462393D01*
X52202103Y-47462396D01*
X52133985Y-47672047D01*
X52124576Y-47731456D01*
X52099500Y-47889778D01*
X52099500Y-48110222D01*
X52101339Y-48121835D01*
X52133985Y-48327952D01*
X52202103Y-48537603D01*
X52202104Y-48537606D01*
X52249521Y-48630664D01*
X52290046Y-48710199D01*
X52302187Y-48734025D01*
X52431752Y-48912358D01*
X52431756Y-48912363D01*
X52587636Y-49068243D01*
X52587641Y-49068247D01*
X52680036Y-49135375D01*
X52765978Y-49197815D01*
X52894375Y-49263237D01*
X52962393Y-49297895D01*
X52962396Y-49297896D01*
X53060589Y-49329800D01*
X53172049Y-49366015D01*
X53235001Y-49375985D01*
X53244732Y-49377527D01*
X53307867Y-49407456D01*
X53344798Y-49466768D01*
X53343800Y-49536630D01*
X53305190Y-49594863D01*
X53244732Y-49622473D01*
X53172047Y-49633985D01*
X52962396Y-49702103D01*
X52962393Y-49702104D01*
X52765974Y-49802187D01*
X52587641Y-49931752D01*
X52587636Y-49931756D01*
X52431756Y-50087636D01*
X52431752Y-50087641D01*
X52302187Y-50265974D01*
X52202104Y-50462393D01*
X52202103Y-50462396D01*
X52133985Y-50672047D01*
X52133985Y-50672049D01*
X52099500Y-50889778D01*
X52099500Y-51110222D01*
X52103865Y-51137782D01*
X52133985Y-51327952D01*
X52202103Y-51537603D01*
X52202104Y-51537606D01*
X52259916Y-51651065D01*
X52283736Y-51697815D01*
X52302187Y-51734025D01*
X52431752Y-51912358D01*
X52431756Y-51912363D01*
X52587636Y-52068243D01*
X52587641Y-52068247D01*
X52641918Y-52107681D01*
X52765978Y-52197815D01*
X52894375Y-52263237D01*
X52962393Y-52297895D01*
X52962396Y-52297896D01*
X53146053Y-52357569D01*
X53203728Y-52397006D01*
X53230927Y-52461365D01*
X53219013Y-52530211D01*
X53171769Y-52581687D01*
X53107735Y-52599500D01*
X52901578Y-52599500D01*
X52707173Y-52630290D01*
X52519970Y-52691117D01*
X52344594Y-52780476D01*
X52253741Y-52846485D01*
X52185354Y-52896172D01*
X52185352Y-52896174D01*
X52185351Y-52896174D01*
X52046174Y-53035351D01*
X52046174Y-53035352D01*
X52046172Y-53035354D01*
X51996485Y-53103741D01*
X51930476Y-53194594D01*
X51841117Y-53369970D01*
X51780290Y-53557173D01*
X51749500Y-53751577D01*
X51749500Y-53948422D01*
X51780290Y-54142826D01*
X51841117Y-54330029D01*
X51930476Y-54505405D01*
X52046172Y-54664646D01*
X52185354Y-54803828D01*
X52344595Y-54919524D01*
X52427455Y-54961743D01*
X52519970Y-55008882D01*
X52519972Y-55008882D01*
X52519975Y-55008884D01*
X52620317Y-55041487D01*
X52707173Y-55069709D01*
X52901578Y-55100500D01*
X52901583Y-55100500D01*
X54098422Y-55100500D01*
X54292826Y-55069709D01*
X54480025Y-55008884D01*
X54655405Y-54919524D01*
X54814646Y-54803828D01*
X54953828Y-54664646D01*
X55069524Y-54505405D01*
X55158884Y-54330025D01*
X55219709Y-54142826D01*
X55228154Y-54089505D01*
X55250500Y-53948422D01*
X55250500Y-53751577D01*
X55219709Y-53557173D01*
X55158882Y-53369970D01*
X55087422Y-53229722D01*
X55069524Y-53194595D01*
X54953828Y-53035354D01*
X54814646Y-52896172D01*
X54655405Y-52780476D01*
X54644658Y-52775000D01*
X54480029Y-52691117D01*
X54292826Y-52630290D01*
X54098422Y-52599500D01*
X54098417Y-52599500D01*
X53892265Y-52599500D01*
X53825226Y-52579815D01*
X53779471Y-52527011D01*
X53769527Y-52457853D01*
X53798552Y-52394297D01*
X53853947Y-52357569D01*
X54037603Y-52297896D01*
X54037606Y-52297895D01*
X54234022Y-52197815D01*
X54412365Y-52068242D01*
X54568242Y-51912365D01*
X54697815Y-51734022D01*
X54797895Y-51537606D01*
X54866015Y-51327951D01*
X54900500Y-51110222D01*
X54900500Y-50889778D01*
X54866015Y-50672049D01*
X54810114Y-50500000D01*
X54797896Y-50462396D01*
X54797895Y-50462393D01*
X54743595Y-50355826D01*
X54697815Y-50265978D01*
X54644143Y-50192104D01*
X54568247Y-50087641D01*
X54568243Y-50087636D01*
X54412363Y-49931756D01*
X54412358Y-49931752D01*
X54234025Y-49802187D01*
X54234024Y-49802186D01*
X54234022Y-49802185D01*
X54161308Y-49765135D01*
X54037606Y-49702104D01*
X54037603Y-49702103D01*
X53827952Y-49633985D01*
X53755267Y-49622473D01*
X53692133Y-49592544D01*
X53655201Y-49533233D01*
X53656199Y-49463370D01*
X53694809Y-49405137D01*
X53755267Y-49377527D01*
X53827951Y-49366015D01*
X54037606Y-49297895D01*
X54234022Y-49197815D01*
X54412365Y-49068242D01*
X54568242Y-48912365D01*
X54697815Y-48734022D01*
X54797895Y-48537606D01*
X54866015Y-48327951D01*
X54900500Y-48110222D01*
X54900500Y-47889778D01*
X54866015Y-47672049D01*
X54822514Y-47538165D01*
X54797896Y-47462396D01*
X54797895Y-47462393D01*
X54740576Y-47349901D01*
X54697815Y-47265978D01*
X54644223Y-47192214D01*
X54568247Y-47087641D01*
X54568243Y-47087636D01*
X54412363Y-46931756D01*
X54412358Y-46931752D01*
X54234025Y-46802187D01*
X54234024Y-46802186D01*
X54234022Y-46802185D01*
X54171096Y-46770122D01*
X54037606Y-46702104D01*
X54037603Y-46702103D01*
X53827952Y-46633985D01*
X53755267Y-46622473D01*
X53692133Y-46592544D01*
X53655201Y-46533233D01*
X53656199Y-46463370D01*
X53694809Y-46405137D01*
X53755267Y-46377527D01*
X53827951Y-46366015D01*
X54037606Y-46297895D01*
X54234022Y-46197815D01*
X54412365Y-46068242D01*
X54568242Y-45912365D01*
X54697815Y-45734022D01*
X54797895Y-45537606D01*
X54866015Y-45327951D01*
X54900500Y-45110222D01*
X54900500Y-44889778D01*
X54866015Y-44672049D01*
X54831955Y-44567221D01*
X54797896Y-44462396D01*
X54797895Y-44462393D01*
X54751084Y-44370524D01*
X54697815Y-44265978D01*
X54681260Y-44243192D01*
X54568247Y-44087641D01*
X54568243Y-44087636D01*
X54412363Y-43931756D01*
X54412358Y-43931752D01*
X54234025Y-43802187D01*
X54234024Y-43802186D01*
X54234022Y-43802185D01*
X54171096Y-43770122D01*
X54037606Y-43702104D01*
X54037603Y-43702103D01*
X53853947Y-43642431D01*
X53796272Y-43602994D01*
X53769073Y-43538635D01*
X53780987Y-43469789D01*
X53828231Y-43418313D01*
X53892265Y-43400500D01*
X54098422Y-43400500D01*
X54292826Y-43369709D01*
X54480025Y-43308884D01*
X54655405Y-43219524D01*
X54814646Y-43103828D01*
X54953828Y-42964646D01*
X55069524Y-42805405D01*
X55158884Y-42630025D01*
X55219709Y-42442826D01*
X55229012Y-42384091D01*
X55250500Y-42248422D01*
X55250500Y-42051577D01*
X55219709Y-41857173D01*
X55160344Y-41674468D01*
X55158884Y-41669975D01*
X55158882Y-41669972D01*
X55158882Y-41669970D01*
X55111743Y-41577455D01*
X55069524Y-41494595D01*
X54953828Y-41335354D01*
X54814646Y-41196172D01*
X54655405Y-41080476D01*
X54480029Y-40991117D01*
X54292826Y-40930290D01*
X54098422Y-40899500D01*
X54098417Y-40899500D01*
X52901583Y-40899500D01*
X52901578Y-40899500D01*
X52707173Y-40930290D01*
X52519970Y-40991117D01*
X52344594Y-41080476D01*
X52280811Y-41126818D01*
X52185354Y-41196172D01*
X52185352Y-41196174D01*
X52185351Y-41196174D01*
X52046174Y-41335351D01*
X52046174Y-41335352D01*
X52046172Y-41335354D01*
X52014530Y-41378905D01*
X51930476Y-41494594D01*
X51841115Y-41669976D01*
X51841112Y-41669981D01*
X51840802Y-41670938D01*
X51840586Y-41671253D01*
X51839255Y-41674468D01*
X51838578Y-41674187D01*
X51801353Y-41728605D01*
X51736989Y-41755791D01*
X51668146Y-41743863D01*
X51635198Y-41720277D01*
X48536819Y-38621898D01*
X48503334Y-38560575D01*
X48500500Y-38534217D01*
X48500500Y-36848543D01*
X50499499Y-36848543D01*
X50513856Y-36920713D01*
X50513856Y-36920715D01*
X50535774Y-37030906D01*
X50537948Y-37041834D01*
X50537948Y-37041835D01*
X50613364Y-37223907D01*
X50613371Y-37223920D01*
X50722860Y-37387781D01*
X50722863Y-37387785D01*
X50862214Y-37527136D01*
X50862218Y-37527139D01*
X51026079Y-37636628D01*
X51026086Y-37636632D01*
X51136933Y-37682546D01*
X51208164Y-37712051D01*
X51304812Y-37731275D01*
X51340002Y-37738275D01*
X51401458Y-37750500D01*
X51401459Y-37750500D01*
X51598542Y-37750500D01*
X51617870Y-37746655D01*
X51695188Y-37731275D01*
X51791836Y-37712051D01*
X51863067Y-37682546D01*
X51973914Y-37636632D01*
X52075788Y-37568560D01*
X52142464Y-37547682D01*
X52168881Y-37550047D01*
X52171157Y-37550500D01*
X52171158Y-37550500D01*
X52328844Y-37550500D01*
X52328845Y-37550499D01*
X52483497Y-37519737D01*
X52577550Y-37480778D01*
X52647016Y-37473310D01*
X52672443Y-37480775D01*
X52766503Y-37519737D01*
X52906991Y-37547682D01*
X52921153Y-37550499D01*
X52921156Y-37550500D01*
X52921158Y-37550500D01*
X53078844Y-37550500D01*
X53078845Y-37550499D01*
X53233497Y-37519737D01*
X53353839Y-37469890D01*
X53379172Y-37459397D01*
X53379172Y-37459396D01*
X53379179Y-37459394D01*
X53510289Y-37371789D01*
X53621789Y-37260289D01*
X53709394Y-37129179D01*
X53713197Y-37119999D01*
X53729376Y-37080938D01*
X53769737Y-36983497D01*
X53779476Y-36934538D01*
X53782804Y-36917808D01*
X53815189Y-36855897D01*
X53875905Y-36821323D01*
X53904421Y-36818000D01*
X56348543Y-36818000D01*
X56478582Y-36792132D01*
X56541835Y-36779551D01*
X56687717Y-36719125D01*
X56723907Y-36704135D01*
X56723907Y-36704134D01*
X56723914Y-36704132D01*
X56887782Y-36594639D01*
X57027139Y-36455282D01*
X57122398Y-36312715D01*
X57176010Y-36267911D01*
X57245334Y-36259204D01*
X57308362Y-36289358D01*
X57345082Y-36348801D01*
X57349500Y-36381605D01*
X57349500Y-36429999D01*
X57349501Y-36430019D01*
X57360000Y-36532796D01*
X57360001Y-36532799D01*
X57415185Y-36699331D01*
X57415187Y-36699336D01*
X57418695Y-36705023D01*
X57507288Y-36848656D01*
X57631344Y-36972712D01*
X57780666Y-37064814D01*
X57914505Y-37109164D01*
X57971949Y-37148936D01*
X57998772Y-37213451D01*
X57999500Y-37226869D01*
X57999500Y-39901459D01*
X57999500Y-40573541D01*
X58014998Y-40651456D01*
X58014999Y-40651458D01*
X58014999Y-40651459D01*
X58037947Y-40766828D01*
X58037949Y-40766836D01*
X58055089Y-40808215D01*
X58055089Y-40808216D01*
X58113364Y-40948907D01*
X58113371Y-40948920D01*
X58222860Y-41112781D01*
X58222863Y-41112785D01*
X58366537Y-41256459D01*
X58366559Y-41256479D01*
X62348576Y-45238496D01*
X62382061Y-45299819D01*
X62384350Y-45315344D01*
X62417753Y-45526239D01*
X62483444Y-45728414D01*
X62579951Y-45917820D01*
X62707759Y-46093734D01*
X62706888Y-46094366D01*
X62733357Y-46153401D01*
X62734500Y-46170199D01*
X62734500Y-46789800D01*
X62714815Y-46856839D01*
X62705506Y-46869365D01*
X62579951Y-47042179D01*
X62483444Y-47231585D01*
X62417753Y-47433760D01*
X62416291Y-47442993D01*
X62384500Y-47643713D01*
X62384500Y-47856287D01*
X62394534Y-47919644D01*
X62417735Y-48066127D01*
X62417754Y-48066243D01*
X62435818Y-48121839D01*
X62483444Y-48268414D01*
X62579951Y-48457820D01*
X62707759Y-48633734D01*
X62706888Y-48634366D01*
X62733357Y-48693401D01*
X62734500Y-48710199D01*
X62734500Y-49329800D01*
X62714815Y-49396839D01*
X62705506Y-49409365D01*
X62579951Y-49582179D01*
X62483444Y-49771585D01*
X62417753Y-49973760D01*
X62384500Y-50183713D01*
X62384500Y-50396286D01*
X62417735Y-50606127D01*
X62417754Y-50606243D01*
X62483275Y-50807896D01*
X62483444Y-50808414D01*
X62579951Y-50997820D01*
X62704890Y-51169786D01*
X62855213Y-51320109D01*
X63027179Y-51445048D01*
X63027181Y-51445049D01*
X63027184Y-51445051D01*
X63216588Y-51541557D01*
X63418757Y-51607246D01*
X63628713Y-51640500D01*
X63628714Y-51640500D01*
X63841286Y-51640500D01*
X63841287Y-51640500D01*
X64051243Y-51607246D01*
X64253412Y-51541557D01*
X64442816Y-51445051D01*
X64487805Y-51412365D01*
X64614786Y-51320109D01*
X64614788Y-51320106D01*
X64614792Y-51320104D01*
X64765104Y-51169792D01*
X64765106Y-51169788D01*
X64765109Y-51169786D01*
X64850890Y-51051717D01*
X64890051Y-50997816D01*
X64894793Y-50988508D01*
X64942763Y-50937711D01*
X65010583Y-50920911D01*
X65076719Y-50943445D01*
X65115763Y-50988500D01*
X65120373Y-50997547D01*
X65159728Y-51051716D01*
X65792037Y-50419408D01*
X65809075Y-50482993D01*
X65874901Y-50597007D01*
X65967993Y-50690099D01*
X66082007Y-50755925D01*
X66145590Y-50772962D01*
X65513282Y-51405269D01*
X65513282Y-51405270D01*
X65567449Y-51444624D01*
X65756782Y-51541095D01*
X65958870Y-51606757D01*
X66168754Y-51640000D01*
X66381246Y-51640000D01*
X66591127Y-51606757D01*
X66591130Y-51606757D01*
X66793217Y-51541095D01*
X66982554Y-51444622D01*
X67036716Y-51405270D01*
X67036717Y-51405270D01*
X66404408Y-50772962D01*
X66467993Y-50755925D01*
X66582007Y-50690099D01*
X66675099Y-50597007D01*
X66740925Y-50482993D01*
X66757962Y-50419408D01*
X67390270Y-51051717D01*
X67390270Y-51051716D01*
X67429622Y-50997554D01*
X67526095Y-50808217D01*
X67591757Y-50606130D01*
X67591757Y-50606127D01*
X67625000Y-50396246D01*
X67625000Y-50183753D01*
X67591757Y-49973872D01*
X67591757Y-49973869D01*
X67526095Y-49771782D01*
X67429624Y-49582449D01*
X67390270Y-49528282D01*
X67390269Y-49528282D01*
X66757962Y-50160590D01*
X66740925Y-50097007D01*
X66675099Y-49982993D01*
X66582007Y-49889901D01*
X66467993Y-49824075D01*
X66404409Y-49807037D01*
X67036716Y-49174728D01*
X66982550Y-49135375D01*
X66972954Y-49130486D01*
X66922157Y-49082512D01*
X66905361Y-49014692D01*
X66927897Y-48948556D01*
X66972954Y-48909514D01*
X66982554Y-48904622D01*
X67036716Y-48865270D01*
X67036717Y-48865270D01*
X66404408Y-48232962D01*
X66467993Y-48215925D01*
X66582007Y-48150099D01*
X66675099Y-48057007D01*
X66740925Y-47942993D01*
X66757962Y-47879408D01*
X67390270Y-48511717D01*
X67390270Y-48511716D01*
X67429622Y-48457554D01*
X67526095Y-48268217D01*
X67591757Y-48066130D01*
X67591757Y-48066127D01*
X67625000Y-47856246D01*
X67625000Y-47643753D01*
X67591757Y-47433872D01*
X67591757Y-47433869D01*
X67526095Y-47231782D01*
X67429624Y-47042449D01*
X67390270Y-46988282D01*
X67390269Y-46988282D01*
X66757962Y-47620590D01*
X66740925Y-47557007D01*
X66675099Y-47442993D01*
X66582007Y-47349901D01*
X66467993Y-47284075D01*
X66404409Y-47267037D01*
X67073802Y-46597642D01*
X67135125Y-46564157D01*
X67149833Y-46565078D01*
X67149556Y-46562501D01*
X67232375Y-46553598D01*
X67367086Y-46503354D01*
X67367093Y-46503350D01*
X67482187Y-46417190D01*
X67482190Y-46417187D01*
X67568350Y-46302093D01*
X67568354Y-46302086D01*
X67618596Y-46167379D01*
X67618598Y-46167372D01*
X67624999Y-46107844D01*
X67625000Y-46107827D01*
X67625000Y-45460000D01*
X66708012Y-45460000D01*
X66740925Y-45402993D01*
X66775000Y-45275826D01*
X66775000Y-45144174D01*
X66740925Y-45017007D01*
X66708012Y-44960000D01*
X67625000Y-44960000D01*
X67625000Y-44312172D01*
X67624999Y-44312155D01*
X67618598Y-44252627D01*
X67618596Y-44252620D01*
X67568354Y-44117913D01*
X67568350Y-44117906D01*
X67482190Y-44002812D01*
X67482187Y-44002809D01*
X67367093Y-43916649D01*
X67367086Y-43916645D01*
X67232379Y-43866403D01*
X67232372Y-43866401D01*
X67172844Y-43860000D01*
X66525000Y-43860000D01*
X66525000Y-44776988D01*
X66467993Y-44744075D01*
X66340826Y-44710000D01*
X66209174Y-44710000D01*
X66082007Y-44744075D01*
X66025000Y-44776988D01*
X66025000Y-43860000D01*
X65377155Y-43860000D01*
X65317627Y-43866401D01*
X65317620Y-43866403D01*
X65182913Y-43916645D01*
X65182906Y-43916649D01*
X65067812Y-44002809D01*
X65067809Y-44002812D01*
X64981649Y-44117906D01*
X64981646Y-44117912D01*
X64932577Y-44249471D01*
X64890705Y-44305404D01*
X64825241Y-44329821D01*
X64756968Y-44314969D01*
X64728714Y-44293818D01*
X64614786Y-44179890D01*
X64442820Y-44054951D01*
X64253414Y-43958444D01*
X64253413Y-43958443D01*
X64253412Y-43958443D01*
X64051243Y-43892754D01*
X64051241Y-43892753D01*
X64051240Y-43892753D01*
X63884544Y-43866351D01*
X63841287Y-43859500D01*
X63841286Y-43859500D01*
X63836475Y-43858738D01*
X63836641Y-43857683D01*
X63776151Y-43834622D01*
X63763496Y-43823576D01*
X60572600Y-40632680D01*
X60539115Y-40571357D01*
X60544099Y-40501665D01*
X60572597Y-40457322D01*
X60680710Y-40349208D01*
X60680724Y-40349197D01*
X60718574Y-40311347D01*
X60779896Y-40277861D01*
X60840852Y-40279951D01*
X60934219Y-40307077D01*
X60934222Y-40307078D01*
X60971342Y-40309999D01*
X60971358Y-40310000D01*
X61000000Y-40310000D01*
X61500000Y-40310000D01*
X61528642Y-40310000D01*
X61528657Y-40309999D01*
X61565777Y-40307078D01*
X61565783Y-40307077D01*
X61724694Y-40260908D01*
X61724697Y-40260907D01*
X61867142Y-40176666D01*
X61867150Y-40176660D01*
X61984160Y-40059650D01*
X61984166Y-40059642D01*
X62068407Y-39917197D01*
X62068409Y-39917194D01*
X62114578Y-39758281D01*
X62115230Y-39750000D01*
X61500000Y-39750000D01*
X61500000Y-40310000D01*
X61000000Y-40310000D01*
X61000000Y-39910594D01*
X61002815Y-39884323D01*
X61005175Y-39873434D01*
X61012051Y-39856835D01*
X61050500Y-39663541D01*
X61050500Y-39401459D01*
X61050500Y-39401456D01*
X61020373Y-39250000D01*
X61500000Y-39250000D01*
X62115230Y-39250000D01*
X62114578Y-39241718D01*
X62068409Y-39082805D01*
X62068407Y-39082802D01*
X61984166Y-38940357D01*
X61984160Y-38940349D01*
X61867150Y-38823339D01*
X61867142Y-38823333D01*
X61724697Y-38739092D01*
X61724694Y-38739091D01*
X61565783Y-38692922D01*
X61565777Y-38692921D01*
X61528657Y-38690000D01*
X61500000Y-38690000D01*
X61500000Y-39250000D01*
X61020373Y-39250000D01*
X61018847Y-39242331D01*
X61012051Y-39208165D01*
X61009437Y-39201855D01*
X61000000Y-39154407D01*
X61000000Y-38690000D01*
X60971342Y-38690000D01*
X60934222Y-38692921D01*
X60934216Y-38692922D01*
X60786698Y-38735781D01*
X60716829Y-38735582D01*
X60683212Y-38719807D01*
X60523920Y-38613371D01*
X60523907Y-38613364D01*
X60341839Y-38537950D01*
X60341829Y-38537947D01*
X60148543Y-38499500D01*
X60148541Y-38499500D01*
X60124500Y-38499500D01*
X60057461Y-38479815D01*
X60011706Y-38427011D01*
X60000500Y-38375500D01*
X60000500Y-37193732D01*
X60020185Y-37126693D01*
X60072989Y-37080938D01*
X60085495Y-37076026D01*
X60119334Y-37064814D01*
X60268656Y-36972712D01*
X60392712Y-36848656D01*
X60484814Y-36699334D01*
X60539999Y-36532797D01*
X60548459Y-36449988D01*
X61550001Y-36449988D01*
X61560494Y-36552699D01*
X61615640Y-36719120D01*
X61615642Y-36719125D01*
X61707683Y-36868346D01*
X61831653Y-36992316D01*
X61980874Y-37084357D01*
X61980879Y-37084359D01*
X62147301Y-37139505D01*
X62250017Y-37149999D01*
X64999999Y-37149999D01*
X65500000Y-37149999D01*
X68249974Y-37149999D01*
X68249988Y-37149998D01*
X68352699Y-37139505D01*
X68519120Y-37084359D01*
X68519125Y-37084357D01*
X68668346Y-36992316D01*
X68792316Y-36868346D01*
X68884357Y-36719125D01*
X68884359Y-36719120D01*
X68939505Y-36552698D01*
X68949999Y-36449988D01*
X68950000Y-36449975D01*
X68950000Y-34000000D01*
X65500000Y-34000000D01*
X65500000Y-37149999D01*
X64999999Y-37149999D01*
X65000000Y-37149998D01*
X65000000Y-34000000D01*
X61550001Y-34000000D01*
X61550001Y-36449988D01*
X60548459Y-36449988D01*
X60550500Y-36430009D01*
X60550499Y-35629992D01*
X60546825Y-35594030D01*
X60539999Y-35527203D01*
X60539998Y-35527200D01*
X60524529Y-35480517D01*
X60484814Y-35360666D01*
X60392712Y-35211344D01*
X60268656Y-35087288D01*
X60125182Y-34998793D01*
X60119336Y-34995187D01*
X60119331Y-34995185D01*
X60117862Y-34994698D01*
X59952797Y-34940001D01*
X59952795Y-34940000D01*
X59850010Y-34929500D01*
X58049998Y-34929500D01*
X58049981Y-34929501D01*
X57947203Y-34940000D01*
X57947200Y-34940001D01*
X57780668Y-34995185D01*
X57780663Y-34995187D01*
X57631342Y-35087289D01*
X57507289Y-35211342D01*
X57415187Y-35360663D01*
X57415183Y-35360672D01*
X57399312Y-35408567D01*
X57359538Y-35466012D01*
X57295022Y-35492833D01*
X57226246Y-35480517D01*
X57175047Y-35432973D01*
X57167049Y-35417021D01*
X57136632Y-35343586D01*
X57136628Y-35343579D01*
X57043354Y-35203985D01*
X57022476Y-35137307D01*
X57027380Y-35100498D01*
X57057077Y-34998280D01*
X57057078Y-34998277D01*
X57059999Y-34961157D01*
X57060000Y-34961142D01*
X57060000Y-34932500D01*
X56752519Y-34932500D01*
X56705067Y-34923061D01*
X56541839Y-34855450D01*
X56541829Y-34855447D01*
X56348543Y-34817000D01*
X56348541Y-34817000D01*
X55147282Y-34817000D01*
X55080243Y-34797315D01*
X55034488Y-34744511D01*
X55024544Y-34675353D01*
X55053569Y-34611797D01*
X55059586Y-34605333D01*
X55248533Y-34416386D01*
X55309850Y-34382905D01*
X55379542Y-34387889D01*
X55423890Y-34416390D01*
X55440000Y-34432500D01*
X56000000Y-34432500D01*
X56500000Y-34432500D01*
X57060000Y-34432500D01*
X57060000Y-34403857D01*
X57059999Y-34403842D01*
X57057078Y-34366722D01*
X57057077Y-34366716D01*
X57010908Y-34207805D01*
X57010907Y-34207802D01*
X56926666Y-34065357D01*
X56926660Y-34065349D01*
X56809650Y-33948339D01*
X56809642Y-33948333D01*
X56667197Y-33864092D01*
X56667194Y-33864090D01*
X56508280Y-33817921D01*
X56508281Y-33817921D01*
X56500000Y-33817269D01*
X56500000Y-34432500D01*
X56000000Y-34432500D01*
X56000000Y-33805657D01*
X55979670Y-33771672D01*
X55981912Y-33701838D01*
X56012024Y-33652895D01*
X57178101Y-32486819D01*
X57239424Y-32453334D01*
X57265782Y-32450500D01*
X57657442Y-32450500D01*
X57722538Y-32468961D01*
X57780659Y-32504810D01*
X57780660Y-32504810D01*
X57780666Y-32504814D01*
X57947203Y-32559999D01*
X58049991Y-32570500D01*
X59850008Y-32570499D01*
X59952797Y-32559999D01*
X60119334Y-32504814D01*
X60268656Y-32412712D01*
X60392712Y-32288656D01*
X60484814Y-32139334D01*
X60539999Y-31972797D01*
X60550500Y-31870009D01*
X60550499Y-31069992D01*
X60550427Y-31069292D01*
X60549424Y-31059460D01*
X60548458Y-31050011D01*
X61550000Y-31050011D01*
X61550000Y-33500000D01*
X65000000Y-33500000D01*
X65500000Y-33500000D01*
X68949999Y-33500000D01*
X68949999Y-31050026D01*
X68949998Y-31050011D01*
X68939505Y-30947300D01*
X68884359Y-30780879D01*
X68884357Y-30780874D01*
X68792316Y-30631653D01*
X68668346Y-30507683D01*
X68519125Y-30415642D01*
X68519120Y-30415640D01*
X68352698Y-30360494D01*
X68249988Y-30350000D01*
X65500000Y-30350000D01*
X65500000Y-33500000D01*
X65000000Y-33500000D01*
X65000000Y-30350000D01*
X62250026Y-30350000D01*
X62250010Y-30350001D01*
X62147300Y-30360494D01*
X61980879Y-30415640D01*
X61980874Y-30415642D01*
X61831653Y-30507683D01*
X61707683Y-30631653D01*
X61615642Y-30780874D01*
X61615640Y-30780879D01*
X61560494Y-30947301D01*
X61550000Y-31050011D01*
X60548458Y-31050011D01*
X60544827Y-31014474D01*
X60539999Y-30967203D01*
X60484814Y-30800666D01*
X60392712Y-30651344D01*
X60268656Y-30527288D01*
X60142541Y-30449500D01*
X60119336Y-30435187D01*
X60119331Y-30435185D01*
X60060354Y-30415642D01*
X59952797Y-30380001D01*
X59952795Y-30380000D01*
X59850010Y-30369500D01*
X58049998Y-30369500D01*
X58049981Y-30369501D01*
X57947203Y-30380000D01*
X57947200Y-30380001D01*
X57823397Y-30421026D01*
X57780666Y-30435186D01*
X57780664Y-30435186D01*
X57780661Y-30435188D01*
X57774879Y-30437884D01*
X57722479Y-30449500D01*
X56701455Y-30449500D01*
X56604812Y-30468724D01*
X56508171Y-30487947D01*
X56508163Y-30487949D01*
X56477866Y-30500499D01*
X56477865Y-30500499D01*
X56326092Y-30563364D01*
X56326079Y-30563371D01*
X56162219Y-30672859D01*
X56092540Y-30742538D01*
X56022861Y-30812218D01*
X52421898Y-34413181D01*
X52360575Y-34446666D01*
X52334217Y-34449500D01*
X52171158Y-34449500D01*
X52168865Y-34449956D01*
X52167640Y-34449846D01*
X52165095Y-34450097D01*
X52165047Y-34449614D01*
X52099274Y-34443725D01*
X52075789Y-34431439D01*
X51973919Y-34363371D01*
X51973907Y-34363364D01*
X51791839Y-34287950D01*
X51791829Y-34287947D01*
X51598543Y-34249500D01*
X51598541Y-34249500D01*
X51401459Y-34249500D01*
X51401457Y-34249500D01*
X51208170Y-34287947D01*
X51208160Y-34287950D01*
X51026092Y-34363364D01*
X51026079Y-34363371D01*
X50862218Y-34472860D01*
X50862214Y-34472863D01*
X50722863Y-34612214D01*
X50722860Y-34612218D01*
X50613371Y-34776079D01*
X50613364Y-34776092D01*
X50537950Y-34958160D01*
X50537947Y-34958170D01*
X50499500Y-35151456D01*
X50499500Y-35151459D01*
X50499500Y-36848541D01*
X50499500Y-36848543D01*
X50499499Y-36848543D01*
X48500500Y-36848543D01*
X48500500Y-30104675D01*
X48500501Y-30104654D01*
X48500501Y-29901457D01*
X48500500Y-29901455D01*
X48477221Y-29784426D01*
X48462052Y-29708165D01*
X48386632Y-29526086D01*
X48386631Y-29526085D01*
X48386628Y-29526079D01*
X48277140Y-29362219D01*
X48277137Y-29362215D01*
X47284209Y-28369289D01*
X47284206Y-28369285D01*
X47284206Y-28369286D01*
X47277139Y-28362219D01*
X47277139Y-28362218D01*
X47137782Y-28222861D01*
X47137781Y-28222860D01*
X47137780Y-28222859D01*
X47030609Y-28151249D01*
X46985804Y-28097636D01*
X46975500Y-28048147D01*
X46975500Y-25944548D01*
X46959567Y-25864452D01*
X46959567Y-25864451D01*
X46946897Y-25800754D01*
X46937051Y-25751256D01*
X46884222Y-25623716D01*
X46882821Y-25620334D01*
X46861635Y-25569185D01*
X46861634Y-25569184D01*
X46861632Y-25569178D01*
X46835802Y-25530520D01*
X46752140Y-25405311D01*
X46717643Y-25370814D01*
X46612782Y-25265953D01*
X46612781Y-25265952D01*
X45971116Y-24624288D01*
X45971115Y-24624286D01*
X45840569Y-24493740D01*
X45807084Y-24432417D01*
X45804250Y-24406059D01*
X45804250Y-24146441D01*
X45823935Y-24079402D01*
X45840569Y-24058760D01*
X45904319Y-23995010D01*
X45964047Y-23935282D01*
X45964047Y-23935280D01*
X45974251Y-23925077D01*
X45974254Y-23925072D01*
X46787820Y-23111507D01*
X46849142Y-23078023D01*
X46918834Y-23083007D01*
X46974767Y-23124879D01*
X46999184Y-23190343D01*
X46999500Y-23199189D01*
X46999500Y-24047870D01*
X46999501Y-24047876D01*
X47005908Y-24107483D01*
X47056202Y-24242328D01*
X47056206Y-24242335D01*
X47142452Y-24357544D01*
X47142455Y-24357547D01*
X47257664Y-24443793D01*
X47257671Y-24443797D01*
X47392517Y-24494091D01*
X47392516Y-24494091D01*
X47399444Y-24494835D01*
X47452127Y-24500500D01*
X49547872Y-24500499D01*
X49607483Y-24494091D01*
X49646148Y-24479670D01*
X49720794Y-24451829D01*
X49720794Y-24451828D01*
X49742331Y-24443796D01*
X49857546Y-24357546D01*
X49943796Y-24242331D01*
X49994091Y-24107483D01*
X50000500Y-24047873D01*
X50000499Y-23393753D01*
X60030000Y-23393753D01*
X60030000Y-23606246D01*
X60063242Y-23816127D01*
X60063242Y-23816130D01*
X60128904Y-24018217D01*
X60225375Y-24207550D01*
X60264728Y-24261716D01*
X60897037Y-23629408D01*
X60914075Y-23692993D01*
X60979901Y-23807007D01*
X61072993Y-23900099D01*
X61187007Y-23965925D01*
X61250590Y-23982962D01*
X60618282Y-24615269D01*
X60618282Y-24615270D01*
X60672449Y-24654624D01*
X60861782Y-24751095D01*
X61063870Y-24816757D01*
X61273754Y-24850000D01*
X61486246Y-24850000D01*
X61696127Y-24816757D01*
X61696130Y-24816757D01*
X61898217Y-24751095D01*
X62087554Y-24654622D01*
X62141716Y-24615270D01*
X62141717Y-24615270D01*
X61509408Y-23982962D01*
X61572993Y-23965925D01*
X61687007Y-23900099D01*
X61780099Y-23807007D01*
X61845925Y-23692993D01*
X61862962Y-23629409D01*
X62495270Y-24261717D01*
X62495270Y-24261716D01*
X62534622Y-24207555D01*
X62539232Y-24198507D01*
X62587205Y-24147709D01*
X62655025Y-24130912D01*
X62721161Y-24153447D01*
X62760204Y-24198504D01*
X62764949Y-24207817D01*
X62889890Y-24379786D01*
X63040213Y-24530109D01*
X63212179Y-24655048D01*
X63212181Y-24655049D01*
X63212184Y-24655051D01*
X63401588Y-24751557D01*
X63603757Y-24817246D01*
X63813713Y-24850500D01*
X63813714Y-24850500D01*
X64026286Y-24850500D01*
X64026287Y-24850500D01*
X64236243Y-24817246D01*
X64438412Y-24751557D01*
X64627816Y-24655051D01*
X64682572Y-24615269D01*
X64799786Y-24530109D01*
X64799788Y-24530106D01*
X64799792Y-24530104D01*
X64950104Y-24379792D01*
X64950106Y-24379788D01*
X64950109Y-24379786D01*
X65075048Y-24207820D01*
X65075050Y-24207817D01*
X65075051Y-24207816D01*
X65079514Y-24199054D01*
X65127488Y-24148259D01*
X65195308Y-24131463D01*
X65261444Y-24153999D01*
X65300486Y-24199056D01*
X65304951Y-24207820D01*
X65429890Y-24379786D01*
X65580213Y-24530109D01*
X65752179Y-24655048D01*
X65752181Y-24655049D01*
X65752184Y-24655051D01*
X65941588Y-24751557D01*
X66143757Y-24817246D01*
X66353713Y-24850500D01*
X66353714Y-24850500D01*
X66566286Y-24850500D01*
X66566287Y-24850500D01*
X66776243Y-24817246D01*
X66978412Y-24751557D01*
X67167816Y-24655051D01*
X67276287Y-24576243D01*
X67339784Y-24530110D01*
X67339784Y-24530109D01*
X67339792Y-24530104D01*
X67453329Y-24416566D01*
X67514648Y-24383084D01*
X67584340Y-24388068D01*
X67640274Y-24429939D01*
X67657189Y-24460917D01*
X67706202Y-24592328D01*
X67706206Y-24592335D01*
X67792452Y-24707544D01*
X67792455Y-24707547D01*
X67907664Y-24793793D01*
X67907671Y-24793797D01*
X68042517Y-24844091D01*
X68042516Y-24844091D01*
X68049444Y-24844835D01*
X68102127Y-24850500D01*
X69897872Y-24850499D01*
X69957483Y-24844091D01*
X70092331Y-24793796D01*
X70207546Y-24707546D01*
X70293796Y-24592331D01*
X70344091Y-24457483D01*
X70350500Y-24397873D01*
X70350499Y-22602128D01*
X70344091Y-22542517D01*
X70342810Y-22539083D01*
X70293797Y-22407671D01*
X70293793Y-22407664D01*
X70207547Y-22292455D01*
X70207544Y-22292452D01*
X70092335Y-22206206D01*
X70092328Y-22206202D01*
X69957482Y-22155908D01*
X69957483Y-22155908D01*
X69897883Y-22149501D01*
X69897881Y-22149500D01*
X69897873Y-22149500D01*
X69897865Y-22149500D01*
X69724500Y-22149500D01*
X69657461Y-22129815D01*
X69611706Y-22077011D01*
X69600500Y-22025500D01*
X69600500Y-21629500D01*
X69620185Y-21562461D01*
X69672989Y-21516706D01*
X69724500Y-21505500D01*
X69815819Y-21505500D01*
X69815826Y-21505500D01*
X69946662Y-21488275D01*
X70073829Y-21454200D01*
X70195743Y-21403701D01*
X70309757Y-21337875D01*
X70414449Y-21257541D01*
X70507541Y-21164449D01*
X70587875Y-21059757D01*
X70653701Y-20945743D01*
X70704200Y-20823829D01*
X70738275Y-20696662D01*
X70755500Y-20565826D01*
X70755500Y-20000000D01*
X70750355Y-19928060D01*
X70739396Y-19890740D01*
X70735636Y-19838158D01*
X70737065Y-19828217D01*
X70755500Y-19700000D01*
X70755500Y-19134174D01*
X70738275Y-19003338D01*
X70704200Y-18876171D01*
X70653701Y-18754257D01*
X70653698Y-18754252D01*
X70653697Y-18754249D01*
X70653696Y-18754248D01*
X70587879Y-18640250D01*
X70587875Y-18640243D01*
X70582881Y-18633735D01*
X70507544Y-18535555D01*
X70507541Y-18535551D01*
X70414449Y-18442459D01*
X70390422Y-18424022D01*
X70309767Y-18362132D01*
X70309749Y-18362120D01*
X70195753Y-18296304D01*
X70195741Y-18296298D01*
X70177042Y-18288552D01*
X70122641Y-18244709D01*
X70100579Y-18178413D01*
X70100500Y-18173993D01*
X70100500Y-17742450D01*
X70120185Y-17675411D01*
X70136819Y-17654769D01*
X70183753Y-17607835D01*
X70266733Y-17470569D01*
X70314452Y-17317433D01*
X70320500Y-17250881D01*
X70320499Y-16749120D01*
X70320499Y-16749119D01*
X70320499Y-16749111D01*
X70314453Y-16682573D01*
X70314452Y-16682570D01*
X70314452Y-16682567D01*
X70269694Y-16538932D01*
X70266734Y-16529433D01*
X70252822Y-16506420D01*
X70228779Y-16466649D01*
X70210944Y-16399095D01*
X70228780Y-16338350D01*
X70231664Y-16333579D01*
X70266733Y-16275569D01*
X70314452Y-16122433D01*
X70320500Y-16055881D01*
X70320499Y-15554120D01*
X70320499Y-15554119D01*
X70320499Y-15554111D01*
X70314453Y-15487573D01*
X70314452Y-15487570D01*
X70314452Y-15487567D01*
X70266733Y-15334431D01*
X70260007Y-15323305D01*
X70183757Y-15197170D01*
X70183753Y-15197165D01*
X70070334Y-15083746D01*
X70070329Y-15083742D01*
X69933070Y-15000767D01*
X69933066Y-15000765D01*
X69779933Y-14953048D01*
X69779935Y-14953048D01*
X69753312Y-14950628D01*
X69713381Y-14947000D01*
X69713378Y-14947000D01*
X69286611Y-14947000D01*
X69220073Y-14953046D01*
X69220066Y-14953048D01*
X69066933Y-15000765D01*
X69066929Y-15000767D01*
X68929670Y-15083742D01*
X68929665Y-15083746D01*
X68845231Y-15168181D01*
X68783908Y-15201666D01*
X68757550Y-15204500D01*
X67242450Y-15204500D01*
X67175411Y-15184815D01*
X67154769Y-15168181D01*
X67070334Y-15083746D01*
X67070329Y-15083742D01*
X66933070Y-15000767D01*
X66933066Y-15000765D01*
X66779933Y-14953048D01*
X66779935Y-14953048D01*
X66753312Y-14950628D01*
X66713381Y-14947000D01*
X66713378Y-14947000D01*
X66286611Y-14947000D01*
X66220073Y-14953046D01*
X66220066Y-14953048D01*
X66066933Y-15000765D01*
X66066929Y-15000767D01*
X65929670Y-15083742D01*
X65929665Y-15083746D01*
X65816246Y-15197165D01*
X65816242Y-15197170D01*
X65733267Y-15334429D01*
X65733265Y-15334433D01*
X65685548Y-15487565D01*
X65685548Y-15487566D01*
X65685548Y-15487567D01*
X65680439Y-15543793D01*
X65679500Y-15554121D01*
X65679500Y-15724902D01*
X65659815Y-15791941D01*
X65643181Y-15812583D01*
X63439481Y-18016282D01*
X63439479Y-18016284D01*
X63423736Y-18043553D01*
X63412604Y-18062835D01*
X63372113Y-18132968D01*
X63361827Y-18150784D01*
X63360423Y-18153215D01*
X63319499Y-18305943D01*
X63319499Y-18305945D01*
X63319499Y-18474046D01*
X63319500Y-18474059D01*
X63319500Y-22214281D01*
X63299815Y-22281320D01*
X63251795Y-22324765D01*
X63212185Y-22344947D01*
X63212184Y-22344948D01*
X63040213Y-22469890D01*
X62889890Y-22620213D01*
X62764949Y-22792182D01*
X62760202Y-22801499D01*
X62712227Y-22852293D01*
X62644405Y-22869087D01*
X62578271Y-22846548D01*
X62539234Y-22801495D01*
X62534626Y-22792452D01*
X62495270Y-22738282D01*
X62495269Y-22738282D01*
X61862962Y-23370590D01*
X61845925Y-23307007D01*
X61780099Y-23192993D01*
X61687007Y-23099901D01*
X61572993Y-23034075D01*
X61509409Y-23017037D01*
X62141716Y-22384728D01*
X62087550Y-22345375D01*
X61898217Y-22248904D01*
X61696129Y-22183242D01*
X61486246Y-22150000D01*
X61273754Y-22150000D01*
X61063872Y-22183242D01*
X61063869Y-22183242D01*
X60861782Y-22248904D01*
X60672439Y-22345380D01*
X60618282Y-22384727D01*
X60618282Y-22384728D01*
X61250591Y-23017037D01*
X61187007Y-23034075D01*
X61072993Y-23099901D01*
X60979901Y-23192993D01*
X60914075Y-23307007D01*
X60897037Y-23370591D01*
X60264728Y-22738282D01*
X60264727Y-22738282D01*
X60225380Y-22792439D01*
X60128904Y-22981782D01*
X60063242Y-23183869D01*
X60063242Y-23183872D01*
X60030000Y-23393753D01*
X50000499Y-23393753D01*
X50000499Y-23000000D01*
X50000499Y-22431987D01*
X50000499Y-21952129D01*
X50000498Y-21952123D01*
X49994091Y-21892516D01*
X49943797Y-21757671D01*
X49943793Y-21757664D01*
X49857547Y-21642455D01*
X49857544Y-21642452D01*
X49742335Y-21556206D01*
X49742328Y-21556202D01*
X49607482Y-21505908D01*
X49607483Y-21505908D01*
X49547883Y-21499501D01*
X49547881Y-21499500D01*
X49547873Y-21499500D01*
X49547865Y-21499500D01*
X48699189Y-21499500D01*
X48632150Y-21479815D01*
X48586395Y-21427011D01*
X48576451Y-21357853D01*
X48605476Y-21294297D01*
X48611489Y-21287838D01*
X48712778Y-21186549D01*
X48712782Y-21186547D01*
X48852139Y-21047190D01*
X48961632Y-20883322D01*
X49016648Y-20750500D01*
X49037051Y-20701244D01*
X49075500Y-20507948D01*
X49075500Y-20310868D01*
X49075500Y-20215782D01*
X49095185Y-20148743D01*
X49111819Y-20128101D01*
X49203101Y-20036819D01*
X49264424Y-20003334D01*
X49290782Y-20000500D01*
X51598543Y-20000500D01*
X51728582Y-19974632D01*
X51791835Y-19962051D01*
X51973914Y-19886632D01*
X52137782Y-19777139D01*
X52277139Y-19637782D01*
X52386632Y-19473914D01*
X52462051Y-19291835D01*
X52474632Y-19228582D01*
X52500500Y-19098543D01*
X52500500Y-18901456D01*
X52462052Y-18708170D01*
X52462051Y-18708169D01*
X52462051Y-18708165D01*
X52447036Y-18671916D01*
X52386635Y-18526092D01*
X52386628Y-18526079D01*
X52284531Y-18373280D01*
X52263653Y-18306602D01*
X52269248Y-18267499D01*
X52297008Y-18178413D01*
X52314452Y-18122433D01*
X52320500Y-18055881D01*
X52320499Y-17554120D01*
X52320499Y-17554119D01*
X52320499Y-17554111D01*
X52314453Y-17487573D01*
X52314452Y-17487570D01*
X52314452Y-17487567D01*
X52275339Y-17362049D01*
X52266734Y-17334433D01*
X52266732Y-17334429D01*
X52183757Y-17197170D01*
X52183753Y-17197165D01*
X52136819Y-17150231D01*
X52103334Y-17088908D01*
X52100500Y-17062550D01*
X52100500Y-16680300D01*
X52120185Y-16613261D01*
X52172989Y-16567506D01*
X52185482Y-16562599D01*
X52269334Y-16534814D01*
X52418656Y-16442712D01*
X52542712Y-16318656D01*
X52634814Y-16169334D01*
X52689999Y-16002797D01*
X52700500Y-15900009D01*
X52700499Y-15149992D01*
X52700282Y-15147872D01*
X52689999Y-15047203D01*
X52689998Y-15047200D01*
X52675953Y-15004816D01*
X52634814Y-14880666D01*
X52542712Y-14731344D01*
X52418656Y-14607288D01*
X52415342Y-14605243D01*
X52413546Y-14603248D01*
X52412989Y-14602807D01*
X52413064Y-14602711D01*
X52368618Y-14553297D01*
X52357397Y-14484334D01*
X52385240Y-14420252D01*
X52415348Y-14394165D01*
X52418342Y-14392318D01*
X52542315Y-14268345D01*
X52634356Y-14119124D01*
X52634358Y-14119119D01*
X52689505Y-13952697D01*
X52689506Y-13952690D01*
X52699999Y-13849986D01*
X52700000Y-13849973D01*
X52700000Y-13725000D01*
X50300001Y-13725000D01*
X50300001Y-13849986D01*
X50310494Y-13952697D01*
X50365641Y-14119119D01*
X50365643Y-14119124D01*
X50457684Y-14268345D01*
X50581655Y-14392316D01*
X50581659Y-14392319D01*
X50584656Y-14394168D01*
X50586279Y-14395972D01*
X50587323Y-14396798D01*
X50587181Y-14396976D01*
X50631381Y-14446116D01*
X50642602Y-14515079D01*
X50614759Y-14579161D01*
X50584661Y-14605241D01*
X50581349Y-14607283D01*
X50581343Y-14607288D01*
X50457289Y-14731342D01*
X50365187Y-14880663D01*
X50365186Y-14880666D01*
X50310001Y-15047203D01*
X50310001Y-15047204D01*
X50310000Y-15047204D01*
X50299500Y-15149983D01*
X50299500Y-15900001D01*
X50299501Y-15900019D01*
X50310000Y-16002796D01*
X50310001Y-16002799D01*
X50365185Y-16169331D01*
X50365187Y-16169336D01*
X50395353Y-16218243D01*
X50457288Y-16318656D01*
X50581344Y-16442712D01*
X50730666Y-16534814D01*
X50814505Y-16562595D01*
X50871948Y-16602366D01*
X50898772Y-16666882D01*
X50899500Y-16680300D01*
X50899500Y-17062550D01*
X50879815Y-17129589D01*
X50863181Y-17150231D01*
X50816246Y-17197165D01*
X50816242Y-17197170D01*
X50733267Y-17334429D01*
X50733265Y-17334433D01*
X50685548Y-17487565D01*
X50685548Y-17487566D01*
X50685548Y-17487567D01*
X50679500Y-17554119D01*
X50679500Y-17772434D01*
X50679501Y-17875500D01*
X50659817Y-17942539D01*
X50607013Y-17988294D01*
X50555501Y-17999500D01*
X49199500Y-17999500D01*
X49132461Y-17979815D01*
X49086706Y-17927011D01*
X49075500Y-17875500D01*
X49075500Y-17043690D01*
X49064888Y-16990342D01*
X49051083Y-16920943D01*
X49037051Y-16850397D01*
X49003010Y-16768216D01*
X48995100Y-16749120D01*
X48961635Y-16668326D01*
X48961634Y-16668325D01*
X48961632Y-16668319D01*
X48952912Y-16655269D01*
X48852139Y-16504450D01*
X48709686Y-16361997D01*
X48709655Y-16361968D01*
X48124246Y-15776559D01*
X48124226Y-15776537D01*
X47980552Y-15632863D01*
X47980548Y-15632860D01*
X47816687Y-15523371D01*
X47816678Y-15523366D01*
X47730246Y-15487565D01*
X47687932Y-15470038D01*
X47654581Y-15456224D01*
X47634604Y-15447949D01*
X47634601Y-15447948D01*
X47601963Y-15441456D01*
X47540052Y-15409071D01*
X47505478Y-15348355D01*
X47509218Y-15278585D01*
X47538472Y-15232159D01*
X47640977Y-15129655D01*
X47755941Y-14957598D01*
X47835130Y-14766420D01*
X47875500Y-14563465D01*
X47875500Y-13756535D01*
X47835130Y-13553580D01*
X47755941Y-13362402D01*
X47749081Y-13352135D01*
X56874500Y-13352135D01*
X56874500Y-15147870D01*
X56874501Y-15147876D01*
X56880908Y-15207483D01*
X56931202Y-15342328D01*
X56931206Y-15342335D01*
X57017452Y-15457544D01*
X57017455Y-15457547D01*
X57132664Y-15543793D01*
X57132671Y-15543797D01*
X57267517Y-15594091D01*
X57267516Y-15594091D01*
X57274444Y-15594835D01*
X57327127Y-15600500D01*
X59122872Y-15600499D01*
X59182483Y-15594091D01*
X59317331Y-15543796D01*
X59432546Y-15457546D01*
X59518796Y-15342331D01*
X59567810Y-15210916D01*
X59609681Y-15154984D01*
X59675145Y-15130566D01*
X59743418Y-15145417D01*
X59771673Y-15166569D01*
X59885213Y-15280109D01*
X60057179Y-15405048D01*
X60057181Y-15405049D01*
X60057184Y-15405051D01*
X60246588Y-15501557D01*
X60448757Y-15567246D01*
X60658713Y-15600500D01*
X60658714Y-15600500D01*
X60871286Y-15600500D01*
X60871287Y-15600500D01*
X61081243Y-15567246D01*
X61283412Y-15501557D01*
X61472816Y-15405051D01*
X61559138Y-15342335D01*
X61644786Y-15280109D01*
X61644788Y-15280106D01*
X61644792Y-15280104D01*
X61795104Y-15129792D01*
X61795106Y-15129788D01*
X61795109Y-15129786D01*
X61920048Y-14957820D01*
X61920047Y-14957820D01*
X61920051Y-14957816D01*
X62016557Y-14768412D01*
X62082246Y-14566243D01*
X62115500Y-14356287D01*
X62115500Y-14143713D01*
X62082246Y-13933757D01*
X62016557Y-13731588D01*
X61920051Y-13542184D01*
X61920049Y-13542181D01*
X61920048Y-13542179D01*
X61795109Y-13370213D01*
X61644786Y-13219890D01*
X61472820Y-13094951D01*
X61283414Y-12998444D01*
X61283413Y-12998443D01*
X61283412Y-12998443D01*
X61081243Y-12932754D01*
X61081241Y-12932753D01*
X61081240Y-12932753D01*
X60919957Y-12907208D01*
X60871287Y-12899500D01*
X60658713Y-12899500D01*
X60610042Y-12907208D01*
X60448760Y-12932753D01*
X60246585Y-12998444D01*
X60057179Y-13094951D01*
X59885215Y-13219889D01*
X59771673Y-13333431D01*
X59710350Y-13366915D01*
X59640658Y-13361931D01*
X59584725Y-13320059D01*
X59567810Y-13289082D01*
X59518797Y-13157671D01*
X59518793Y-13157664D01*
X59432547Y-13042455D01*
X59432544Y-13042452D01*
X59317335Y-12956206D01*
X59317328Y-12956202D01*
X59182482Y-12905908D01*
X59182483Y-12905908D01*
X59122883Y-12899501D01*
X59122881Y-12899500D01*
X59122873Y-12899500D01*
X59122864Y-12899500D01*
X57327129Y-12899500D01*
X57327123Y-12899501D01*
X57267516Y-12905908D01*
X57132671Y-12956202D01*
X57132664Y-12956206D01*
X57017455Y-13042452D01*
X57017452Y-13042455D01*
X56931206Y-13157664D01*
X56931202Y-13157671D01*
X56880908Y-13292517D01*
X56874501Y-13352116D01*
X56874500Y-13352135D01*
X47749081Y-13352135D01*
X47640977Y-13190345D01*
X47640975Y-13190342D01*
X47494657Y-13044024D01*
X47363830Y-12956609D01*
X47322598Y-12929059D01*
X47293125Y-12916851D01*
X47131420Y-12849870D01*
X47131412Y-12849868D01*
X46928469Y-12809500D01*
X46928465Y-12809500D01*
X46721535Y-12809500D01*
X46721530Y-12809500D01*
X46518587Y-12849868D01*
X46518579Y-12849870D01*
X46327403Y-12929058D01*
X46155342Y-13044024D01*
X46009024Y-13190342D01*
X45894058Y-13362403D01*
X45814870Y-13553579D01*
X45814868Y-13553587D01*
X45774500Y-13756530D01*
X45774500Y-14563469D01*
X45814868Y-14766412D01*
X45814870Y-14766420D01*
X45889669Y-14947001D01*
X45894059Y-14957598D01*
X45925609Y-15004816D01*
X46009024Y-15129657D01*
X46077186Y-15197819D01*
X46110671Y-15259142D01*
X46105687Y-15328834D01*
X46063815Y-15384767D01*
X45998351Y-15409184D01*
X45989505Y-15409500D01*
X44856459Y-15409500D01*
X44843856Y-15412007D01*
X44843855Y-15412007D01*
X44663167Y-15447947D01*
X44663159Y-15447950D01*
X44609834Y-15470037D01*
X44609834Y-15470038D01*
X44567521Y-15487565D01*
X44481089Y-15523366D01*
X44481079Y-15523371D01*
X44317219Y-15632859D01*
X44262669Y-15687410D01*
X44177861Y-15772218D01*
X44046898Y-15903181D01*
X43985575Y-15936666D01*
X43959217Y-15939500D01*
X40651457Y-15939500D01*
X40458170Y-15977947D01*
X40458160Y-15977950D01*
X40276092Y-16053364D01*
X40276079Y-16053371D01*
X40112218Y-16162860D01*
X40112214Y-16162863D01*
X39972863Y-16302214D01*
X39972860Y-16302218D01*
X39863371Y-16466079D01*
X39863364Y-16466092D01*
X39787950Y-16648160D01*
X39787948Y-16648168D01*
X39785038Y-16662792D01*
X39777985Y-16686040D01*
X39718769Y-16829003D01*
X39709906Y-16850404D01*
X39709105Y-16852337D01*
X39709103Y-16852341D01*
X39674500Y-17026304D01*
X39674500Y-18328695D01*
X39709103Y-18502658D01*
X39709106Y-18502667D01*
X39776985Y-18666544D01*
X39779857Y-18671916D01*
X39794500Y-18730370D01*
X39794500Y-18887869D01*
X39794501Y-18887876D01*
X39800908Y-18947483D01*
X39851202Y-19082327D01*
X39855452Y-19090109D01*
X39853942Y-19090933D01*
X39874684Y-19146543D01*
X39875000Y-19155389D01*
X39875000Y-19340000D01*
X40002828Y-19340000D01*
X40002844Y-19339999D01*
X40062377Y-19333597D01*
X40080947Y-19326671D01*
X40150639Y-19321684D01*
X40167619Y-19326670D01*
X40187511Y-19334089D01*
X40187517Y-19334091D01*
X40247127Y-19340500D01*
X40565793Y-19340499D01*
X40632832Y-19360183D01*
X40671630Y-19402226D01*
X40672222Y-19401832D01*
X40674729Y-19405584D01*
X40675146Y-19406036D01*
X40675606Y-19406897D01*
X40763207Y-19538001D01*
X40763213Y-19538009D01*
X40874707Y-19649503D01*
X40874711Y-19649506D01*
X41005814Y-19737107D01*
X41005827Y-19737114D01*
X41151498Y-19797452D01*
X41151503Y-19797454D01*
X41266875Y-19820403D01*
X41306153Y-19828216D01*
X41306156Y-19828217D01*
X41306158Y-19828217D01*
X41463844Y-19828217D01*
X41463845Y-19828216D01*
X41618497Y-19797454D01*
X41764179Y-19737111D01*
X41895289Y-19649506D01*
X42006789Y-19538006D01*
X42094394Y-19406896D01*
X42094396Y-19406892D01*
X42094851Y-19406042D01*
X42095206Y-19405680D01*
X42097779Y-19401830D01*
X42098509Y-19402317D01*
X42143815Y-19356199D01*
X42204207Y-19340499D01*
X42402871Y-19340499D01*
X42402872Y-19340499D01*
X42462483Y-19334091D01*
X42462485Y-19334090D01*
X42462487Y-19334090D01*
X42470031Y-19332308D01*
X42470729Y-19335264D01*
X42526298Y-19331263D01*
X42529954Y-19332336D01*
X42529962Y-19332306D01*
X42537511Y-19334089D01*
X42537517Y-19334091D01*
X42597127Y-19340500D01*
X42805792Y-19340499D01*
X42872832Y-19360183D01*
X42911630Y-19402226D01*
X42912222Y-19401832D01*
X42914729Y-19405584D01*
X42915146Y-19406036D01*
X42915606Y-19406897D01*
X43003207Y-19538001D01*
X43003213Y-19538009D01*
X43114707Y-19649503D01*
X43114711Y-19649506D01*
X43245814Y-19737107D01*
X43245827Y-19737114D01*
X43391498Y-19797452D01*
X43391503Y-19797454D01*
X43506875Y-19820403D01*
X43546153Y-19828216D01*
X43546156Y-19828217D01*
X43546158Y-19828217D01*
X43703844Y-19828217D01*
X43703845Y-19828216D01*
X43858497Y-19797454D01*
X44004179Y-19737111D01*
X44135289Y-19649506D01*
X44246789Y-19538006D01*
X44334394Y-19406896D01*
X44334396Y-19406892D01*
X44334851Y-19406042D01*
X44335206Y-19405680D01*
X44337779Y-19401830D01*
X44338509Y-19402317D01*
X44383815Y-19356199D01*
X44444207Y-19340499D01*
X44752871Y-19340499D01*
X44752872Y-19340499D01*
X44812483Y-19334091D01*
X44837380Y-19324804D01*
X44907070Y-19319819D01*
X44924049Y-19324805D01*
X44947619Y-19333596D01*
X44947627Y-19333598D01*
X45007155Y-19339999D01*
X45007172Y-19340000D01*
X45135000Y-19340000D01*
X45135000Y-19139246D01*
X45147258Y-19091223D01*
X45145697Y-19090641D01*
X45178258Y-19003338D01*
X45199091Y-18947483D01*
X45205500Y-18887873D01*
X45205499Y-18730372D01*
X45220146Y-18671909D01*
X45223006Y-18666556D01*
X45223013Y-18666547D01*
X45290894Y-18502666D01*
X45290896Y-18502658D01*
X45323289Y-18339809D01*
X45355674Y-18277898D01*
X45416390Y-18243324D01*
X45444906Y-18240000D01*
X45511000Y-18240000D01*
X45578039Y-18259685D01*
X45623794Y-18312489D01*
X45635000Y-18364000D01*
X45635000Y-19340000D01*
X45762828Y-19340000D01*
X45762844Y-19339999D01*
X45822372Y-19333598D01*
X45822379Y-19333596D01*
X45957086Y-19283354D01*
X45957093Y-19283350D01*
X46072187Y-19197190D01*
X46072188Y-19197189D01*
X46089965Y-19173443D01*
X46145898Y-19131571D01*
X46215590Y-19126587D01*
X46258122Y-19144650D01*
X46260955Y-19146543D01*
X46327402Y-19190941D01*
X46518580Y-19270130D01*
X46718534Y-19309903D01*
X46721530Y-19310499D01*
X46721534Y-19310500D01*
X46721535Y-19310500D01*
X46928466Y-19310500D01*
X46934528Y-19309903D01*
X46934703Y-19311682D01*
X46995890Y-19317152D01*
X47051071Y-19360010D01*
X47074322Y-19425898D01*
X47074500Y-19432546D01*
X47074500Y-19943625D01*
X47054815Y-20010664D01*
X47038181Y-20031306D01*
X46104423Y-20965064D01*
X45618843Y-21450643D01*
X45557520Y-21484128D01*
X45487828Y-21479144D01*
X45443481Y-21450643D01*
X45374084Y-21381246D01*
X45374079Y-21381242D01*
X45236820Y-21298267D01*
X45236816Y-21298265D01*
X45083683Y-21250548D01*
X45083685Y-21250548D01*
X45057062Y-21248128D01*
X45017131Y-21244500D01*
X45017128Y-21244500D01*
X44590361Y-21244500D01*
X44523823Y-21250546D01*
X44523816Y-21250548D01*
X44370683Y-21298265D01*
X44370679Y-21298267D01*
X44233420Y-21381242D01*
X44233415Y-21381246D01*
X44148981Y-21465681D01*
X44087658Y-21499166D01*
X44061300Y-21502000D01*
X43769129Y-21502000D01*
X43702090Y-21482315D01*
X43681452Y-21465685D01*
X43613704Y-21397937D01*
X43613703Y-21397936D01*
X43613700Y-21397934D01*
X43471148Y-21313629D01*
X43471145Y-21313628D01*
X43312112Y-21267424D01*
X43312106Y-21267423D01*
X43274953Y-21264500D01*
X42832559Y-21264500D01*
X42832534Y-21264501D01*
X42795395Y-21267423D01*
X42636349Y-21313630D01*
X42493799Y-21397934D01*
X42493794Y-21397938D01*
X42464722Y-21427011D01*
X42396050Y-21495682D01*
X42334730Y-21529166D01*
X42308371Y-21532000D01*
X41147382Y-21532000D01*
X41080343Y-21512315D01*
X41034588Y-21459511D01*
X41023382Y-21408000D01*
X41023382Y-21339145D01*
X41023381Y-21339143D01*
X41015245Y-21298242D01*
X40992619Y-21184493D01*
X40984317Y-21164449D01*
X40932279Y-21038817D01*
X40932272Y-21038804D01*
X40844671Y-20907701D01*
X40844668Y-20907697D01*
X40733174Y-20796203D01*
X40733170Y-20796200D01*
X40602067Y-20708599D01*
X40602054Y-20708592D01*
X40456383Y-20648254D01*
X40456371Y-20648251D01*
X40301727Y-20617490D01*
X40301724Y-20617490D01*
X40144040Y-20617490D01*
X40144037Y-20617490D01*
X39989387Y-20648251D01*
X39989384Y-20648252D01*
X39972225Y-20655360D01*
X39902755Y-20662826D01*
X39855886Y-20643899D01*
X39807939Y-20611862D01*
X39807932Y-20611858D01*
X39807929Y-20611856D01*
X39807925Y-20611854D01*
X39807921Y-20611852D01*
X39662251Y-20551514D01*
X39662239Y-20551511D01*
X39507595Y-20520750D01*
X39507592Y-20520750D01*
X39349908Y-20520750D01*
X39349905Y-20520750D01*
X39195260Y-20551511D01*
X39195248Y-20551514D01*
X39049578Y-20611852D01*
X39049567Y-20611858D01*
X39001613Y-20643900D01*
X38934935Y-20664777D01*
X38885273Y-20655359D01*
X38868117Y-20648253D01*
X38868108Y-20648250D01*
X38713465Y-20617490D01*
X38713462Y-20617490D01*
X38555778Y-20617490D01*
X38555775Y-20617490D01*
X38401130Y-20648251D01*
X38401118Y-20648254D01*
X38255447Y-20708592D01*
X38255434Y-20708599D01*
X38124331Y-20796200D01*
X38124327Y-20796203D01*
X38012837Y-20907694D01*
X38012828Y-20907703D01*
X38012623Y-20908012D01*
X38012473Y-20908136D01*
X38008973Y-20912403D01*
X38008163Y-20911738D01*
X37959010Y-20952816D01*
X37889685Y-20961522D01*
X37885332Y-20960736D01*
X37828846Y-20949500D01*
X37828842Y-20949500D01*
X37671158Y-20949500D01*
X37671155Y-20949500D01*
X37516510Y-20980261D01*
X37516498Y-20980264D01*
X37370827Y-21040602D01*
X37370814Y-21040609D01*
X37239711Y-21128210D01*
X37239707Y-21128213D01*
X37128213Y-21239707D01*
X37128210Y-21239711D01*
X37040609Y-21370814D01*
X37040602Y-21370827D01*
X36980264Y-21516498D01*
X36980261Y-21516510D01*
X36949500Y-21671153D01*
X36949500Y-21828846D01*
X36980261Y-21983489D01*
X36980264Y-21983501D01*
X37040602Y-22129172D01*
X37040609Y-22129185D01*
X37128210Y-22260288D01*
X37128213Y-22260292D01*
X37239707Y-22371786D01*
X37239711Y-22371789D01*
X37370814Y-22459390D01*
X37370827Y-22459397D01*
X37516498Y-22519735D01*
X37516503Y-22519737D01*
X37581147Y-22532595D01*
X37671849Y-22550638D01*
X37733760Y-22583023D01*
X37735339Y-22584574D01*
X37777744Y-22626979D01*
X37811229Y-22688302D01*
X37813002Y-22698475D01*
X37817740Y-22734470D01*
X37817741Y-22734472D01*
X37873272Y-22868536D01*
X37874471Y-22871429D01*
X37964714Y-22989036D01*
X38082321Y-23079279D01*
X38219278Y-23136009D01*
X38329349Y-23150500D01*
X38528150Y-23150499D01*
X38528151Y-23150499D01*
X38544837Y-23148302D01*
X38638222Y-23136009D01*
X38638225Y-23136007D01*
X38646076Y-23133905D01*
X38646960Y-23137207D01*
X38700675Y-23131392D01*
X38711264Y-23134501D01*
X38711424Y-23133905D01*
X38719274Y-23136008D01*
X38719276Y-23136008D01*
X38719278Y-23136009D01*
X38829349Y-23150500D01*
X39028150Y-23150499D01*
X39028151Y-23150499D01*
X39044837Y-23148302D01*
X39138222Y-23136009D01*
X39138225Y-23136007D01*
X39146076Y-23133905D01*
X39146960Y-23137207D01*
X39200675Y-23131392D01*
X39211264Y-23134501D01*
X39211424Y-23133905D01*
X39219274Y-23136008D01*
X39219276Y-23136008D01*
X39219278Y-23136009D01*
X39329349Y-23150500D01*
X39528150Y-23150499D01*
X39528151Y-23150499D01*
X39544837Y-23148302D01*
X39638222Y-23136009D01*
X39638225Y-23136007D01*
X39646076Y-23133905D01*
X39646960Y-23137207D01*
X39700675Y-23131392D01*
X39711264Y-23134501D01*
X39711424Y-23133905D01*
X39719274Y-23136008D01*
X39719276Y-23136008D01*
X39719278Y-23136009D01*
X39829349Y-23150500D01*
X40028150Y-23150499D01*
X40028151Y-23150499D01*
X40044837Y-23148302D01*
X40138222Y-23136009D01*
X40138225Y-23136007D01*
X40146076Y-23133905D01*
X40146960Y-23137207D01*
X40200675Y-23131392D01*
X40211264Y-23134501D01*
X40211424Y-23133905D01*
X40219274Y-23136008D01*
X40219276Y-23136008D01*
X40219278Y-23136009D01*
X40329349Y-23150500D01*
X40528150Y-23150499D01*
X40528153Y-23150499D01*
X40638213Y-23136011D01*
X40638217Y-23136009D01*
X40638222Y-23136009D01*
X40775179Y-23079279D01*
X40892786Y-22989036D01*
X40983029Y-22871429D01*
X40999168Y-22832465D01*
X41008662Y-22809547D01*
X41052503Y-22755144D01*
X41118798Y-22733079D01*
X41123223Y-22733000D01*
X42145064Y-22733000D01*
X42212103Y-22752685D01*
X42257858Y-22805489D01*
X42267802Y-22874647D01*
X42264140Y-22891595D01*
X42246672Y-22951716D01*
X42246671Y-22951722D01*
X42243750Y-22988842D01*
X42243750Y-23017500D01*
X42929750Y-23017500D01*
X42996789Y-23037185D01*
X43042544Y-23089989D01*
X43053750Y-23141500D01*
X43053750Y-23267500D01*
X43179750Y-23267500D01*
X43246789Y-23287185D01*
X43292544Y-23339989D01*
X43303750Y-23391500D01*
X43303750Y-24132728D01*
X43303751Y-24132729D01*
X43312025Y-24132079D01*
X43312032Y-24132077D01*
X43470944Y-24085909D01*
X43470947Y-24085907D01*
X43616129Y-24000048D01*
X43683853Y-23982865D01*
X43750116Y-24005025D01*
X43793879Y-24059491D01*
X43803250Y-24106780D01*
X43803250Y-24422198D01*
X43783565Y-24489237D01*
X43730761Y-24534992D01*
X43661603Y-24544936D01*
X43615101Y-24528315D01*
X43486820Y-24450767D01*
X43486816Y-24450765D01*
X43333683Y-24403048D01*
X43333685Y-24403048D01*
X43307062Y-24400628D01*
X43267131Y-24397000D01*
X43267128Y-24397000D01*
X42840361Y-24397000D01*
X42773823Y-24403046D01*
X42773816Y-24403048D01*
X42620683Y-24450765D01*
X42620679Y-24450767D01*
X42483420Y-24533742D01*
X42483415Y-24533746D01*
X42398981Y-24618181D01*
X42337658Y-24651666D01*
X42311300Y-24654500D01*
X41064075Y-24654500D01*
X40997036Y-24634815D01*
X40965701Y-24605989D01*
X40892786Y-24510964D01*
X40775179Y-24420721D01*
X40775175Y-24420719D01*
X40638222Y-24363991D01*
X40638220Y-24363990D01*
X40528151Y-24349500D01*
X40329346Y-24349500D01*
X40219281Y-24363989D01*
X40211428Y-24366094D01*
X40210552Y-24362824D01*
X40156603Y-24368567D01*
X40146227Y-24365518D01*
X40146073Y-24366095D01*
X40138220Y-24363990D01*
X40028151Y-24349500D01*
X39829346Y-24349500D01*
X39719281Y-24363989D01*
X39711428Y-24366094D01*
X39710552Y-24362824D01*
X39656603Y-24368567D01*
X39646227Y-24365518D01*
X39646073Y-24366095D01*
X39638220Y-24363990D01*
X39528151Y-24349500D01*
X39329346Y-24349500D01*
X39219281Y-24363989D01*
X39211428Y-24366094D01*
X39210552Y-24362824D01*
X39156603Y-24368567D01*
X39146227Y-24365518D01*
X39146073Y-24366095D01*
X39138220Y-24363990D01*
X39028151Y-24349500D01*
X38829346Y-24349500D01*
X38719281Y-24363989D01*
X38711428Y-24366094D01*
X38710552Y-24362824D01*
X38656603Y-24368567D01*
X38646227Y-24365518D01*
X38646073Y-24366095D01*
X38638220Y-24363990D01*
X38528151Y-24349500D01*
X38329346Y-24349500D01*
X38219286Y-24363988D01*
X38219277Y-24363991D01*
X38082324Y-24420719D01*
X38082321Y-24420720D01*
X38082321Y-24420721D01*
X37964714Y-24510964D01*
X37883183Y-24617218D01*
X37874469Y-24628574D01*
X37817741Y-24765527D01*
X37817741Y-24765528D01*
X37805323Y-24859852D01*
X37777056Y-24923748D01*
X37718732Y-24962219D01*
X37658193Y-24965283D01*
X37578846Y-24949500D01*
X37578842Y-24949500D01*
X37421158Y-24949500D01*
X37421155Y-24949500D01*
X37266510Y-24980261D01*
X37266498Y-24980264D01*
X37120827Y-25040602D01*
X37120814Y-25040609D01*
X36989711Y-25128210D01*
X36989707Y-25128213D01*
X36878213Y-25239707D01*
X36878210Y-25239711D01*
X36790609Y-25370814D01*
X36790602Y-25370827D01*
X36730264Y-25516498D01*
X36730261Y-25516510D01*
X36699500Y-25671153D01*
X36699500Y-25828846D01*
X36730261Y-25983489D01*
X36730264Y-25983501D01*
X36790602Y-26129172D01*
X36790609Y-26129185D01*
X36878210Y-26260288D01*
X36878213Y-26260292D01*
X36989707Y-26371786D01*
X36989711Y-26371789D01*
X37065452Y-26422398D01*
X37110257Y-26476010D01*
X37118964Y-26545335D01*
X37088810Y-26608363D01*
X37029366Y-26645082D01*
X36996561Y-26649500D01*
X30642450Y-26649500D01*
X30575411Y-26629815D01*
X30554769Y-26613181D01*
X30536819Y-26595231D01*
X30503334Y-26533908D01*
X30500500Y-26507550D01*
X30500500Y-25867063D01*
X30520185Y-25800024D01*
X30560349Y-25760946D01*
X30605335Y-25733753D01*
X30718753Y-25620335D01*
X30725257Y-25609577D01*
X30781521Y-25516503D01*
X30801733Y-25483069D01*
X30849452Y-25329933D01*
X30855500Y-25263381D01*
X30855499Y-24836620D01*
X30855499Y-24836611D01*
X30849453Y-24770073D01*
X30849452Y-24770070D01*
X30849452Y-24770067D01*
X30801823Y-24617220D01*
X30801734Y-24616933D01*
X30801732Y-24616929D01*
X30718757Y-24479670D01*
X30718756Y-24479669D01*
X30718754Y-24479667D01*
X30718753Y-24479665D01*
X30605335Y-24366247D01*
X30605334Y-24366246D01*
X30605333Y-24366245D01*
X30560350Y-24339052D01*
X30513162Y-24287524D01*
X30500500Y-24232935D01*
X30500500Y-23667063D01*
X30520185Y-23600024D01*
X30560349Y-23560946D01*
X30584815Y-23546157D01*
X42243750Y-23546157D01*
X42246671Y-23583277D01*
X42246672Y-23583283D01*
X42292841Y-23742194D01*
X42292842Y-23742197D01*
X42377083Y-23884642D01*
X42377089Y-23884650D01*
X42494099Y-24001660D01*
X42494107Y-24001666D01*
X42636552Y-24085907D01*
X42636555Y-24085909D01*
X42795467Y-24132077D01*
X42795474Y-24132079D01*
X42803748Y-24132729D01*
X42803750Y-24132728D01*
X42803750Y-23517500D01*
X42243750Y-23517500D01*
X42243750Y-23546157D01*
X30584815Y-23546157D01*
X30605335Y-23533753D01*
X30718753Y-23420335D01*
X30801733Y-23283069D01*
X30849452Y-23129933D01*
X30855500Y-23063381D01*
X30855499Y-22636620D01*
X30855499Y-22636611D01*
X30849453Y-22570073D01*
X30849452Y-22570070D01*
X30849452Y-22570067D01*
X30814964Y-22459390D01*
X30801734Y-22416933D01*
X30801732Y-22416929D01*
X30718757Y-22279670D01*
X30718756Y-22279669D01*
X30718754Y-22279667D01*
X30718753Y-22279665D01*
X30605335Y-22166247D01*
X30605334Y-22166246D01*
X30605333Y-22166245D01*
X30560350Y-22139052D01*
X30513162Y-22087524D01*
X30500500Y-22032935D01*
X30500500Y-21467063D01*
X30520185Y-21400024D01*
X30560349Y-21360946D01*
X30605335Y-21333753D01*
X30718753Y-21220335D01*
X30725257Y-21209577D01*
X30773048Y-21130520D01*
X30801733Y-21083069D01*
X30849452Y-20929933D01*
X30855500Y-20863381D01*
X30855499Y-20436620D01*
X30855499Y-20436611D01*
X30849453Y-20370073D01*
X30849452Y-20370070D01*
X30849452Y-20370067D01*
X30808640Y-20239097D01*
X30801734Y-20216933D01*
X30801732Y-20216929D01*
X30718757Y-20079670D01*
X30718753Y-20079665D01*
X30634319Y-19995231D01*
X30600834Y-19933908D01*
X30598000Y-19907550D01*
X30598000Y-18911559D01*
X30598001Y-18911546D01*
X30598001Y-18743445D01*
X30598001Y-18743443D01*
X30557077Y-18590715D01*
X30525230Y-18535555D01*
X30521694Y-18529430D01*
X30521693Y-18529429D01*
X30497493Y-18487513D01*
X30478020Y-18453784D01*
X30381412Y-18357176D01*
X30347928Y-18295853D01*
X30352912Y-18226161D01*
X30394784Y-18170228D01*
X30402573Y-18164397D01*
X30405046Y-18162546D01*
X30441025Y-18114485D01*
X30447985Y-18105188D01*
X30503919Y-18063318D01*
X30547251Y-18055500D01*
X30782734Y-18055500D01*
X30849773Y-18075185D01*
X30851625Y-18076398D01*
X30983314Y-18164390D01*
X30983327Y-18164397D01*
X31103571Y-18214203D01*
X31129003Y-18224737D01*
X31249940Y-18248793D01*
X31283653Y-18255499D01*
X31283656Y-18255500D01*
X31283658Y-18255500D01*
X31441344Y-18255500D01*
X31441345Y-18255499D01*
X31595997Y-18224737D01*
X31741679Y-18164394D01*
X31785126Y-18135362D01*
X31851799Y-18114485D01*
X31919179Y-18132968D01*
X31941696Y-18150784D01*
X31967165Y-18176253D01*
X31967170Y-18176257D01*
X32104429Y-18259232D01*
X32104433Y-18259234D01*
X32156855Y-18275569D01*
X32257567Y-18306952D01*
X32324119Y-18313000D01*
X32750880Y-18312999D01*
X32750888Y-18312999D01*
X32817426Y-18306953D01*
X32817427Y-18306952D01*
X32817433Y-18306952D01*
X32961197Y-18262153D01*
X32970566Y-18259234D01*
X32970566Y-18259233D01*
X32970569Y-18259233D01*
X33104262Y-18178413D01*
X33107829Y-18176257D01*
X33107830Y-18176255D01*
X33107835Y-18176253D01*
X33221253Y-18062835D01*
X33223930Y-18058408D01*
X33261524Y-17996217D01*
X33304233Y-17925569D01*
X33351952Y-17772433D01*
X33358000Y-17705881D01*
X33357999Y-17556530D01*
X37134500Y-17556530D01*
X37134500Y-18363469D01*
X37174868Y-18566412D01*
X37174870Y-18566420D01*
X37248196Y-18743445D01*
X37254059Y-18757598D01*
X37254490Y-18758243D01*
X37369024Y-18929657D01*
X37515342Y-19075975D01*
X37515345Y-19075977D01*
X37687402Y-19190941D01*
X37878580Y-19270130D01*
X38078534Y-19309903D01*
X38081530Y-19310499D01*
X38081534Y-19310500D01*
X38081535Y-19310500D01*
X38288466Y-19310500D01*
X38288467Y-19310499D01*
X38491420Y-19270130D01*
X38682598Y-19190941D01*
X38751876Y-19144650D01*
X38818553Y-19123773D01*
X38885933Y-19142257D01*
X38920033Y-19173441D01*
X38937812Y-19197190D01*
X39052906Y-19283350D01*
X39052913Y-19283354D01*
X39187620Y-19333596D01*
X39187627Y-19333598D01*
X39247155Y-19339999D01*
X39247172Y-19340000D01*
X39375000Y-19340000D01*
X39375000Y-17140000D01*
X39247172Y-17140000D01*
X39185418Y-17146639D01*
X39116658Y-17134233D01*
X39069061Y-17092239D01*
X39000980Y-16990349D01*
X39000974Y-16990341D01*
X38854657Y-16844024D01*
X38741201Y-16768216D01*
X38682598Y-16729059D01*
X38662502Y-16720735D01*
X38491420Y-16649870D01*
X38491412Y-16649868D01*
X38288469Y-16609500D01*
X38288465Y-16609500D01*
X38081535Y-16609500D01*
X38081530Y-16609500D01*
X37878587Y-16649868D01*
X37878579Y-16649870D01*
X37687403Y-16729058D01*
X37515342Y-16844024D01*
X37369024Y-16990342D01*
X37254058Y-17162403D01*
X37174870Y-17353579D01*
X37174868Y-17353587D01*
X37134500Y-17556530D01*
X33357999Y-17556530D01*
X33357999Y-17454420D01*
X33357999Y-17204111D01*
X33351953Y-17137573D01*
X33351952Y-17137570D01*
X33351952Y-17137567D01*
X33304233Y-16984431D01*
X33287032Y-16955977D01*
X33265988Y-16921165D01*
X33248152Y-16853611D01*
X33265989Y-16792865D01*
X33303773Y-16730362D01*
X33351457Y-16577338D01*
X33357500Y-16510837D01*
X33357500Y-16510000D01*
X31717500Y-16510000D01*
X31717500Y-16510838D01*
X31720866Y-16547887D01*
X31707328Y-16616433D01*
X31658881Y-16666778D01*
X31590906Y-16682938D01*
X31573184Y-16680724D01*
X31441346Y-16654500D01*
X31441342Y-16654500D01*
X31283658Y-16654500D01*
X31283655Y-16654500D01*
X31129010Y-16685261D01*
X31128998Y-16685264D01*
X30983327Y-16745602D01*
X30983314Y-16745609D01*
X30851625Y-16833602D01*
X30784947Y-16854480D01*
X30782734Y-16854500D01*
X30547250Y-16854500D01*
X30480211Y-16834815D01*
X30447972Y-16804796D01*
X30447920Y-16804727D01*
X30447284Y-16803877D01*
X30422878Y-16738410D01*
X30437739Y-16670139D01*
X30447298Y-16655269D01*
X30490852Y-16597090D01*
X30490854Y-16597086D01*
X30541096Y-16462379D01*
X30541098Y-16462372D01*
X30547499Y-16402844D01*
X30547500Y-16402827D01*
X30547500Y-16009162D01*
X31717500Y-16009162D01*
X31717500Y-16010000D01*
X32287500Y-16010000D01*
X32787500Y-16010000D01*
X33357500Y-16010000D01*
X33357500Y-16009162D01*
X33351456Y-15942656D01*
X33303775Y-15789640D01*
X33303773Y-15789636D01*
X33220860Y-15652480D01*
X33220857Y-15652476D01*
X33107523Y-15539142D01*
X33107519Y-15539139D01*
X32970363Y-15456226D01*
X32970359Y-15456224D01*
X32817343Y-15408543D01*
X32817344Y-15408543D01*
X32787500Y-15405831D01*
X32787500Y-16010000D01*
X32287500Y-16010000D01*
X32287500Y-15405831D01*
X32257655Y-15408543D01*
X32104640Y-15456224D01*
X32104636Y-15456226D01*
X31967480Y-15539139D01*
X31967476Y-15539142D01*
X31854142Y-15652476D01*
X31854139Y-15652480D01*
X31771226Y-15789636D01*
X31771224Y-15789640D01*
X31723543Y-15942656D01*
X31717500Y-16009162D01*
X30547500Y-16009162D01*
X30547500Y-15750000D01*
X27177500Y-15750000D01*
X27177500Y-16402844D01*
X27183901Y-16462372D01*
X27183903Y-16462379D01*
X27234145Y-16597086D01*
X27234147Y-16597088D01*
X27277702Y-16655271D01*
X27302119Y-16720735D01*
X27287267Y-16789008D01*
X27277765Y-16803809D01*
X27277079Y-16804727D01*
X27221180Y-16846645D01*
X27177749Y-16854500D01*
X25255097Y-16854500D01*
X25188058Y-16834815D01*
X25167416Y-16818181D01*
X23599235Y-15250000D01*
X27177500Y-15250000D01*
X30547500Y-15250000D01*
X30547500Y-14585000D01*
X27177500Y-14585000D01*
X27177500Y-15250000D01*
X23599235Y-15250000D01*
X23496819Y-15147584D01*
X23463334Y-15086261D01*
X23460500Y-15059903D01*
X23460500Y-15039778D01*
X23458157Y-15024985D01*
X23426015Y-14822049D01*
X23375488Y-14666540D01*
X23357896Y-14612396D01*
X23357892Y-14612387D01*
X23346451Y-14589932D01*
X23257814Y-14415976D01*
X23128247Y-14237641D01*
X23128243Y-14237636D01*
X22972363Y-14081756D01*
X22972358Y-14081752D01*
X22938503Y-14057155D01*
X27177500Y-14057155D01*
X27177500Y-14165000D01*
X27677500Y-14165000D01*
X28097500Y-14165000D01*
X28327500Y-14165000D01*
X28747500Y-14165000D01*
X28977500Y-14165000D01*
X29397500Y-14165000D01*
X29627500Y-14165000D01*
X30047500Y-14165000D01*
X30547500Y-14165000D01*
X30547500Y-14057172D01*
X30547499Y-14057155D01*
X30541098Y-13997627D01*
X30541096Y-13997620D01*
X30490854Y-13862913D01*
X30490852Y-13862910D01*
X30462289Y-13824755D01*
X30462288Y-13824754D01*
X30411215Y-13756530D01*
X37134500Y-13756530D01*
X37134500Y-14563469D01*
X37174868Y-14766412D01*
X37174870Y-14766420D01*
X37249669Y-14947001D01*
X37254059Y-14957598D01*
X37285609Y-15004816D01*
X37369024Y-15129657D01*
X37515342Y-15275975D01*
X37515345Y-15275977D01*
X37687402Y-15390941D01*
X37878580Y-15470130D01*
X38046610Y-15503553D01*
X38081530Y-15510499D01*
X38081534Y-15510500D01*
X38081535Y-15510500D01*
X38288466Y-15510500D01*
X38288467Y-15510499D01*
X38491420Y-15470130D01*
X38682598Y-15390941D01*
X38854655Y-15275977D01*
X39000977Y-15129655D01*
X39115941Y-14957598D01*
X39195130Y-14766420D01*
X39235500Y-14563465D01*
X39235500Y-13756535D01*
X39195130Y-13553580D01*
X39115941Y-13362402D01*
X39000977Y-13190345D01*
X39000975Y-13190342D01*
X38854657Y-13044024D01*
X38723830Y-12956609D01*
X38682598Y-12929059D01*
X38653125Y-12916851D01*
X38491420Y-12849870D01*
X38491412Y-12849868D01*
X38288469Y-12809500D01*
X38288465Y-12809500D01*
X38081535Y-12809500D01*
X38081530Y-12809500D01*
X37878587Y-12849868D01*
X37878579Y-12849870D01*
X37687403Y-12929058D01*
X37515342Y-13044024D01*
X37369024Y-13190342D01*
X37254058Y-13362403D01*
X37174870Y-13553579D01*
X37174868Y-13553587D01*
X37134500Y-13756530D01*
X30411215Y-13756530D01*
X30404686Y-13747809D01*
X30289593Y-13661649D01*
X30289586Y-13661645D01*
X30154879Y-13611403D01*
X30154872Y-13611401D01*
X30095344Y-13605000D01*
X30047500Y-13605000D01*
X30047500Y-14165000D01*
X29627500Y-14165000D01*
X29627500Y-13605000D01*
X29579668Y-13605000D01*
X29525754Y-13610796D01*
X29499246Y-13610796D01*
X29445331Y-13605000D01*
X29397500Y-13605000D01*
X29397500Y-14165000D01*
X28977500Y-14165000D01*
X28977500Y-13605000D01*
X28929668Y-13605000D01*
X28875754Y-13610796D01*
X28849246Y-13610796D01*
X28795331Y-13605000D01*
X28747500Y-13605000D01*
X28747500Y-14165000D01*
X28327500Y-14165000D01*
X28327500Y-13605000D01*
X28279668Y-13605000D01*
X28225754Y-13610796D01*
X28199246Y-13610796D01*
X28145331Y-13605000D01*
X28097500Y-13605000D01*
X28097500Y-14165000D01*
X27677500Y-14165000D01*
X27677500Y-13605000D01*
X27629655Y-13605000D01*
X27570127Y-13611401D01*
X27570120Y-13611403D01*
X27435413Y-13661645D01*
X27435406Y-13661649D01*
X27320312Y-13747809D01*
X27320309Y-13747812D01*
X27234149Y-13862906D01*
X27234145Y-13862913D01*
X27183903Y-13997620D01*
X27183901Y-13997627D01*
X27177500Y-14057155D01*
X22938503Y-14057155D01*
X22794025Y-13952187D01*
X22794024Y-13952186D01*
X22794022Y-13952185D01*
X22730699Y-13919920D01*
X22597606Y-13852104D01*
X22597603Y-13852103D01*
X22387952Y-13783985D01*
X22214639Y-13756535D01*
X22170222Y-13749500D01*
X21949778Y-13749500D01*
X21905361Y-13756535D01*
X21732047Y-13783985D01*
X21522396Y-13852103D01*
X21522393Y-13852104D01*
X21325974Y-13952187D01*
X21147641Y-14081752D01*
X21147636Y-14081756D01*
X20991756Y-14237636D01*
X20991752Y-14237641D01*
X20862187Y-14415974D01*
X20762104Y-14612393D01*
X20762103Y-14612396D01*
X20693985Y-14822047D01*
X20672481Y-14957820D01*
X20659500Y-15039778D01*
X20659500Y-15260222D01*
X20673459Y-15348355D01*
X20693985Y-15477952D01*
X20762103Y-15687603D01*
X20762104Y-15687606D01*
X20825785Y-15812583D01*
X20862049Y-15883756D01*
X20862187Y-15884025D01*
X20991752Y-16062358D01*
X20991756Y-16062363D01*
X21147636Y-16218243D01*
X21147641Y-16218247D01*
X21287254Y-16319682D01*
X21329920Y-16375012D01*
X21335899Y-16444625D01*
X21303293Y-16506420D01*
X21287254Y-16520318D01*
X21147641Y-16621752D01*
X21147636Y-16621756D01*
X20991756Y-16777636D01*
X20991752Y-16777641D01*
X20862187Y-16955974D01*
X20762104Y-17152393D01*
X20762103Y-17152396D01*
X20693985Y-17362047D01*
X20664146Y-17550443D01*
X20659500Y-17579778D01*
X20659500Y-17800222D01*
X20662535Y-17819385D01*
X20693985Y-18017952D01*
X20762103Y-18227603D01*
X20762104Y-18227606D01*
X20805615Y-18312999D01*
X20862049Y-18423756D01*
X20862187Y-18424025D01*
X20991752Y-18602358D01*
X20991756Y-18602363D01*
X21147636Y-18758243D01*
X21147641Y-18758247D01*
X21287254Y-18859682D01*
X21329920Y-18915012D01*
X21335899Y-18984625D01*
X21303293Y-19046420D01*
X21287254Y-19060318D01*
X21147641Y-19161752D01*
X21147636Y-19161756D01*
X20991756Y-19317636D01*
X20991752Y-19317641D01*
X20862187Y-19495974D01*
X20762104Y-19692393D01*
X20762103Y-19692396D01*
X20693985Y-19902047D01*
X20659500Y-20119778D01*
X20659500Y-20340221D01*
X20693985Y-20557952D01*
X20762103Y-20767603D01*
X20762104Y-20767606D01*
X20790752Y-20823829D01*
X20862049Y-20963756D01*
X20862187Y-20964025D01*
X20991752Y-21142358D01*
X20991756Y-21142363D01*
X21147636Y-21298243D01*
X21147641Y-21298247D01*
X21287254Y-21399682D01*
X21329920Y-21455012D01*
X21335899Y-21524625D01*
X21303293Y-21586420D01*
X21287254Y-21600318D01*
X21147641Y-21701752D01*
X21147636Y-21701756D01*
X20991756Y-21857636D01*
X20991752Y-21857641D01*
X20862187Y-22035974D01*
X20762104Y-22232393D01*
X20762103Y-22232396D01*
X20693985Y-22442047D01*
X20664695Y-22626979D01*
X20659500Y-22659778D01*
X20659500Y-22880222D01*
X20670769Y-22951370D01*
X20693985Y-23097952D01*
X20762103Y-23307603D01*
X20762104Y-23307606D01*
X20814060Y-23409573D01*
X20862049Y-23503756D01*
X20862187Y-23504025D01*
X20991752Y-23682358D01*
X20991756Y-23682363D01*
X21147636Y-23838243D01*
X21147641Y-23838247D01*
X21287254Y-23939682D01*
X21329920Y-23995012D01*
X21335899Y-24064625D01*
X21303293Y-24126420D01*
X21287254Y-24140318D01*
X21147641Y-24241752D01*
X21147636Y-24241756D01*
X20991756Y-24397636D01*
X20991752Y-24397641D01*
X20862187Y-24575974D01*
X20762104Y-24772393D01*
X20762103Y-24772396D01*
X20693985Y-24982047D01*
X20659500Y-25199778D01*
X20659500Y-25420221D01*
X20693985Y-25637952D01*
X20762103Y-25847603D01*
X20762104Y-25847606D01*
X20808690Y-25939034D01*
X20862049Y-26043756D01*
X20862187Y-26044025D01*
X20991752Y-26222358D01*
X20991756Y-26222363D01*
X21147636Y-26378243D01*
X21147641Y-26378247D01*
X21287254Y-26479682D01*
X21329920Y-26535012D01*
X21335899Y-26604625D01*
X21303293Y-26666420D01*
X21287254Y-26680318D01*
X21147641Y-26781752D01*
X21147636Y-26781756D01*
X20991756Y-26937636D01*
X20991752Y-26937641D01*
X20862187Y-27115974D01*
X20762104Y-27312393D01*
X20762103Y-27312396D01*
X20693985Y-27522047D01*
X20688575Y-27556204D01*
X20659500Y-27739778D01*
X20659500Y-27960222D01*
X20668451Y-28016734D01*
X20693985Y-28177952D01*
X20762103Y-28387603D01*
X20762104Y-28387606D01*
X20793896Y-28449999D01*
X20862049Y-28583756D01*
X20862187Y-28584025D01*
X20991752Y-28762358D01*
X20991756Y-28762363D01*
X21147636Y-28918243D01*
X21147641Y-28918247D01*
X21261632Y-29001065D01*
X21325978Y-29047815D01*
X21454375Y-29113237D01*
X21522393Y-29147895D01*
X21522396Y-29147896D01*
X21627221Y-29181955D01*
X21732049Y-29216015D01*
X21949778Y-29250500D01*
X21949779Y-29250500D01*
X22170221Y-29250500D01*
X22170222Y-29250500D01*
X22387951Y-29216015D01*
X22597606Y-29147895D01*
X22794022Y-29047815D01*
X22972365Y-28918242D01*
X23128242Y-28762365D01*
X23257815Y-28584022D01*
X23357895Y-28387606D01*
X23426015Y-28177951D01*
X23460500Y-27960222D01*
X23460500Y-27846692D01*
X23480185Y-27779653D01*
X23532989Y-27733898D01*
X23602147Y-27723954D01*
X23646499Y-27739304D01*
X23718095Y-27780639D01*
X23718097Y-27780641D01*
X23768213Y-27809576D01*
X23768215Y-27809577D01*
X23920942Y-27850500D01*
X23920943Y-27850500D01*
X27962550Y-27850500D01*
X28029589Y-27870185D01*
X28050231Y-27886819D01*
X28097165Y-27933753D01*
X28097169Y-27933756D01*
X28129894Y-27953539D01*
X28177082Y-28005066D01*
X28188921Y-28073925D01*
X28161653Y-28138254D01*
X28153426Y-28147337D01*
X23937584Y-32363181D01*
X23876261Y-32396666D01*
X23849903Y-32399500D01*
X19075719Y-32399500D01*
X19008680Y-32379815D01*
X18965235Y-32331795D01*
X18945052Y-32292185D01*
X18945051Y-32292184D01*
X18820109Y-32120213D01*
X18669786Y-31969890D01*
X18497820Y-31844951D01*
X18308414Y-31748444D01*
X18308413Y-31748443D01*
X18308412Y-31748443D01*
X18106243Y-31682754D01*
X18106241Y-31682753D01*
X18106240Y-31682753D01*
X17944957Y-31657208D01*
X17896287Y-31649500D01*
X17683713Y-31649500D01*
X17635042Y-31657208D01*
X17473760Y-31682753D01*
X17271585Y-31748444D01*
X17082179Y-31844951D01*
X16910215Y-31969889D01*
X16796673Y-32083431D01*
X16735350Y-32116915D01*
X16665658Y-32111931D01*
X16609725Y-32070059D01*
X16592810Y-32039082D01*
X16543797Y-31907671D01*
X16543793Y-31907664D01*
X16457547Y-31792455D01*
X16457544Y-31792452D01*
X16342335Y-31706206D01*
X16342328Y-31706202D01*
X16207482Y-31655908D01*
X16207483Y-31655908D01*
X16147883Y-31649501D01*
X16147881Y-31649500D01*
X16147873Y-31649500D01*
X16147864Y-31649500D01*
X14352129Y-31649500D01*
X14352123Y-31649501D01*
X14292516Y-31655908D01*
X14157671Y-31706202D01*
X14157664Y-31706206D01*
X14042455Y-31792452D01*
X14042452Y-31792455D01*
X13956206Y-31907664D01*
X13956202Y-31907671D01*
X13905908Y-32042517D01*
X13899501Y-32102116D01*
X13899500Y-32102135D01*
X13899500Y-33521635D01*
X13891833Y-33560179D01*
X13892526Y-33560365D01*
X13849499Y-33720943D01*
X13849499Y-33889046D01*
X13849500Y-33889059D01*
X13849500Y-35382238D01*
X13829815Y-35449277D01*
X13800990Y-35480611D01*
X13785556Y-35492454D01*
X13785549Y-35492460D01*
X13692464Y-35585545D01*
X13692455Y-35585555D01*
X13612132Y-35690232D01*
X13612120Y-35690250D01*
X13546303Y-35804248D01*
X13546302Y-35804249D01*
X13495800Y-35926170D01*
X13461724Y-36053341D01*
X13444500Y-36184166D01*
X12500500Y-36184166D01*
X12500500Y-16003051D01*
X12500649Y-15996967D01*
X12503078Y-15947514D01*
X12517052Y-15663068D01*
X12518245Y-15650962D01*
X12525730Y-15600500D01*
X12566849Y-15323296D01*
X12569218Y-15311385D01*
X12637242Y-15039818D01*
X13040000Y-15039818D01*
X13040000Y-15260181D01*
X13074473Y-15477835D01*
X13142567Y-15687410D01*
X13242611Y-15883756D01*
X13288932Y-15947513D01*
X13875388Y-15361057D01*
X13880890Y-15381591D01*
X13959882Y-15518408D01*
X14071592Y-15630118D01*
X14208409Y-15709110D01*
X14228940Y-15714611D01*
X13642485Y-16301065D01*
X13642485Y-16301067D01*
X13668105Y-16319681D01*
X13710771Y-16375010D01*
X13716750Y-16444624D01*
X13684145Y-16506419D01*
X13668105Y-16520317D01*
X13642485Y-16538930D01*
X13642485Y-16538932D01*
X14228941Y-17125388D01*
X14208409Y-17130890D01*
X14071592Y-17209882D01*
X13959882Y-17321592D01*
X13880890Y-17458409D01*
X13875388Y-17478941D01*
X13288932Y-16892485D01*
X13288931Y-16892485D01*
X13242616Y-16956233D01*
X13142567Y-17152589D01*
X13074473Y-17362164D01*
X13040000Y-17579818D01*
X13040000Y-17800181D01*
X13074473Y-18017835D01*
X13142567Y-18227410D01*
X13242611Y-18423756D01*
X13288932Y-18487513D01*
X13875388Y-17901057D01*
X13880890Y-17921591D01*
X13959882Y-18058408D01*
X14071592Y-18170118D01*
X14208409Y-18249110D01*
X14228940Y-18254611D01*
X13642485Y-18841065D01*
X13642485Y-18841067D01*
X13668105Y-18859681D01*
X13710771Y-18915010D01*
X13716750Y-18984624D01*
X13684145Y-19046419D01*
X13668105Y-19060317D01*
X13642485Y-19078930D01*
X13642485Y-19078932D01*
X14228941Y-19665388D01*
X14208409Y-19670890D01*
X14071592Y-19749882D01*
X13959882Y-19861592D01*
X13880890Y-19998409D01*
X13875388Y-20018941D01*
X13288932Y-19432485D01*
X13288931Y-19432485D01*
X13242616Y-19496233D01*
X13142567Y-19692589D01*
X13074473Y-19902164D01*
X13040000Y-20119818D01*
X13040000Y-20340181D01*
X13074473Y-20557835D01*
X13142567Y-20767410D01*
X13242611Y-20963756D01*
X13288932Y-21027513D01*
X13875388Y-20441057D01*
X13880890Y-20461591D01*
X13959882Y-20598408D01*
X14071592Y-20710118D01*
X14208409Y-20789110D01*
X14228940Y-20794611D01*
X13642485Y-21381065D01*
X13642485Y-21381067D01*
X13668105Y-21399681D01*
X13710771Y-21455010D01*
X13716750Y-21524624D01*
X13684145Y-21586419D01*
X13668105Y-21600317D01*
X13642485Y-21618930D01*
X13642485Y-21618932D01*
X14228941Y-22205388D01*
X14208409Y-22210890D01*
X14071592Y-22289882D01*
X13959882Y-22401592D01*
X13880890Y-22538409D01*
X13875388Y-22558941D01*
X13288932Y-21972485D01*
X13288931Y-21972485D01*
X13242616Y-22036233D01*
X13142567Y-22232589D01*
X13074473Y-22442164D01*
X13040000Y-22659818D01*
X13040000Y-22880181D01*
X13074473Y-23097835D01*
X13142567Y-23307410D01*
X13242611Y-23503756D01*
X13288932Y-23567513D01*
X13875388Y-22981057D01*
X13880890Y-23001591D01*
X13959882Y-23138408D01*
X14071592Y-23250118D01*
X14208409Y-23329110D01*
X14228940Y-23334611D01*
X13642485Y-23921065D01*
X13642485Y-23921067D01*
X13668105Y-23939681D01*
X13710771Y-23995010D01*
X13716750Y-24064624D01*
X13684145Y-24126419D01*
X13668105Y-24140317D01*
X13642485Y-24158930D01*
X13642485Y-24158932D01*
X14228941Y-24745388D01*
X14208409Y-24750890D01*
X14071592Y-24829882D01*
X13959882Y-24941592D01*
X13880890Y-25078409D01*
X13875388Y-25098941D01*
X13288932Y-24512485D01*
X13288931Y-24512485D01*
X13242616Y-24576233D01*
X13142567Y-24772589D01*
X13074473Y-24982164D01*
X13040000Y-25199818D01*
X13040000Y-25420181D01*
X13074473Y-25637835D01*
X13142567Y-25847410D01*
X13242611Y-26043756D01*
X13288932Y-26107513D01*
X13875388Y-25521057D01*
X13880890Y-25541591D01*
X13959882Y-25678408D01*
X14071592Y-25790118D01*
X14208409Y-25869110D01*
X14228940Y-25874611D01*
X13642485Y-26461065D01*
X13642485Y-26461067D01*
X13668105Y-26479681D01*
X13710771Y-26535010D01*
X13716750Y-26604624D01*
X13684145Y-26666419D01*
X13668105Y-26680317D01*
X13642485Y-26698930D01*
X13642485Y-26698932D01*
X14228941Y-27285388D01*
X14208409Y-27290890D01*
X14071592Y-27369882D01*
X13959882Y-27481592D01*
X13880890Y-27618409D01*
X13875388Y-27638941D01*
X13288932Y-27052485D01*
X13288931Y-27052485D01*
X13242616Y-27116233D01*
X13142567Y-27312589D01*
X13074473Y-27522164D01*
X13040000Y-27739818D01*
X13040000Y-27960181D01*
X13074473Y-28177835D01*
X13142567Y-28387410D01*
X13242611Y-28583756D01*
X13288932Y-28647513D01*
X13875388Y-28061057D01*
X13880890Y-28081591D01*
X13959882Y-28218408D01*
X14071592Y-28330118D01*
X14208409Y-28409110D01*
X14228940Y-28414611D01*
X13642485Y-29001065D01*
X13642485Y-29001066D01*
X13706243Y-29047388D01*
X13902589Y-29147432D01*
X14112164Y-29215526D01*
X14329819Y-29250000D01*
X14550181Y-29250000D01*
X14767835Y-29215526D01*
X14977410Y-29147432D01*
X15173760Y-29047386D01*
X15237513Y-29001066D01*
X15237514Y-29001066D01*
X14651058Y-28414611D01*
X14671591Y-28409110D01*
X14808408Y-28330118D01*
X14920118Y-28218408D01*
X14999110Y-28081591D01*
X15004611Y-28061058D01*
X15591066Y-28647514D01*
X15591066Y-28647513D01*
X15637386Y-28583760D01*
X15737432Y-28387410D01*
X15805526Y-28177835D01*
X15840000Y-27960181D01*
X15840000Y-27739818D01*
X15805526Y-27522164D01*
X15737432Y-27312589D01*
X15637388Y-27116243D01*
X15591066Y-27052485D01*
X15591065Y-27052485D01*
X15004611Y-27638940D01*
X14999110Y-27618409D01*
X14920118Y-27481592D01*
X14808408Y-27369882D01*
X14671591Y-27290890D01*
X14651057Y-27285387D01*
X15237513Y-26698932D01*
X15237513Y-26698931D01*
X15211893Y-26680317D01*
X15169227Y-26624987D01*
X15163248Y-26555374D01*
X15195854Y-26493579D01*
X15211893Y-26479680D01*
X15237513Y-26461065D01*
X14651058Y-25874611D01*
X14671591Y-25869110D01*
X14808408Y-25790118D01*
X14920118Y-25678408D01*
X14999110Y-25541591D01*
X15004611Y-25521058D01*
X15591066Y-26107514D01*
X15591066Y-26107513D01*
X15637386Y-26043760D01*
X15737432Y-25847410D01*
X15805526Y-25637835D01*
X15840000Y-25420181D01*
X15840000Y-25199818D01*
X15805526Y-24982164D01*
X15737432Y-24772589D01*
X15637388Y-24576243D01*
X15591066Y-24512485D01*
X15591065Y-24512485D01*
X15004611Y-25098940D01*
X14999110Y-25078409D01*
X14920118Y-24941592D01*
X14808408Y-24829882D01*
X14671591Y-24750890D01*
X14651057Y-24745387D01*
X15237513Y-24158932D01*
X15237513Y-24158931D01*
X15211893Y-24140317D01*
X15169227Y-24084987D01*
X15163248Y-24015374D01*
X15195854Y-23953579D01*
X15211893Y-23939680D01*
X15237513Y-23921065D01*
X14651058Y-23334611D01*
X14671591Y-23329110D01*
X14808408Y-23250118D01*
X14920118Y-23138408D01*
X14999110Y-23001591D01*
X15004611Y-22981058D01*
X15591066Y-23567514D01*
X15591066Y-23567513D01*
X15637386Y-23503760D01*
X15737432Y-23307410D01*
X15805526Y-23097835D01*
X15840000Y-22880181D01*
X15840000Y-22659818D01*
X15805526Y-22442164D01*
X15737432Y-22232589D01*
X15637388Y-22036243D01*
X15591066Y-21972485D01*
X15591065Y-21972485D01*
X15004611Y-22558940D01*
X14999110Y-22538409D01*
X14920118Y-22401592D01*
X14808408Y-22289882D01*
X14671591Y-22210890D01*
X14651057Y-22205387D01*
X15237513Y-21618932D01*
X15237513Y-21618931D01*
X15211893Y-21600317D01*
X15169227Y-21544987D01*
X15163248Y-21475374D01*
X15195854Y-21413579D01*
X15211893Y-21399680D01*
X15237513Y-21381065D01*
X14651058Y-20794611D01*
X14671591Y-20789110D01*
X14808408Y-20710118D01*
X14920118Y-20598408D01*
X14999110Y-20461591D01*
X15004611Y-20441058D01*
X15591066Y-21027514D01*
X15591066Y-21027513D01*
X15637386Y-20963760D01*
X15737432Y-20767410D01*
X15805526Y-20557835D01*
X15840000Y-20340181D01*
X15840000Y-20119818D01*
X15805526Y-19902164D01*
X15737432Y-19692589D01*
X15637388Y-19496243D01*
X15591066Y-19432485D01*
X15591065Y-19432485D01*
X15004611Y-20018940D01*
X14999110Y-19998409D01*
X14920118Y-19861592D01*
X14808408Y-19749882D01*
X14671591Y-19670890D01*
X14651057Y-19665387D01*
X15237513Y-19078932D01*
X15237513Y-19078931D01*
X15211893Y-19060317D01*
X15169227Y-19004987D01*
X15163248Y-18935374D01*
X15195854Y-18873579D01*
X15211893Y-18859680D01*
X15237513Y-18841065D01*
X14651058Y-18254611D01*
X14671591Y-18249110D01*
X14808408Y-18170118D01*
X14920118Y-18058408D01*
X14999110Y-17921591D01*
X15004611Y-17901058D01*
X15591066Y-18487514D01*
X15591066Y-18487513D01*
X15637386Y-18423760D01*
X15737432Y-18227410D01*
X15805526Y-18017835D01*
X15840000Y-17800181D01*
X15840000Y-17579818D01*
X15805526Y-17362164D01*
X15737432Y-17152589D01*
X15637388Y-16956243D01*
X15591066Y-16892485D01*
X15591065Y-16892485D01*
X15004611Y-17478940D01*
X14999110Y-17458409D01*
X14920118Y-17321592D01*
X14808408Y-17209882D01*
X14671591Y-17130890D01*
X14651057Y-17125387D01*
X15237513Y-16538932D01*
X15237513Y-16538931D01*
X15211893Y-16520317D01*
X15169227Y-16464987D01*
X15163248Y-16395374D01*
X15195854Y-16333579D01*
X15211893Y-16319680D01*
X15237513Y-16301065D01*
X14651058Y-15714611D01*
X14671591Y-15709110D01*
X14808408Y-15630118D01*
X14920118Y-15518408D01*
X14999110Y-15381591D01*
X15004611Y-15361058D01*
X15591066Y-15947514D01*
X15591066Y-15947513D01*
X15637386Y-15883760D01*
X15737432Y-15687410D01*
X15805526Y-15477835D01*
X15840000Y-15260181D01*
X15840000Y-15039818D01*
X15805526Y-14822164D01*
X15737432Y-14612589D01*
X15637388Y-14416243D01*
X15591066Y-14352485D01*
X15591065Y-14352485D01*
X15004611Y-14938940D01*
X14999110Y-14918409D01*
X14920118Y-14781592D01*
X14808408Y-14669882D01*
X14671591Y-14590890D01*
X14651057Y-14585387D01*
X15237513Y-13998932D01*
X15173756Y-13952611D01*
X14977410Y-13852567D01*
X14767835Y-13784473D01*
X14550181Y-13750000D01*
X14329819Y-13750000D01*
X14112164Y-13784473D01*
X13902589Y-13852567D01*
X13706233Y-13952616D01*
X13642485Y-13998931D01*
X13642485Y-13998932D01*
X14228941Y-14585388D01*
X14208409Y-14590890D01*
X14071592Y-14669882D01*
X13959882Y-14781592D01*
X13880890Y-14918409D01*
X13875388Y-14938941D01*
X13288932Y-14352485D01*
X13288931Y-14352485D01*
X13242616Y-14416233D01*
X13142567Y-14612589D01*
X13074473Y-14822164D01*
X13040000Y-15039818D01*
X12637242Y-15039818D01*
X12649709Y-14990047D01*
X12653240Y-14978411D01*
X12709146Y-14822164D01*
X12764835Y-14666525D01*
X12769476Y-14655318D01*
X12911124Y-14355828D01*
X12916840Y-14345136D01*
X13087145Y-14060998D01*
X13093888Y-14050905D01*
X13291232Y-13784818D01*
X13298935Y-13775433D01*
X13521405Y-13529975D01*
X13529975Y-13521405D01*
X13775433Y-13298935D01*
X13784818Y-13291232D01*
X14050905Y-13093888D01*
X14060998Y-13087145D01*
X14345136Y-12916840D01*
X14355828Y-12911124D01*
X14655318Y-12769476D01*
X14666525Y-12764835D01*
X14978412Y-12653239D01*
X14990043Y-12649710D01*
X15311385Y-12569218D01*
X15323296Y-12566849D01*
X15650962Y-12518244D01*
X15663068Y-12517052D01*
X15996967Y-12500648D01*
X16003051Y-12500500D01*
X16065892Y-12500500D01*
X50347246Y-12500500D01*
X50414285Y-12520185D01*
G37*
%TD.AperFunction*%
%TD*%
M02*
