%TF.GenerationSoftware,KiCad,Pcbnew,10.0.5*%
%TF.CreationDate,2026-08-25T09:53:26+01:00*%
%TF.ProjectId,USB_C_PD_Prototyping_Board,5553425f-435f-4504-945f-50726f746f74,rev?*%
%TF.SameCoordinates,Original*%
%TF.FileFunction,Plated,1,2,PTH,Mixed*%
%TF.FilePolarity,Positive*%
%FSLAX46Y46*%
G04 Gerber Fmt 4.6, Leading zero omitted, Abs format (unit mm)*
G04 Created by KiCad (PCBNEW 10.0.5) date 2026-08-25 09:53:26*
%MOMM*%
%LPD*%
G01*
G04 APERTURE LIST*
%TA.AperFunction,ViaDrill*%
%ADD10C,0.300000*%
%TD*%
G04 aperture for slot hole*
%TA.AperFunction,ComponentDrill*%
%ADD11C,0.599998*%
%TD*%
G04 aperture for slot hole*
%TA.AperFunction,ComponentDrill*%
%ADD12C,0.799998*%
%TD*%
%TA.AperFunction,ComponentDrill*%
%ADD13C,1.000000*%
%TD*%
%TA.AperFunction,ComponentDrill*%
%ADD14C,1.199998*%
%TD*%
%TA.AperFunction,ComponentDrill*%
%ADD15C,1.300022*%
%TD*%
G04 APERTURE END LIST*
D10*
X31362500Y-17455000D03*
X35500000Y-33250000D03*
X37500000Y-25750000D03*
X37750000Y-21750000D03*
X38415110Y-26236360D03*
X38634620Y-21417990D03*
X39428750Y-21321250D03*
X40222882Y-21417990D03*
X41385000Y-19027717D03*
X42125000Y-18240000D03*
X42894998Y-17940000D03*
X43625000Y-19027717D03*
X44025000Y-27228750D03*
X51500000Y-35250000D03*
X51500000Y-36000000D03*
X51500000Y-36750000D03*
X52250000Y-35250000D03*
X52250000Y-36000000D03*
X52250000Y-36750000D03*
X53000000Y-35250000D03*
X53000000Y-36000000D03*
X53000000Y-36750000D03*
%TO.C,J1*%
D11*
X38185000Y-14460000D02*
X38185000Y-13860000D01*
X38185000Y-18260000D02*
X38185000Y-17660000D01*
X46825000Y-14460000D02*
X46825000Y-13860000D01*
X46825000Y-18260000D02*
X46825000Y-17660000D01*
%TO.C,SW1*%
D12*
X53999999Y-42150000D02*
X53000001Y-42150000D01*
X53999999Y-53850000D02*
X53000001Y-53850000D01*
D13*
%TO.C,JP6*%
X15250000Y-33000000D03*
X17790000Y-33000000D03*
%TO.C,TP1*%
X18500000Y-38000000D03*
%TO.C,J6*%
X18735000Y-45210000D03*
X18735000Y-47750000D03*
X18735000Y-50290000D03*
X21275000Y-45210000D03*
X21275000Y-47750000D03*
X21275000Y-50290000D03*
%TO.C,TP3*%
X40750000Y-29000000D03*
%TO.C,JP5*%
X43750000Y-35960000D03*
X43750000Y-38500000D03*
X43750000Y-41040000D03*
%TO.C,TP2*%
X48500000Y-23000000D03*
%TO.C,J3*%
X58225000Y-14250000D03*
X60765000Y-14250000D03*
%TO.C,J5*%
X61380000Y-23500000D03*
%TO.C,J7*%
X63735000Y-45210000D03*
X63735000Y-47750000D03*
X63735000Y-50290000D03*
%TO.C,J5*%
X63920000Y-23500000D03*
%TO.C,J7*%
X66275000Y-45210000D03*
X66275000Y-47750000D03*
X66275000Y-50290000D03*
%TO.C,J5*%
X66460000Y-23500000D03*
X69000000Y-23500000D03*
D14*
%TO.C,DIP1*%
X14440000Y-15150000D03*
X14440000Y-17690000D03*
X14440000Y-20230000D03*
X14440000Y-22770000D03*
X14440000Y-25310000D03*
X14440000Y-27850000D03*
X22060000Y-15150000D03*
X22060000Y-17690000D03*
X22060000Y-20230000D03*
X22060000Y-22770000D03*
X22060000Y-25310000D03*
X22060000Y-27850000D03*
D15*
%TO.C,J2*%
X40255000Y-50500000D03*
X45255000Y-50500000D03*
%TO.C,SW1*%
X53500000Y-45000000D03*
X53500000Y-48000000D03*
X53500000Y-51000000D03*
M02*
