%TF.GenerationSoftware,KiCad,Pcbnew,10.0.5*%
%TF.CreationDate,2026-08-25T09:53:29+01:00*%
%TF.ProjectId,USB_C_PD_Prototyping_Board,5553425f-435f-4504-945f-50726f746f74,rev?*%
%TF.SameCoordinates,Original*%
%TF.FileFunction,Soldermask,Bot*%
%TF.FilePolarity,Negative*%
%FSLAX46Y46*%
G04 Gerber Fmt 4.6, Leading zero omitted, Abs format (unit mm)*
G04 Created by KiCad (PCBNEW 10.0.5) date 2026-08-25 09:53:29*
%MOMM*%
%LPD*%
G01*
G04 APERTURE LIST*
%ADD10R,2.000000X2.000000*%
%ADD11C,1.700000*%
%ADD12R,1.700000X1.700000*%
%ADD13C,1.800000*%
%ADD14O,2.500000X1.500000*%
%ADD15O,1.100000X1.700000*%
G04 APERTURE END LIST*
D10*
%TO.C,TP3*%
X40750000Y-29000000D03*
%TD*%
D11*
%TO.C,J5*%
X61380000Y-23500000D03*
X63920000Y-23500000D03*
X66460000Y-23500000D03*
D12*
X69000000Y-23500000D03*
%TD*%
D13*
%TO.C,DIP1*%
X22060000Y-15150000D03*
X22060000Y-17690000D03*
X22060000Y-20230000D03*
X22060000Y-22770000D03*
X22060000Y-25310000D03*
X22060000Y-27850000D03*
X14440000Y-15150000D03*
X14440000Y-17690000D03*
X14440000Y-20230000D03*
X14440000Y-22770000D03*
X14440000Y-25310000D03*
X14440000Y-27850000D03*
%TD*%
D12*
%TO.C,JP5*%
X43750000Y-41040000D03*
D11*
X43750000Y-38500000D03*
X43750000Y-35960000D03*
%TD*%
D13*
%TO.C,SW1*%
X53500000Y-45000000D03*
X53500000Y-48000000D03*
X53500000Y-51000000D03*
D14*
X53500000Y-53850000D03*
X53500000Y-42150000D03*
%TD*%
D12*
%TO.C,JP6*%
X15250000Y-33000000D03*
D11*
X17790000Y-33000000D03*
%TD*%
D13*
%TO.C,J2*%
X40255000Y-50500000D03*
X45255000Y-50500000D03*
%TD*%
D12*
%TO.C,J3*%
X58225000Y-14250000D03*
D11*
X60765000Y-14250000D03*
%TD*%
D15*
%TO.C,J1*%
X46825000Y-17960000D03*
X38185000Y-17960000D03*
X38185000Y-14160000D03*
X46825000Y-14160000D03*
%TD*%
D10*
%TO.C,TP2*%
X48500000Y-23000000D03*
%TD*%
%TO.C,TP1*%
X18500000Y-38000000D03*
%TD*%
D12*
%TO.C,J7*%
X66275000Y-45210000D03*
D11*
X63735000Y-45210000D03*
X66275000Y-47750000D03*
X63735000Y-47750000D03*
X66275000Y-50290000D03*
X63735000Y-50290000D03*
%TD*%
D12*
%TO.C,J6*%
X21275000Y-45210000D03*
D11*
X18735000Y-45210000D03*
X21275000Y-47750000D03*
X18735000Y-47750000D03*
X21275000Y-50290000D03*
X18735000Y-50290000D03*
%TD*%
M02*
