%TF.GenerationSoftware,KiCad,Pcbnew,10.0.5*%
%TF.CreationDate,2026-08-25T09:53:29+01:00*%
%TF.ProjectId,USB_C_PD_Prototyping_Board,5553425f-435f-4504-945f-50726f746f74,rev?*%
%TF.SameCoordinates,Original*%
%TF.FileFunction,Paste,Top*%
%TF.FilePolarity,Positive*%
%FSLAX46Y46*%
G04 Gerber Fmt 4.6, Leading zero omitted, Abs format (unit mm)*
G04 Created by KiCad (PCBNEW 10.0.5) date 2026-08-25 09:53:29*
%MOMM*%
%LPD*%
G01*
G04 APERTURE LIST*
G04 Aperture macros list*
%AMRoundRect*
0 Rectangle with rounded corners*
0 $1 Rounding radius*
0 $2 $3 $4 $5 $6 $7 $8 $9 X,Y pos of 4 corners*
0 Add a 4 corners polygon primitive as box body*
4,1,4,$2,$3,$4,$5,$6,$7,$8,$9,$2,$3,0*
0 Add four circle primitives for the rounded corners*
1,1,$1+$1,$2,$3*
1,1,$1+$1,$4,$5*
1,1,$1+$1,$6,$7*
1,1,$1+$1,$8,$9*
0 Add four rect primitives between the rounded corners*
20,1,$1+$1,$2,$3,$4,$5,0*
20,1,$1+$1,$4,$5,$6,$7,0*
20,1,$1+$1,$6,$7,$8,$9,0*
20,1,$1+$1,$8,$9,$2,$3,0*%
G04 Aperture macros list end*
%ADD10RoundRect,0.160000X-0.197500X-0.160000X0.197500X-0.160000X0.197500X0.160000X-0.197500X0.160000X0*%
%ADD11R,0.420000X0.700000*%
%ADD12R,0.420000X0.540000*%
%ADD13R,2.370000X1.710000*%
%ADD14RoundRect,0.250000X-1.275000X-1.125000X1.275000X-1.125000X1.275000X1.125000X-1.275000X1.125000X0*%
%ADD15RoundRect,0.250000X-0.850000X-0.350000X0.850000X-0.350000X0.850000X0.350000X-0.850000X0.350000X0*%
%ADD16RoundRect,0.160000X0.160000X-0.197500X0.160000X0.197500X-0.160000X0.197500X-0.160000X-0.197500X0*%
%ADD17RoundRect,0.155000X0.212500X0.155000X-0.212500X0.155000X-0.212500X-0.155000X0.212500X-0.155000X0*%
%ADD18RoundRect,0.160000X-0.160000X0.197500X-0.160000X-0.197500X0.160000X-0.197500X0.160000X0.197500X0*%
%ADD19RoundRect,0.155000X0.155000X-0.212500X0.155000X0.212500X-0.155000X0.212500X-0.155000X-0.212500X0*%
%ADD20RoundRect,0.250000X0.450000X-0.325000X0.450000X0.325000X-0.450000X0.325000X-0.450000X-0.325000X0*%
%ADD21RoundRect,0.250000X-0.450000X0.325000X-0.450000X-0.325000X0.450000X-0.325000X0.450000X0.325000X0*%
%ADD22R,0.600000X0.300000*%
%ADD23R,0.600000X0.250000*%
%ADD24R,0.300000X2.400000*%
%ADD25R,0.250000X0.350000*%
%ADD26R,0.460000X1.200000*%
%ADD27R,0.660000X1.200000*%
%ADD28R,0.560000X1.200000*%
%ADD29RoundRect,0.182500X-0.322500X0.182500X-0.322500X-0.182500X0.322500X-0.182500X0.322500X0.182500X0*%
%ADD30RoundRect,0.062500X-0.062500X0.312500X-0.062500X-0.312500X0.062500X-0.312500X0.062500X0.312500X0*%
%ADD31RoundRect,0.155000X-0.155000X0.212500X-0.155000X-0.212500X0.155000X-0.212500X0.155000X0.212500X0*%
G04 APERTURE END LIST*
D10*
%TO.C,R4*%
X29900000Y-27250000D03*
X28705000Y-27250000D03*
%TD*%
D11*
%TO.C,Q1*%
X45975000Y-29000000D03*
X45325000Y-29000000D03*
X44675000Y-29000000D03*
X44025000Y-29000000D03*
D12*
X44025000Y-32080000D03*
X44675000Y-32080000D03*
X45325000Y-32080000D03*
X45975000Y-32080000D03*
D13*
X45000000Y-30955000D03*
%TD*%
D14*
%TO.C,IC2*%
X63575000Y-32225000D03*
X63575000Y-35275000D03*
X66925000Y-32225000D03*
X66925000Y-35275000D03*
D15*
X58950000Y-31470000D03*
X58950000Y-36030000D03*
%TD*%
D16*
%TO.C,R20*%
X39505000Y-40232500D03*
X39505000Y-39037500D03*
%TD*%
%TO.C,R12*%
X28425000Y-39195000D03*
X28425000Y-38000000D03*
%TD*%
D17*
%TO.C,C8*%
X61250000Y-39500000D03*
X60115000Y-39500000D03*
%TD*%
D18*
%TO.C,R14*%
X38675000Y-34902500D03*
X38675000Y-36097500D03*
%TD*%
D19*
%TO.C,C1*%
X43053750Y-23267500D03*
X43053750Y-22132500D03*
%TD*%
D20*
%TO.C,D2*%
X33000000Y-53025000D03*
X33000000Y-50975000D03*
%TD*%
D16*
%TO.C,R18*%
X69500000Y-17000000D03*
X69500000Y-15805000D03*
%TD*%
D21*
%TO.C,D1*%
X51500000Y-13475000D03*
X51500000Y-15525000D03*
%TD*%
D16*
%TO.C,R6*%
X43053750Y-26450000D03*
X43053750Y-25255000D03*
%TD*%
D18*
%TO.C,R11*%
X28425000Y-35152500D03*
X28425000Y-36347500D03*
%TD*%
D10*
%TO.C,R1*%
X28802500Y-20650000D03*
X29997500Y-20650000D03*
%TD*%
D19*
%TO.C,C7*%
X56250000Y-35817500D03*
X56250000Y-34682500D03*
%TD*%
D16*
%TO.C,R17*%
X32750000Y-49025000D03*
X32750000Y-47830000D03*
%TD*%
D10*
%TO.C,R10*%
X30730000Y-33250000D03*
X31925000Y-33250000D03*
%TD*%
D17*
%TO.C,C5*%
X34742500Y-33250000D03*
X33607500Y-33250000D03*
%TD*%
D10*
%TO.C,R15*%
X30730000Y-40750000D03*
X31925000Y-40750000D03*
%TD*%
D11*
%TO.C,Q2*%
X27887500Y-17455000D03*
X28537500Y-17455000D03*
X29187500Y-17455000D03*
X29837500Y-17455000D03*
D12*
X29837500Y-14375000D03*
X29187500Y-14375000D03*
X28537500Y-14375000D03*
X27887500Y-14375000D03*
D13*
X28862500Y-15500000D03*
%TD*%
D16*
%TO.C,R13*%
X36925000Y-36097500D03*
X36925000Y-34902500D03*
%TD*%
D10*
%TO.C,R2*%
X28802500Y-22850000D03*
X29997500Y-22850000D03*
%TD*%
D22*
%TO.C,IC1*%
X31500000Y-36275000D03*
D23*
X31500000Y-36750000D03*
X31500000Y-37200000D03*
D22*
X31500000Y-37675000D03*
D24*
X32150000Y-36975000D03*
X32650000Y-36975000D03*
D22*
X33300000Y-37675000D03*
D23*
X33300000Y-37200000D03*
X33300000Y-36750000D03*
D22*
X33300000Y-36275000D03*
D25*
X31675000Y-35950000D03*
X31675000Y-38000000D03*
X33125000Y-38000000D03*
X33125000Y-35950000D03*
%TD*%
D16*
%TO.C,R19*%
X66500000Y-17000000D03*
X66500000Y-15805000D03*
%TD*%
D18*
%TO.C,R7*%
X44803750Y-25255000D03*
X44803750Y-26450000D03*
%TD*%
D10*
%TO.C,R3*%
X28802500Y-25050000D03*
X29997500Y-25050000D03*
%TD*%
D26*
%TO.C,J1*%
X43625000Y-18240000D03*
X42875000Y-18240000D03*
X42125000Y-18240000D03*
D27*
X39625000Y-18240000D03*
D28*
X40575000Y-18240000D03*
D26*
X41385000Y-18240000D03*
D28*
X44425000Y-18240000D03*
D27*
X45385000Y-18240000D03*
%TD*%
D29*
%TO.C,U1*%
X40053750Y-23300000D03*
X38803750Y-23300000D03*
X40053750Y-24200000D03*
X38803750Y-24200000D03*
D30*
X40428750Y-22275000D03*
X39928750Y-22275000D03*
X39428750Y-22275000D03*
X38928750Y-22275000D03*
X38428750Y-22275000D03*
X38428750Y-25225000D03*
X38928750Y-25225000D03*
X39428750Y-25225000D03*
X39928750Y-25225000D03*
X40428750Y-25225000D03*
%TD*%
D18*
%TO.C,R8*%
X51500000Y-17805000D03*
X51500000Y-19000000D03*
%TD*%
D31*
%TO.C,C6*%
X36925000Y-37932500D03*
X36925000Y-39067500D03*
%TD*%
D10*
%TO.C,R16*%
X33577500Y-40750000D03*
X34772500Y-40750000D03*
%TD*%
D18*
%TO.C,R9*%
X32537500Y-16260000D03*
X32537500Y-17455000D03*
%TD*%
D16*
%TO.C,R5*%
X44803750Y-23297500D03*
X44803750Y-22102500D03*
%TD*%
M02*
