%TF.GenerationSoftware,KiCad,Pcbnew,10.0.5*%
%TF.CreationDate,2026-08-25T09:53:28+01:00*%
%TF.ProjectId,USB_C_PD_Prototyping_Board,5553425f-435f-4504-945f-50726f746f74,rev?*%
%TF.SameCoordinates,Original*%
%TF.FileFunction,Copper,L2,Bot*%
%TF.FilePolarity,Positive*%
%FSLAX46Y46*%
G04 Gerber Fmt 4.6, Leading zero omitted, Abs format (unit mm)*
G04 Created by KiCad (PCBNEW 10.0.5) date 2026-08-25 09:53:28*
%MOMM*%
%LPD*%
G01*
G04 APERTURE LIST*
%TA.AperFunction,ComponentPad*%
%ADD10R,2.000000X2.000000*%
%TD*%
%TA.AperFunction,ComponentPad*%
%ADD11C,1.700000*%
%TD*%
%TA.AperFunction,ComponentPad*%
%ADD12R,1.700000X1.700000*%
%TD*%
%TA.AperFunction,ComponentPad*%
%ADD13C,1.800000*%
%TD*%
%TA.AperFunction,ComponentPad*%
%ADD14O,2.500000X1.500000*%
%TD*%
%TA.AperFunction,ComponentPad*%
%ADD15O,1.100000X1.700000*%
%TD*%
%TA.AperFunction,ViaPad*%
%ADD16C,0.600000*%
%TD*%
%TA.AperFunction,Conductor*%
%ADD17C,0.200000*%
%TD*%
%TA.AperFunction,Conductor*%
%ADD18C,1.000000*%
%TD*%
G04 APERTURE END LIST*
D10*
%TO.P,TP3,1,1_1*%
%TO.N,VFuse*%
X40750000Y-29000000D03*
%TD*%
D11*
%TO.P,J5,4,Pin_4_4*%
%TO.N,GND*%
X61380000Y-23500000D03*
%TO.P,J5,3,Pin_3_3*%
%TO.N,VDD*%
X63920000Y-23500000D03*
%TO.P,J5,2,Pin_2_2*%
%TO.N,SDA*%
X66460000Y-23500000D03*
D12*
%TO.P,J5,1,Pin_1_1*%
%TO.N,SCL*%
X69000000Y-23500000D03*
%TD*%
D13*
%TO.P,DIP1,12*%
%TO.N,Net-(JP6-B)*%
X22060000Y-15150000D03*
%TO.P,DIP1,11*%
%TO.N,Net-(DIP1-Pad11)*%
X22060000Y-17690000D03*
%TO.P,DIP1,10*%
%TO.N,Net-(DIP1-Pad10)*%
X22060000Y-20230000D03*
%TO.P,DIP1,9*%
%TO.N,Net-(DIP1-Pad9)*%
X22060000Y-22770000D03*
%TO.P,DIP1,8*%
%TO.N,Net-(DIP1-Pad8)*%
X22060000Y-25310000D03*
%TO.P,DIP1,7*%
%TO.N,unconnected-(DIP1-Pad7)*%
X22060000Y-27850000D03*
%TO.P,DIP1,6*%
%TO.N,GND*%
X14440000Y-15150000D03*
%TO.P,DIP1,5*%
X14440000Y-17690000D03*
%TO.P,DIP1,4*%
X14440000Y-20230000D03*
%TO.P,DIP1,3*%
X14440000Y-22770000D03*
%TO.P,DIP1,2*%
X14440000Y-25310000D03*
%TO.P,DIP1,1*%
X14440000Y-27850000D03*
%TD*%
D12*
%TO.P,JP5,1,A_1*%
%TO.N,Net-(JP5-A)*%
X43750000Y-41040000D03*
D11*
%TO.P,JP5,2,C_2*%
%TO.N,Net-(IC1-ILM)*%
X43750000Y-38500000D03*
%TO.P,JP5,3,B_3*%
%TO.N,Net-(JP5-B)*%
X43750000Y-35960000D03*
%TD*%
D13*
%TO.P,SW1,1,A_1*%
%TO.N,VBUS*%
X53500000Y-45000000D03*
%TO.P,SW1,2,B_2*%
%TO.N,Net-(Q1-G)*%
X53500000Y-48000000D03*
%TO.P,SW1,3,C_3*%
%TO.N,unconnected-(SW1-C-Pad3)*%
X53500000Y-51000000D03*
D14*
%TO.P,SW1,4*%
%TO.N,N/C*%
X53500000Y-53850000D03*
%TO.P,SW1,5*%
X53500000Y-42150000D03*
%TD*%
D12*
%TO.P,JP6,1,A_1*%
%TO.N,Net-(JP6-A)*%
X15250000Y-33000000D03*
D11*
%TO.P,JP6,2,B_2*%
%TO.N,Net-(JP6-B)*%
X17790000Y-33000000D03*
%TD*%
D13*
%TO.P,J2,1,Pin_1_1*%
%TO.N,VOUT*%
X40255000Y-50500000D03*
%TO.P,J2,2,Pin_2_2*%
%TO.N,GND*%
X45255000Y-50500000D03*
%TD*%
D12*
%TO.P,J3,1,Pin_1_1*%
%TO.N,D-*%
X58225000Y-14250000D03*
D11*
%TO.P,J3,2,Pin_2_2*%
%TO.N,D+*%
X60765000Y-14250000D03*
%TD*%
D15*
%TO.P,J1,1*%
%TO.N,N/C*%
X46825000Y-17960000D03*
%TO.P,J1,2*%
X38185000Y-17960000D03*
%TO.P,J1,3*%
X38185000Y-14160000D03*
%TO.P,J1,4*%
X46825000Y-14160000D03*
%TD*%
D10*
%TO.P,TP2,1,1_1*%
%TO.N,VBUS*%
X48500000Y-23000000D03*
%TD*%
%TO.P,TP1,1,1_1*%
%TO.N,Net-(JP6-B)*%
X18500000Y-38000000D03*
%TD*%
D12*
%TO.P,J7,1,Pin_1_1*%
%TO.N,GND*%
X66275000Y-45210000D03*
D11*
%TO.P,J7,2,Pin_2_2*%
%TO.N,+3V3*%
X63735000Y-45210000D03*
%TO.P,J7,3,Pin_3_3*%
%TO.N,GND*%
X66275000Y-47750000D03*
%TO.P,J7,4,Pin_4_4*%
%TO.N,+3V3*%
X63735000Y-47750000D03*
%TO.P,J7,5,Pin_5_5*%
%TO.N,GND*%
X66275000Y-50290000D03*
%TO.P,J7,6,Pin_6_6*%
%TO.N,+3V3*%
X63735000Y-50290000D03*
%TD*%
D12*
%TO.P,J6,1,Pin_1_1*%
%TO.N,GND*%
X21275000Y-45210000D03*
D11*
%TO.P,J6,2,Pin_2_2*%
%TO.N,VOUT*%
X18735000Y-45210000D03*
%TO.P,J6,3,Pin_3_3*%
%TO.N,GND*%
X21275000Y-47750000D03*
%TO.P,J6,4,Pin_4_4*%
%TO.N,VOUT*%
X18735000Y-47750000D03*
%TO.P,J6,5,Pin_5_5*%
%TO.N,GND*%
X21275000Y-50290000D03*
%TO.P,J6,6,Pin_6_6*%
%TO.N,VOUT*%
X18735000Y-50290000D03*
%TD*%
D16*
%TO.N,Net-(JP6-A)*%
X31362500Y-17455000D03*
%TO.N,SCL*%
X38415110Y-26236360D03*
%TO.N,SDA*%
X37500000Y-25750000D03*
%TO.N,GND*%
X35500000Y-33250000D03*
%TO.N,VOUT*%
X53000000Y-35250000D03*
X53000000Y-36750000D03*
X51500000Y-35250000D03*
X52250000Y-36000000D03*
X52250000Y-35250000D03*
X51500000Y-36000000D03*
X51500000Y-36750000D03*
X52250000Y-36750000D03*
X53000000Y-36000000D03*
%TO.N,CC1*%
X43625000Y-19027717D03*
X38634620Y-21417990D03*
%TO.N,CC2*%
X41385000Y-19027717D03*
X37750000Y-21750000D03*
%TO.N,D+*%
X42894998Y-17940000D03*
X40222882Y-21417990D03*
%TO.N,D-*%
X39428750Y-21321250D03*
X42125000Y-18240000D03*
%TO.N,Net-(Q1-G)*%
X44025000Y-27228750D03*
%TD*%
%TO.N,Net-(JP6-A)*%
D17*
X20928528Y-31250000D02*
X31362500Y-20816028D01*
X31362500Y-20816028D02*
X31362500Y-17455000D01*
%TO.N,VOUT*%
D18*
X53000000Y-35250000D02*
X51500000Y-35250000D01*
X53000000Y-36750000D02*
X53000000Y-35250000D01*
X51500000Y-36750000D02*
X53000000Y-36750000D01*
%TO.N,SCL*%
D17*
X69000000Y-23500000D02*
X66250000Y-26250000D01*
X66250000Y-26250000D02*
X38428750Y-26250000D01*
X38428750Y-26250000D02*
X38415110Y-26236360D01*
%TO.N,SDA*%
X37500000Y-25750000D02*
X37613640Y-25636360D01*
X37613640Y-25636360D02*
X64323640Y-25636360D01*
X64323640Y-25636360D02*
X66460000Y-23500000D01*
%TO.N,Net-(JP6-A)*%
X20928528Y-31250000D02*
X17000000Y-31250000D01*
X17000000Y-31250000D02*
X15250000Y-33000000D01*
%TO.N,D-*%
X58225000Y-14250000D02*
X56475000Y-16000000D01*
X56475000Y-16000000D02*
X43565000Y-16000000D01*
X43565000Y-16000000D02*
X42125000Y-17440000D01*
X42125000Y-17440000D02*
X42125000Y-18240000D01*
%TO.N,D+*%
X60765000Y-14250000D02*
X58515000Y-16500000D01*
X58515000Y-16500000D02*
X45391498Y-16500000D01*
X45391498Y-16500000D02*
X43951498Y-17940000D01*
%TO.N,GND*%
D18*
X21485000Y-50500000D02*
X21275000Y-50290000D01*
X21275000Y-45210000D02*
X21275000Y-50290000D01*
%TO.N,VOUT*%
X45517742Y-52500000D02*
X42255000Y-52500000D01*
X51500000Y-37250000D02*
X51000000Y-37750000D01*
X51000000Y-37750000D02*
X51000000Y-47017742D01*
X42255000Y-52500000D02*
X40255000Y-50500000D01*
X51000000Y-47017742D02*
X45517742Y-52500000D01*
X51500000Y-35250000D02*
X51500000Y-37250000D01*
X53000000Y-36000000D02*
X51500000Y-36000000D01*
%TO.N,CC1*%
D17*
X40273754Y-19627717D02*
X38634620Y-21266851D01*
X43625000Y-19027717D02*
X43025000Y-19627717D01*
X38634620Y-21266851D02*
X38634620Y-21417990D01*
X43025000Y-19627717D02*
X40273754Y-19627717D01*
%TO.N,CC2*%
X40176364Y-19027717D02*
X41385000Y-19027717D01*
X37750000Y-21454081D02*
X40176364Y-19027717D01*
X37750000Y-21750000D02*
X37750000Y-21454081D01*
%TO.N,D+*%
X44625000Y-19441931D02*
X44625000Y-18613502D01*
X44625000Y-18613502D02*
X43951498Y-17940000D01*
X42648941Y-21417990D02*
X44625000Y-19441931D01*
X43951498Y-17940000D02*
X42894998Y-17940000D01*
X40222882Y-21417990D02*
X42648941Y-21417990D01*
%TO.N,D-*%
X44225000Y-19276246D02*
X44225000Y-18779188D01*
X43873529Y-18427717D02*
X43255810Y-18427717D01*
X43255810Y-18427717D02*
X42933527Y-18750000D01*
X42683256Y-20817990D02*
X44225000Y-19276246D01*
X39932010Y-20817990D02*
X42683256Y-20817990D01*
X42635000Y-18750000D02*
X42125000Y-18240000D01*
X39428750Y-21321250D02*
X39932010Y-20817990D01*
X42933527Y-18750000D02*
X42635000Y-18750000D01*
X44225000Y-18779188D02*
X43873529Y-18427717D01*
%TO.N,Net-(Q1-G)*%
X53500000Y-48000000D02*
X55050000Y-46450000D01*
X46110121Y-27228750D02*
X44025000Y-27228750D01*
X55050000Y-36168629D02*
X46110121Y-27228750D01*
X55050000Y-46450000D02*
X55050000Y-36168629D01*
%TD*%
%TA.AperFunction,Conductor*%
%TO.N,GND*%
G36*
X62495270Y-24261717D02*
G01*
X62495270Y-24261716D01*
X62534622Y-24207555D01*
X62539232Y-24198507D01*
X62587205Y-24147709D01*
X62655025Y-24130912D01*
X62721161Y-24153447D01*
X62760204Y-24198504D01*
X62764949Y-24207817D01*
X62889890Y-24379786D01*
X63040213Y-24530109D01*
X63212179Y-24655048D01*
X63212181Y-24655049D01*
X63212184Y-24655051D01*
X63401588Y-24751557D01*
X63531996Y-24793929D01*
X63589672Y-24833367D01*
X63616870Y-24897725D01*
X63604955Y-24966572D01*
X63557711Y-25018047D01*
X63493678Y-25035860D01*
X61804707Y-25035860D01*
X61737668Y-25016175D01*
X61691913Y-24963371D01*
X61681969Y-24894213D01*
X61710994Y-24830657D01*
X61766389Y-24793929D01*
X61898217Y-24751095D01*
X62087554Y-24654622D01*
X62141716Y-24615270D01*
X62141717Y-24615270D01*
X61509408Y-23982962D01*
X61572993Y-23965925D01*
X61687007Y-23900099D01*
X61780099Y-23807007D01*
X61845925Y-23692993D01*
X61862962Y-23629409D01*
X62495270Y-24261717D01*
G37*
%TD.AperFunction*%
%TA.AperFunction,Conductor*%
G36*
X20809075Y-47942993D02*
G01*
X20874901Y-48057007D01*
X20967993Y-48150099D01*
X21082007Y-48215925D01*
X21145591Y-48232962D01*
X20544971Y-48833581D01*
X20623711Y-48950895D01*
X20624920Y-48954729D01*
X20627844Y-48957491D01*
X20635343Y-48987778D01*
X20644727Y-49017529D01*
X20643671Y-49021408D01*
X20644638Y-49025312D01*
X20634573Y-49054844D01*
X20626383Y-49084947D01*
X20623397Y-49087640D01*
X20622100Y-49091447D01*
X20577051Y-49130483D01*
X20567440Y-49135380D01*
X20513282Y-49174727D01*
X20513282Y-49174728D01*
X21145591Y-49807037D01*
X21082007Y-49824075D01*
X20967993Y-49889901D01*
X20874901Y-49982993D01*
X20809075Y-50097007D01*
X20792037Y-50160591D01*
X20159728Y-49528282D01*
X20159727Y-49528282D01*
X20120380Y-49582440D01*
X20120376Y-49582446D01*
X20115760Y-49591505D01*
X20067781Y-49642297D01*
X19999959Y-49659087D01*
X19933826Y-49636543D01*
X19894794Y-49591493D01*
X19890051Y-49582184D01*
X19890049Y-49582181D01*
X19890048Y-49582179D01*
X19765109Y-49410213D01*
X19614786Y-49259890D01*
X19442820Y-49134951D01*
X19440924Y-49133985D01*
X19434054Y-49130485D01*
X19383259Y-49082512D01*
X19366463Y-49014692D01*
X19388999Y-48948556D01*
X19434054Y-48909515D01*
X19442816Y-48905051D01*
X19541187Y-48833581D01*
X19614786Y-48780109D01*
X19614788Y-48780106D01*
X19614792Y-48780104D01*
X19765104Y-48629792D01*
X19765106Y-48629788D01*
X19765109Y-48629786D01*
X19850890Y-48511717D01*
X19890051Y-48457816D01*
X19894793Y-48448508D01*
X19942763Y-48397711D01*
X20010583Y-48380911D01*
X20076719Y-48403445D01*
X20115763Y-48448500D01*
X20120373Y-48457547D01*
X20159728Y-48511716D01*
X20792037Y-47879408D01*
X20809075Y-47942993D01*
G37*
%TD.AperFunction*%
%TA.AperFunction,Conductor*%
G36*
X19859728Y-46097680D02*
G01*
X19915662Y-46139551D01*
X19932577Y-46170528D01*
X19981646Y-46302088D01*
X19981649Y-46302093D01*
X20067809Y-46417187D01*
X20067812Y-46417190D01*
X20182906Y-46503350D01*
X20182913Y-46503354D01*
X20317620Y-46553596D01*
X20317619Y-46553596D01*
X20400444Y-46562501D01*
X20400116Y-46565550D01*
X20417014Y-46564642D01*
X20476196Y-46597642D01*
X21145591Y-47267037D01*
X21082007Y-47284075D01*
X20967993Y-47349901D01*
X20874901Y-47442993D01*
X20809075Y-47557007D01*
X20792037Y-47620591D01*
X20159728Y-46988282D01*
X20159727Y-46988282D01*
X20120380Y-47042440D01*
X20120376Y-47042446D01*
X20115760Y-47051505D01*
X20067781Y-47102297D01*
X19999959Y-47119087D01*
X19933826Y-47096543D01*
X19894794Y-47051493D01*
X19890051Y-47042184D01*
X19890049Y-47042181D01*
X19890048Y-47042179D01*
X19765109Y-46870213D01*
X19614786Y-46719890D01*
X19442820Y-46594951D01*
X19442115Y-46594591D01*
X19434054Y-46590485D01*
X19383259Y-46542512D01*
X19366463Y-46474692D01*
X19388999Y-46408556D01*
X19434054Y-46369515D01*
X19442816Y-46365051D01*
X19529478Y-46302088D01*
X19614784Y-46240110D01*
X19614784Y-46240109D01*
X19614792Y-46240104D01*
X19728717Y-46126178D01*
X19790036Y-46092696D01*
X19859728Y-46097680D01*
G37*
%TD.AperFunction*%
%TA.AperFunction,Conductor*%
G36*
X65809075Y-47942993D02*
G01*
X65874901Y-48057007D01*
X65967993Y-48150099D01*
X66082007Y-48215925D01*
X66145591Y-48232962D01*
X65544971Y-48833581D01*
X65623711Y-48950895D01*
X65624920Y-48954729D01*
X65627844Y-48957491D01*
X65635343Y-48987778D01*
X65644727Y-49017529D01*
X65643671Y-49021408D01*
X65644638Y-49025312D01*
X65634573Y-49054844D01*
X65626383Y-49084947D01*
X65623397Y-49087640D01*
X65622100Y-49091447D01*
X65577051Y-49130483D01*
X65567440Y-49135380D01*
X65513282Y-49174727D01*
X65513282Y-49174728D01*
X66145591Y-49807037D01*
X66082007Y-49824075D01*
X65967993Y-49889901D01*
X65874901Y-49982993D01*
X65809075Y-50097007D01*
X65792037Y-50160591D01*
X65159728Y-49528282D01*
X65159727Y-49528282D01*
X65120380Y-49582440D01*
X65120376Y-49582446D01*
X65115760Y-49591505D01*
X65067781Y-49642297D01*
X64999959Y-49659087D01*
X64933826Y-49636543D01*
X64894794Y-49591493D01*
X64890051Y-49582184D01*
X64890049Y-49582181D01*
X64890048Y-49582179D01*
X64765109Y-49410213D01*
X64614786Y-49259890D01*
X64442820Y-49134951D01*
X64440924Y-49133985D01*
X64434054Y-49130485D01*
X64383259Y-49082512D01*
X64366463Y-49014692D01*
X64388999Y-48948556D01*
X64434054Y-48909515D01*
X64442816Y-48905051D01*
X64541187Y-48833581D01*
X64614786Y-48780109D01*
X64614788Y-48780106D01*
X64614792Y-48780104D01*
X64765104Y-48629792D01*
X64765106Y-48629788D01*
X64765109Y-48629786D01*
X64850890Y-48511717D01*
X64890051Y-48457816D01*
X64894793Y-48448508D01*
X64942763Y-48397711D01*
X65010583Y-48380911D01*
X65076719Y-48403445D01*
X65115763Y-48448500D01*
X65120373Y-48457547D01*
X65159728Y-48511716D01*
X65792037Y-47879408D01*
X65809075Y-47942993D01*
G37*
%TD.AperFunction*%
%TA.AperFunction,Conductor*%
G36*
X64859728Y-46097680D02*
G01*
X64915662Y-46139551D01*
X64932577Y-46170528D01*
X64981646Y-46302088D01*
X64981649Y-46302093D01*
X65067809Y-46417187D01*
X65067812Y-46417190D01*
X65182906Y-46503350D01*
X65182913Y-46503354D01*
X65317620Y-46553596D01*
X65317619Y-46553596D01*
X65400444Y-46562501D01*
X65400116Y-46565550D01*
X65417014Y-46564642D01*
X65476196Y-46597642D01*
X66145591Y-47267037D01*
X66082007Y-47284075D01*
X65967993Y-47349901D01*
X65874901Y-47442993D01*
X65809075Y-47557007D01*
X65792037Y-47620591D01*
X65159728Y-46988282D01*
X65159727Y-46988282D01*
X65120380Y-47042440D01*
X65120376Y-47042446D01*
X65115760Y-47051505D01*
X65067781Y-47102297D01*
X64999959Y-47119087D01*
X64933826Y-47096543D01*
X64894794Y-47051493D01*
X64890051Y-47042184D01*
X64890049Y-47042181D01*
X64890048Y-47042179D01*
X64765109Y-46870213D01*
X64614786Y-46719890D01*
X64442820Y-46594951D01*
X64442115Y-46594591D01*
X64434054Y-46590485D01*
X64383259Y-46542512D01*
X64366463Y-46474692D01*
X64388999Y-46408556D01*
X64434054Y-46369515D01*
X64442816Y-46365051D01*
X64529478Y-46302088D01*
X64614784Y-46240110D01*
X64614784Y-46240109D01*
X64614792Y-46240104D01*
X64728717Y-46126178D01*
X64790036Y-46092696D01*
X64859728Y-46097680D01*
G37*
%TD.AperFunction*%
%TA.AperFunction,Conductor*%
G36*
X68003032Y-12500648D02*
G01*
X68336929Y-12517052D01*
X68349037Y-12518245D01*
X68452146Y-12533539D01*
X68676699Y-12566849D01*
X68688617Y-12569219D01*
X69009951Y-12649709D01*
X69021588Y-12653240D01*
X69092806Y-12678722D01*
X69333467Y-12764832D01*
X69344688Y-12769479D01*
X69644163Y-12911120D01*
X69654871Y-12916844D01*
X69867058Y-13044024D01*
X69938988Y-13087137D01*
X69949103Y-13093895D01*
X70169913Y-13257659D01*
X70215170Y-13291224D01*
X70224576Y-13298944D01*
X70470013Y-13521395D01*
X70478604Y-13529986D01*
X70550939Y-13609795D01*
X70701055Y-13775423D01*
X70708775Y-13784829D01*
X70906102Y-14050893D01*
X70912862Y-14061011D01*
X71041776Y-14276092D01*
X71083148Y-14345116D01*
X71088883Y-14355844D01*
X71210314Y-14612589D01*
X71230514Y-14655297D01*
X71235170Y-14666540D01*
X71346759Y-14978411D01*
X71350292Y-14990055D01*
X71430777Y-15311369D01*
X71433151Y-15323305D01*
X71481754Y-15650962D01*
X71482947Y-15663071D01*
X71499351Y-15996966D01*
X71499500Y-16003051D01*
X71499500Y-52996948D01*
X71499351Y-53003033D01*
X71482947Y-53336928D01*
X71481754Y-53349037D01*
X71433151Y-53676694D01*
X71430777Y-53688630D01*
X71350292Y-54009944D01*
X71346759Y-54021588D01*
X71235170Y-54333459D01*
X71230514Y-54344702D01*
X71088885Y-54644151D01*
X71083148Y-54654883D01*
X70912862Y-54938988D01*
X70906102Y-54949106D01*
X70708775Y-55215170D01*
X70701055Y-55224576D01*
X70478611Y-55470006D01*
X70470006Y-55478611D01*
X70224576Y-55701055D01*
X70215170Y-55708775D01*
X69949106Y-55906102D01*
X69938988Y-55912862D01*
X69654883Y-56083148D01*
X69644151Y-56088885D01*
X69344702Y-56230514D01*
X69333459Y-56235170D01*
X69021588Y-56346759D01*
X69009944Y-56350292D01*
X68688630Y-56430777D01*
X68676694Y-56433151D01*
X68349037Y-56481754D01*
X68336928Y-56482947D01*
X68021989Y-56498419D01*
X68003031Y-56499351D01*
X67996949Y-56499500D01*
X16003051Y-56499500D01*
X15996968Y-56499351D01*
X15976900Y-56498365D01*
X15663071Y-56482947D01*
X15650962Y-56481754D01*
X15323305Y-56433151D01*
X15311369Y-56430777D01*
X14990055Y-56350292D01*
X14978411Y-56346759D01*
X14666540Y-56235170D01*
X14655301Y-56230515D01*
X14355844Y-56088883D01*
X14345121Y-56083150D01*
X14061011Y-55912862D01*
X14050893Y-55906102D01*
X13784829Y-55708775D01*
X13775423Y-55701055D01*
X13736475Y-55665755D01*
X13529986Y-55478604D01*
X13521395Y-55470013D01*
X13298944Y-55224576D01*
X13291224Y-55215170D01*
X13183343Y-55069709D01*
X13093895Y-54949103D01*
X13087137Y-54938988D01*
X13075470Y-54919523D01*
X12916844Y-54654871D01*
X12911120Y-54644163D01*
X12769479Y-54344688D01*
X12764829Y-54333459D01*
X12763600Y-54330025D01*
X12653240Y-54021588D01*
X12649707Y-54009944D01*
X12634297Y-53948422D01*
X12569219Y-53688617D01*
X12566848Y-53676694D01*
X12518245Y-53349037D01*
X12517052Y-53336927D01*
X12500649Y-53003032D01*
X12500500Y-52996948D01*
X12500500Y-45103713D01*
X17384500Y-45103713D01*
X17384500Y-45316287D01*
X17417754Y-45526243D01*
X17442413Y-45602136D01*
X17483444Y-45728414D01*
X17579951Y-45917820D01*
X17704890Y-46089786D01*
X17855213Y-46240109D01*
X18027182Y-46365050D01*
X18035946Y-46369516D01*
X18086742Y-46417491D01*
X18103536Y-46485312D01*
X18080998Y-46551447D01*
X18035946Y-46590484D01*
X18027182Y-46594949D01*
X17855213Y-46719890D01*
X17704890Y-46870213D01*
X17579951Y-47042179D01*
X17483444Y-47231585D01*
X17417753Y-47433760D01*
X17402585Y-47529527D01*
X17384500Y-47643713D01*
X17384500Y-47856287D01*
X17394534Y-47919644D01*
X17417735Y-48066127D01*
X17417754Y-48066243D01*
X17432043Y-48110221D01*
X17483444Y-48268414D01*
X17579951Y-48457820D01*
X17704890Y-48629786D01*
X17855213Y-48780109D01*
X18027182Y-48905050D01*
X18035946Y-48909516D01*
X18086742Y-48957491D01*
X18103536Y-49025312D01*
X18080998Y-49091447D01*
X18035946Y-49130484D01*
X18027182Y-49134949D01*
X17855213Y-49259890D01*
X17704890Y-49410213D01*
X17579951Y-49582179D01*
X17483444Y-49771585D01*
X17417753Y-49973760D01*
X17384500Y-50183713D01*
X17384500Y-50396286D01*
X17417735Y-50606127D01*
X17417754Y-50606243D01*
X17483275Y-50807896D01*
X17483444Y-50808414D01*
X17579951Y-50997820D01*
X17704890Y-51169786D01*
X17855213Y-51320109D01*
X18027179Y-51445048D01*
X18027181Y-51445049D01*
X18027184Y-51445051D01*
X18216588Y-51541557D01*
X18418757Y-51607246D01*
X18628713Y-51640500D01*
X18628714Y-51640500D01*
X18841286Y-51640500D01*
X18841287Y-51640500D01*
X19051243Y-51607246D01*
X19253412Y-51541557D01*
X19442816Y-51445051D01*
X19487805Y-51412365D01*
X19614786Y-51320109D01*
X19614788Y-51320106D01*
X19614792Y-51320104D01*
X19765104Y-51169792D01*
X19765106Y-51169788D01*
X19765109Y-51169786D01*
X19850890Y-51051717D01*
X19890051Y-50997816D01*
X19894793Y-50988508D01*
X19942763Y-50937711D01*
X20010583Y-50920911D01*
X20076719Y-50943445D01*
X20115763Y-50988500D01*
X20120373Y-50997547D01*
X20159728Y-51051716D01*
X20792037Y-50419408D01*
X20809075Y-50482993D01*
X20874901Y-50597007D01*
X20967993Y-50690099D01*
X21082007Y-50755925D01*
X21145590Y-50772962D01*
X20513282Y-51405269D01*
X20513282Y-51405270D01*
X20567449Y-51444624D01*
X20756782Y-51541095D01*
X20958870Y-51606757D01*
X21168754Y-51640000D01*
X21381246Y-51640000D01*
X21591127Y-51606757D01*
X21591130Y-51606757D01*
X21793217Y-51541095D01*
X21982554Y-51444622D01*
X22036716Y-51405270D01*
X22036717Y-51405270D01*
X21404408Y-50772962D01*
X21467993Y-50755925D01*
X21582007Y-50690099D01*
X21675099Y-50597007D01*
X21740925Y-50482993D01*
X21757962Y-50419408D01*
X22390270Y-51051717D01*
X22390270Y-51051716D01*
X22429622Y-50997554D01*
X22526095Y-50808217D01*
X22591757Y-50606130D01*
X22591757Y-50606127D01*
X22625000Y-50396246D01*
X22625000Y-50183753D01*
X22591757Y-49973872D01*
X22591757Y-49973869D01*
X22526095Y-49771782D01*
X22429624Y-49582449D01*
X22390270Y-49528282D01*
X22390269Y-49528282D01*
X21757962Y-50160590D01*
X21740925Y-50097007D01*
X21675099Y-49982993D01*
X21582007Y-49889901D01*
X21467993Y-49824075D01*
X21404409Y-49807037D01*
X22036716Y-49174728D01*
X21982550Y-49135375D01*
X21972954Y-49130486D01*
X21922157Y-49082512D01*
X21905361Y-49014692D01*
X21927897Y-48948556D01*
X21972954Y-48909514D01*
X21982554Y-48904622D01*
X22036716Y-48865270D01*
X22036717Y-48865270D01*
X21404408Y-48232962D01*
X21467993Y-48215925D01*
X21582007Y-48150099D01*
X21675099Y-48057007D01*
X21740925Y-47942993D01*
X21757962Y-47879408D01*
X22390270Y-48511717D01*
X22390270Y-48511716D01*
X22429622Y-48457554D01*
X22526095Y-48268217D01*
X22591757Y-48066130D01*
X22591757Y-48066127D01*
X22625000Y-47856246D01*
X22625000Y-47643753D01*
X22591757Y-47433872D01*
X22591757Y-47433869D01*
X22526095Y-47231782D01*
X22429624Y-47042449D01*
X22390270Y-46988282D01*
X22390269Y-46988282D01*
X21757962Y-47620590D01*
X21740925Y-47557007D01*
X21675099Y-47442993D01*
X21582007Y-47349901D01*
X21467993Y-47284075D01*
X21404409Y-47267037D01*
X22073802Y-46597642D01*
X22135125Y-46564157D01*
X22149833Y-46565078D01*
X22149556Y-46562501D01*
X22232375Y-46553598D01*
X22367086Y-46503354D01*
X22367093Y-46503350D01*
X22482187Y-46417190D01*
X22482190Y-46417187D01*
X22568350Y-46302093D01*
X22568354Y-46302086D01*
X22618596Y-46167379D01*
X22618598Y-46167372D01*
X22624999Y-46107844D01*
X22625000Y-46107827D01*
X22625000Y-45460000D01*
X21708012Y-45460000D01*
X21740925Y-45402993D01*
X21775000Y-45275826D01*
X21775000Y-45144174D01*
X21740925Y-45017007D01*
X21708012Y-44960000D01*
X22625000Y-44960000D01*
X22625000Y-44312172D01*
X22624999Y-44312155D01*
X22618598Y-44252627D01*
X22618596Y-44252620D01*
X22568354Y-44117913D01*
X22568350Y-44117906D01*
X22482190Y-44002812D01*
X22482187Y-44002809D01*
X22367093Y-43916649D01*
X22367086Y-43916645D01*
X22232379Y-43866403D01*
X22232372Y-43866401D01*
X22172844Y-43860000D01*
X21525000Y-43860000D01*
X21525000Y-44776988D01*
X21467993Y-44744075D01*
X21340826Y-44710000D01*
X21209174Y-44710000D01*
X21082007Y-44744075D01*
X21025000Y-44776988D01*
X21025000Y-43860000D01*
X20377155Y-43860000D01*
X20317627Y-43866401D01*
X20317620Y-43866403D01*
X20182913Y-43916645D01*
X20182906Y-43916649D01*
X20067812Y-44002809D01*
X20067809Y-44002812D01*
X19981649Y-44117906D01*
X19981646Y-44117912D01*
X19932577Y-44249471D01*
X19890705Y-44305404D01*
X19825241Y-44329821D01*
X19756968Y-44314969D01*
X19728714Y-44293818D01*
X19614786Y-44179890D01*
X19442820Y-44054951D01*
X19253414Y-43958444D01*
X19253413Y-43958443D01*
X19253412Y-43958443D01*
X19051243Y-43892754D01*
X19051241Y-43892753D01*
X19051240Y-43892753D01*
X18889957Y-43867208D01*
X18841287Y-43859500D01*
X18628713Y-43859500D01*
X18580042Y-43867208D01*
X18418760Y-43892753D01*
X18216585Y-43958444D01*
X18027179Y-44054951D01*
X17855213Y-44179890D01*
X17704890Y-44330213D01*
X17579951Y-44502179D01*
X17483444Y-44691585D01*
X17417753Y-44893760D01*
X17416291Y-44902993D01*
X17384500Y-45103713D01*
X12500500Y-45103713D01*
X12500500Y-36952135D01*
X16999500Y-36952135D01*
X16999500Y-39047870D01*
X16999501Y-39047876D01*
X17005908Y-39107483D01*
X17056202Y-39242328D01*
X17056206Y-39242335D01*
X17142452Y-39357544D01*
X17142455Y-39357547D01*
X17257664Y-39443793D01*
X17257671Y-39443797D01*
X17392517Y-39494091D01*
X17392516Y-39494091D01*
X17399444Y-39494835D01*
X17452127Y-39500500D01*
X19547872Y-39500499D01*
X19607483Y-39494091D01*
X19742331Y-39443796D01*
X19857546Y-39357546D01*
X19943796Y-39242331D01*
X19994091Y-39107483D01*
X20000500Y-39047873D01*
X20000499Y-36952128D01*
X19994091Y-36892517D01*
X19943796Y-36757669D01*
X19943795Y-36757668D01*
X19943793Y-36757664D01*
X19857547Y-36642455D01*
X19857544Y-36642452D01*
X19742335Y-36556206D01*
X19742328Y-36556202D01*
X19607482Y-36505908D01*
X19607483Y-36505908D01*
X19547883Y-36499501D01*
X19547881Y-36499500D01*
X19547873Y-36499500D01*
X19547864Y-36499500D01*
X17452129Y-36499500D01*
X17452123Y-36499501D01*
X17392516Y-36505908D01*
X17257671Y-36556202D01*
X17257664Y-36556206D01*
X17142455Y-36642452D01*
X17142452Y-36642455D01*
X17056206Y-36757664D01*
X17056202Y-36757671D01*
X17005908Y-36892517D01*
X16999501Y-36952116D01*
X16999501Y-36952123D01*
X16999500Y-36952135D01*
X12500500Y-36952135D01*
X12500500Y-35853712D01*
X42399500Y-35853712D01*
X42399500Y-36066286D01*
X42417517Y-36180045D01*
X42432754Y-36276243D01*
X42478607Y-36417364D01*
X42498444Y-36478414D01*
X42594951Y-36667820D01*
X42719890Y-36839786D01*
X42870213Y-36990109D01*
X43042182Y-37115050D01*
X43050946Y-37119516D01*
X43101742Y-37167491D01*
X43118536Y-37235312D01*
X43095998Y-37301447D01*
X43050946Y-37340484D01*
X43042182Y-37344949D01*
X42870213Y-37469890D01*
X42719890Y-37620213D01*
X42594951Y-37792179D01*
X42498444Y-37981585D01*
X42432753Y-38183760D01*
X42399500Y-38393713D01*
X42399500Y-38606286D01*
X42432753Y-38816239D01*
X42498444Y-39018414D01*
X42594951Y-39207820D01*
X42719890Y-39379786D01*
X42833430Y-39493326D01*
X42866915Y-39554649D01*
X42861931Y-39624341D01*
X42820059Y-39680274D01*
X42789083Y-39697189D01*
X42657669Y-39746203D01*
X42657664Y-39746206D01*
X42542455Y-39832452D01*
X42542452Y-39832455D01*
X42456206Y-39947664D01*
X42456202Y-39947671D01*
X42405908Y-40082517D01*
X42399501Y-40142116D01*
X42399501Y-40142123D01*
X42399500Y-40142135D01*
X42399500Y-41937870D01*
X42399501Y-41937876D01*
X42405908Y-41997483D01*
X42456202Y-42132328D01*
X42456206Y-42132335D01*
X42542452Y-42247544D01*
X42542455Y-42247547D01*
X42657664Y-42333793D01*
X42657671Y-42333797D01*
X42792517Y-42384091D01*
X42792516Y-42384091D01*
X42799444Y-42384835D01*
X42852127Y-42390500D01*
X44647872Y-42390499D01*
X44707483Y-42384091D01*
X44842331Y-42333796D01*
X44957546Y-42247546D01*
X45043796Y-42132331D01*
X45094091Y-41997483D01*
X45100500Y-41937873D01*
X45100499Y-40142128D01*
X45094091Y-40082517D01*
X45043796Y-39947669D01*
X45043795Y-39947668D01*
X45043793Y-39947664D01*
X44957547Y-39832455D01*
X44957544Y-39832452D01*
X44842335Y-39746206D01*
X44842328Y-39746202D01*
X44710917Y-39697189D01*
X44654983Y-39655318D01*
X44630566Y-39589853D01*
X44645418Y-39521580D01*
X44666563Y-39493332D01*
X44780104Y-39379792D01*
X44905051Y-39207816D01*
X45001557Y-39018412D01*
X45067246Y-38816243D01*
X45100500Y-38606287D01*
X45100500Y-38393713D01*
X45067246Y-38183757D01*
X45001557Y-37981588D01*
X44905051Y-37792184D01*
X44905049Y-37792181D01*
X44905048Y-37792179D01*
X44780109Y-37620213D01*
X44629786Y-37469890D01*
X44457820Y-37344951D01*
X44457115Y-37344591D01*
X44449054Y-37340485D01*
X44398259Y-37292512D01*
X44381463Y-37224692D01*
X44403999Y-37158556D01*
X44449054Y-37119515D01*
X44457816Y-37115051D01*
X44479789Y-37099086D01*
X44629786Y-36990109D01*
X44629788Y-36990106D01*
X44629792Y-36990104D01*
X44780104Y-36839792D01*
X44780106Y-36839788D01*
X44780109Y-36839786D01*
X44905048Y-36667820D01*
X44905047Y-36667820D01*
X44905051Y-36667816D01*
X45001557Y-36478412D01*
X45067246Y-36276243D01*
X45100500Y-36066287D01*
X45100500Y-35853713D01*
X45067246Y-35643757D01*
X45001557Y-35441588D01*
X44905051Y-35252184D01*
X44905049Y-35252181D01*
X44905048Y-35252179D01*
X44780109Y-35080213D01*
X44629786Y-34929890D01*
X44457820Y-34804951D01*
X44268414Y-34708444D01*
X44268413Y-34708443D01*
X44268412Y-34708443D01*
X44066243Y-34642754D01*
X44066241Y-34642753D01*
X44066240Y-34642753D01*
X43904957Y-34617208D01*
X43856287Y-34609500D01*
X43643713Y-34609500D01*
X43595042Y-34617208D01*
X43433760Y-34642753D01*
X43231585Y-34708444D01*
X43042179Y-34804951D01*
X42870213Y-34929890D01*
X42719890Y-35080213D01*
X42594951Y-35252179D01*
X42498444Y-35441585D01*
X42432753Y-35643760D01*
X42399500Y-35853712D01*
X12500500Y-35853712D01*
X12500500Y-32102135D01*
X13899500Y-32102135D01*
X13899500Y-33897870D01*
X13899501Y-33897876D01*
X13905908Y-33957483D01*
X13956202Y-34092328D01*
X13956206Y-34092335D01*
X14042452Y-34207544D01*
X14042455Y-34207547D01*
X14157664Y-34293793D01*
X14157671Y-34293797D01*
X14292517Y-34344091D01*
X14292516Y-34344091D01*
X14299444Y-34344835D01*
X14352127Y-34350500D01*
X16147872Y-34350499D01*
X16207483Y-34344091D01*
X16342331Y-34293796D01*
X16457546Y-34207546D01*
X16543796Y-34092331D01*
X16592810Y-33960916D01*
X16634681Y-33904984D01*
X16700145Y-33880566D01*
X16768418Y-33895417D01*
X16796673Y-33916569D01*
X16910213Y-34030109D01*
X17082179Y-34155048D01*
X17082181Y-34155049D01*
X17082184Y-34155051D01*
X17271588Y-34251557D01*
X17473757Y-34317246D01*
X17683713Y-34350500D01*
X17683714Y-34350500D01*
X17896286Y-34350500D01*
X17896287Y-34350500D01*
X18106243Y-34317246D01*
X18308412Y-34251557D01*
X18497816Y-34155051D01*
X18584138Y-34092335D01*
X18669786Y-34030109D01*
X18669788Y-34030106D01*
X18669792Y-34030104D01*
X18820104Y-33879792D01*
X18820106Y-33879788D01*
X18820109Y-33879786D01*
X18945048Y-33707820D01*
X18945047Y-33707820D01*
X18945051Y-33707816D01*
X19041557Y-33518412D01*
X19107246Y-33316243D01*
X19140500Y-33106287D01*
X19140500Y-32893713D01*
X19107246Y-32683757D01*
X19041557Y-32481588D01*
X18945051Y-32292184D01*
X18945049Y-32292181D01*
X18945048Y-32292179D01*
X18820109Y-32120213D01*
X18762077Y-32062181D01*
X18728592Y-32000858D01*
X18733576Y-31931166D01*
X18775448Y-31875233D01*
X18840912Y-31850816D01*
X18849758Y-31850500D01*
X20841859Y-31850500D01*
X20841875Y-31850501D01*
X20849471Y-31850501D01*
X21007582Y-31850501D01*
X21007585Y-31850501D01*
X21160313Y-31809577D01*
X21210432Y-31780639D01*
X21297244Y-31730520D01*
X21409048Y-31618716D01*
X21409048Y-31618714D01*
X21419256Y-31608507D01*
X21419257Y-31608504D01*
X25075627Y-27952135D01*
X39249500Y-27952135D01*
X39249500Y-30047870D01*
X39249501Y-30047876D01*
X39255908Y-30107483D01*
X39306202Y-30242328D01*
X39306206Y-30242335D01*
X39392452Y-30357544D01*
X39392455Y-30357547D01*
X39507664Y-30443793D01*
X39507671Y-30443797D01*
X39642517Y-30494091D01*
X39642516Y-30494091D01*
X39649444Y-30494835D01*
X39702127Y-30500500D01*
X41797872Y-30500499D01*
X41857483Y-30494091D01*
X41992331Y-30443796D01*
X42107546Y-30357546D01*
X42193796Y-30242331D01*
X42244091Y-30107483D01*
X42250500Y-30047873D01*
X42250499Y-27952128D01*
X42244091Y-27892517D01*
X42235242Y-27868792D01*
X42193797Y-27757671D01*
X42193793Y-27757664D01*
X42107547Y-27642455D01*
X42107544Y-27642452D01*
X41992335Y-27556206D01*
X41992328Y-27556202D01*
X41857482Y-27505908D01*
X41857483Y-27505908D01*
X41797883Y-27499501D01*
X41797881Y-27499500D01*
X41797873Y-27499500D01*
X41797864Y-27499500D01*
X39702129Y-27499500D01*
X39702123Y-27499501D01*
X39642516Y-27505908D01*
X39507671Y-27556202D01*
X39507664Y-27556206D01*
X39392455Y-27642452D01*
X39392452Y-27642455D01*
X39306206Y-27757664D01*
X39306202Y-27757671D01*
X39255908Y-27892517D01*
X39251003Y-27938144D01*
X39249501Y-27952123D01*
X39249500Y-27952135D01*
X25075627Y-27952135D01*
X27356610Y-25671153D01*
X36699500Y-25671153D01*
X36699500Y-25828846D01*
X36730261Y-25983489D01*
X36730264Y-25983501D01*
X36790602Y-26129172D01*
X36790609Y-26129185D01*
X36878210Y-26260288D01*
X36878213Y-26260292D01*
X36989707Y-26371786D01*
X36989711Y-26371789D01*
X37120814Y-26459390D01*
X37120827Y-26459397D01*
X37266498Y-26519735D01*
X37266503Y-26519737D01*
X37418659Y-26550003D01*
X37421153Y-26550499D01*
X37421156Y-26550500D01*
X37421158Y-26550500D01*
X37578846Y-26550500D01*
X37583893Y-26550003D01*
X37652538Y-26563023D01*
X37703248Y-26611089D01*
X37705403Y-26614955D01*
X37705714Y-26615537D01*
X37793320Y-26746648D01*
X37793323Y-26746652D01*
X37904817Y-26858146D01*
X37904821Y-26858149D01*
X38035924Y-26945750D01*
X38035937Y-26945757D01*
X38168965Y-27000858D01*
X38181613Y-27006097D01*
X38336263Y-27036859D01*
X38336266Y-27036860D01*
X38336268Y-27036860D01*
X38493954Y-27036860D01*
X38493955Y-27036859D01*
X38648607Y-27006097D01*
X38794289Y-26945754D01*
X38806440Y-26937635D01*
X38905571Y-26871398D01*
X38972248Y-26850520D01*
X38974462Y-26850500D01*
X43132962Y-26850500D01*
X43200001Y-26870185D01*
X43245756Y-26922989D01*
X43255700Y-26992147D01*
X43254579Y-26998692D01*
X43224500Y-27149905D01*
X43224500Y-27307596D01*
X43255261Y-27462239D01*
X43255264Y-27462251D01*
X43315602Y-27607922D01*
X43315609Y-27607935D01*
X43403210Y-27739038D01*
X43403213Y-27739042D01*
X43514707Y-27850536D01*
X43514711Y-27850539D01*
X43645814Y-27938140D01*
X43645827Y-27938147D01*
X43699122Y-27960222D01*
X43791503Y-27998487D01*
X43946153Y-28029249D01*
X43946156Y-28029250D01*
X43946158Y-28029250D01*
X44103844Y-28029250D01*
X44103845Y-28029249D01*
X44258497Y-27998487D01*
X44404179Y-27938144D01*
X44404185Y-27938140D01*
X44535875Y-27850148D01*
X44602553Y-27829270D01*
X44604766Y-27829250D01*
X45810024Y-27829250D01*
X45877063Y-27848935D01*
X45897705Y-27865569D01*
X52069955Y-34037819D01*
X52103440Y-34099142D01*
X52098456Y-34168834D01*
X52056584Y-34224767D01*
X51991120Y-34249184D01*
X51982274Y-34249500D01*
X51401457Y-34249500D01*
X51208170Y-34287947D01*
X51208160Y-34287950D01*
X51026092Y-34363364D01*
X51026079Y-34363371D01*
X50862218Y-34472860D01*
X50862214Y-34472863D01*
X50722863Y-34612214D01*
X50722860Y-34612218D01*
X50613371Y-34776079D01*
X50613364Y-34776092D01*
X50537950Y-34958160D01*
X50537947Y-34958170D01*
X50499500Y-35151456D01*
X50499500Y-36784217D01*
X50479815Y-36851256D01*
X50463181Y-36871898D01*
X50382963Y-36952116D01*
X50362221Y-36972858D01*
X50362218Y-36972861D01*
X50293250Y-37041829D01*
X50222859Y-37112219D01*
X50113371Y-37276079D01*
X50113366Y-37276088D01*
X50067102Y-37387782D01*
X50037950Y-37458159D01*
X50037949Y-37458163D01*
X50037949Y-37458164D01*
X50024229Y-37527139D01*
X50024229Y-37527140D01*
X49999500Y-37651456D01*
X49999500Y-46551959D01*
X49979815Y-46618998D01*
X49963181Y-46639640D01*
X46702750Y-49900070D01*
X46641427Y-49933555D01*
X46571735Y-49928571D01*
X46515802Y-49886699D01*
X46504584Y-49868683D01*
X46452390Y-49766246D01*
X46406065Y-49702485D01*
X45856049Y-50252501D01*
X45831032Y-50192104D01*
X45759896Y-50085642D01*
X45669358Y-49995104D01*
X45562896Y-49923968D01*
X45502495Y-49898949D01*
X46052513Y-49348932D01*
X45988756Y-49302611D01*
X45792410Y-49202567D01*
X45582835Y-49134473D01*
X45365181Y-49100000D01*
X45144819Y-49100000D01*
X44927164Y-49134473D01*
X44717589Y-49202567D01*
X44521233Y-49302616D01*
X44457485Y-49348931D01*
X44457485Y-49348932D01*
X45007503Y-49898950D01*
X44947104Y-49923968D01*
X44840642Y-49995104D01*
X44750104Y-50085642D01*
X44678968Y-50192104D01*
X44653950Y-50252503D01*
X44103932Y-49702485D01*
X44103931Y-49702485D01*
X44057616Y-49766233D01*
X43957567Y-49962589D01*
X43889473Y-50172164D01*
X43855000Y-50389818D01*
X43855000Y-50610181D01*
X43889473Y-50827835D01*
X43957567Y-51037410D01*
X44057613Y-51233760D01*
X44107639Y-51302614D01*
X44131119Y-51368420D01*
X44115294Y-51436474D01*
X44065188Y-51485169D01*
X44007321Y-51499500D01*
X42720782Y-51499500D01*
X42653743Y-51479815D01*
X42633101Y-51463181D01*
X41691819Y-50521899D01*
X41658334Y-50460576D01*
X41655500Y-50434218D01*
X41655500Y-50389778D01*
X41621015Y-50172049D01*
X41559588Y-49982993D01*
X41552896Y-49962396D01*
X41552895Y-49962393D01*
X41482417Y-49824075D01*
X41452815Y-49765978D01*
X41406408Y-49702104D01*
X41323247Y-49587641D01*
X41323243Y-49587636D01*
X41167363Y-49431756D01*
X41167358Y-49431752D01*
X40989025Y-49302187D01*
X40989024Y-49302186D01*
X40989022Y-49302185D01*
X40906026Y-49259896D01*
X40792606Y-49202104D01*
X40792603Y-49202103D01*
X40582952Y-49133985D01*
X40474086Y-49116742D01*
X40365222Y-49099500D01*
X40144778Y-49099500D01*
X40072201Y-49110995D01*
X39927047Y-49133985D01*
X39717396Y-49202103D01*
X39717393Y-49202104D01*
X39520974Y-49302187D01*
X39342641Y-49431752D01*
X39342636Y-49431756D01*
X39186756Y-49587636D01*
X39186752Y-49587641D01*
X39057187Y-49765974D01*
X38957104Y-49962393D01*
X38957103Y-49962396D01*
X38888985Y-50172047D01*
X38880729Y-50224174D01*
X38854500Y-50389778D01*
X38854500Y-50610222D01*
X38867072Y-50689601D01*
X38888985Y-50827952D01*
X38957103Y-51037603D01*
X38957104Y-51037606D01*
X39057187Y-51234025D01*
X39186752Y-51412358D01*
X39186756Y-51412363D01*
X39342636Y-51568243D01*
X39342641Y-51568247D01*
X39441402Y-51640000D01*
X39520978Y-51697815D01*
X39649375Y-51763237D01*
X39717393Y-51797895D01*
X39717396Y-51797896D01*
X39822221Y-51831955D01*
X39927049Y-51866015D01*
X40144778Y-51900500D01*
X40189218Y-51900500D01*
X40256257Y-51920185D01*
X40276899Y-51936819D01*
X41474735Y-53134655D01*
X41474764Y-53134686D01*
X41617214Y-53277136D01*
X41617218Y-53277139D01*
X41781079Y-53386628D01*
X41781092Y-53386635D01*
X41909833Y-53439961D01*
X41963159Y-53462049D01*
X41963164Y-53462051D01*
X41984988Y-53466392D01*
X42027855Y-53474919D01*
X42156456Y-53500500D01*
X42156459Y-53500500D01*
X45616285Y-53500500D01*
X45730597Y-53477761D01*
X45787754Y-53466392D01*
X45809578Y-53462051D01*
X45862907Y-53439961D01*
X45991656Y-53386632D01*
X46155524Y-53277139D01*
X46294881Y-53137782D01*
X46294881Y-53137780D01*
X46305089Y-53127573D01*
X46305090Y-53127570D01*
X51777140Y-47655523D01*
X51886632Y-47491656D01*
X51962052Y-47309577D01*
X52000501Y-47116282D01*
X52000501Y-46919201D01*
X52000501Y-46914091D01*
X52000500Y-46914065D01*
X52000500Y-45658431D01*
X52020185Y-45591392D01*
X52072989Y-45545637D01*
X52142147Y-45535693D01*
X52205703Y-45564718D01*
X52234985Y-45602136D01*
X52302187Y-45734025D01*
X52431752Y-45912358D01*
X52431756Y-45912363D01*
X52587636Y-46068243D01*
X52587641Y-46068247D01*
X52724086Y-46167379D01*
X52765978Y-46197815D01*
X52848984Y-46240109D01*
X52962393Y-46297895D01*
X52962396Y-46297896D01*
X53067221Y-46331955D01*
X53172049Y-46366015D01*
X53235001Y-46375985D01*
X53244732Y-46377527D01*
X53307867Y-46407456D01*
X53344798Y-46466768D01*
X53343800Y-46536630D01*
X53305190Y-46594863D01*
X53244732Y-46622473D01*
X53172047Y-46633985D01*
X52962396Y-46702103D01*
X52962393Y-46702104D01*
X52765974Y-46802187D01*
X52587641Y-46931752D01*
X52587636Y-46931756D01*
X52431756Y-47087636D01*
X52431752Y-47087641D01*
X52302187Y-47265974D01*
X52202104Y-47462393D01*
X52202103Y-47462396D01*
X52133985Y-47672047D01*
X52099500Y-47889778D01*
X52099500Y-48110221D01*
X52133985Y-48327952D01*
X52202103Y-48537603D01*
X52202104Y-48537606D01*
X52302187Y-48734025D01*
X52431752Y-48912358D01*
X52431756Y-48912363D01*
X52587636Y-49068243D01*
X52587641Y-49068247D01*
X52680036Y-49135375D01*
X52765978Y-49197815D01*
X52887806Y-49259890D01*
X52962393Y-49297895D01*
X52962396Y-49297896D01*
X53067221Y-49331955D01*
X53172049Y-49366015D01*
X53235001Y-49375985D01*
X53244732Y-49377527D01*
X53307867Y-49407456D01*
X53344798Y-49466768D01*
X53343800Y-49536630D01*
X53305190Y-49594863D01*
X53244732Y-49622473D01*
X53172047Y-49633985D01*
X52962396Y-49702103D01*
X52962393Y-49702104D01*
X52765974Y-49802187D01*
X52587641Y-49931752D01*
X52587636Y-49931756D01*
X52431756Y-50087636D01*
X52431752Y-50087641D01*
X52302187Y-50265974D01*
X52202104Y-50462393D01*
X52202103Y-50462396D01*
X52133985Y-50672047D01*
X52099500Y-50889778D01*
X52099500Y-51110221D01*
X52133985Y-51327952D01*
X52202103Y-51537603D01*
X52202104Y-51537606D01*
X52270122Y-51671096D01*
X52283736Y-51697815D01*
X52302187Y-51734025D01*
X52431752Y-51912358D01*
X52431756Y-51912363D01*
X52587636Y-52068243D01*
X52587641Y-52068247D01*
X52743192Y-52181260D01*
X52765978Y-52197815D01*
X52894375Y-52263237D01*
X52962393Y-52297895D01*
X52962396Y-52297896D01*
X53146053Y-52357569D01*
X53203728Y-52397006D01*
X53230927Y-52461365D01*
X53219013Y-52530211D01*
X53171769Y-52581687D01*
X53107735Y-52599500D01*
X52901578Y-52599500D01*
X52707173Y-52630290D01*
X52519970Y-52691117D01*
X52344594Y-52780476D01*
X52253741Y-52846485D01*
X52185354Y-52896172D01*
X52185352Y-52896174D01*
X52185351Y-52896174D01*
X52046174Y-53035351D01*
X52046174Y-53035352D01*
X52046172Y-53035354D01*
X51996485Y-53103741D01*
X51930476Y-53194594D01*
X51841117Y-53369970D01*
X51780290Y-53557173D01*
X51749500Y-53751577D01*
X51749500Y-53948422D01*
X51780290Y-54142826D01*
X51841117Y-54330029D01*
X51930476Y-54505405D01*
X52046172Y-54664646D01*
X52185354Y-54803828D01*
X52344595Y-54919524D01*
X52427455Y-54961743D01*
X52519970Y-55008882D01*
X52519972Y-55008882D01*
X52519975Y-55008884D01*
X52620317Y-55041487D01*
X52707173Y-55069709D01*
X52901578Y-55100500D01*
X52901583Y-55100500D01*
X54098422Y-55100500D01*
X54292826Y-55069709D01*
X54480025Y-55008884D01*
X54655405Y-54919524D01*
X54814646Y-54803828D01*
X54953828Y-54664646D01*
X55069524Y-54505405D01*
X55158884Y-54330025D01*
X55219709Y-54142826D01*
X55239820Y-54015851D01*
X55250500Y-53948422D01*
X55250500Y-53751577D01*
X55219709Y-53557173D01*
X55158882Y-53369970D01*
X55111580Y-53277136D01*
X55069524Y-53194595D01*
X54953828Y-53035354D01*
X54814646Y-52896172D01*
X54655405Y-52780476D01*
X54480029Y-52691117D01*
X54292826Y-52630290D01*
X54098422Y-52599500D01*
X54098417Y-52599500D01*
X53892265Y-52599500D01*
X53825226Y-52579815D01*
X53779471Y-52527011D01*
X53769527Y-52457853D01*
X53798552Y-52394297D01*
X53853947Y-52357569D01*
X54037603Y-52297896D01*
X54037606Y-52297895D01*
X54234022Y-52197815D01*
X54412365Y-52068242D01*
X54568242Y-51912365D01*
X54697815Y-51734022D01*
X54797895Y-51537606D01*
X54866015Y-51327951D01*
X54900500Y-51110222D01*
X54900500Y-50889778D01*
X54866015Y-50672049D01*
X54810114Y-50500000D01*
X54797896Y-50462396D01*
X54797895Y-50462393D01*
X54743595Y-50355826D01*
X54697815Y-50265978D01*
X54644143Y-50192104D01*
X54568247Y-50087641D01*
X54568243Y-50087636D01*
X54412363Y-49931756D01*
X54412358Y-49931752D01*
X54234025Y-49802187D01*
X54234024Y-49802186D01*
X54234022Y-49802185D01*
X54171096Y-49770122D01*
X54037606Y-49702104D01*
X54037603Y-49702103D01*
X53827952Y-49633985D01*
X53755267Y-49622473D01*
X53692133Y-49592544D01*
X53655201Y-49533233D01*
X53656199Y-49463370D01*
X53694809Y-49405137D01*
X53755267Y-49377527D01*
X53827951Y-49366015D01*
X54037606Y-49297895D01*
X54234022Y-49197815D01*
X54412365Y-49068242D01*
X54568242Y-48912365D01*
X54697815Y-48734022D01*
X54797895Y-48537606D01*
X54866015Y-48327951D01*
X54900500Y-48110222D01*
X54900500Y-47889778D01*
X54866015Y-47672049D01*
X54843188Y-47601794D01*
X54841193Y-47531953D01*
X54873436Y-47475797D01*
X55408506Y-46940728D01*
X55408511Y-46940724D01*
X55418714Y-46930520D01*
X55418716Y-46930520D01*
X55530520Y-46818716D01*
X55597845Y-46702105D01*
X55609577Y-46681785D01*
X55650501Y-46529057D01*
X55650501Y-46370943D01*
X55650501Y-46363348D01*
X55650500Y-46363330D01*
X55650500Y-45103713D01*
X62384500Y-45103713D01*
X62384500Y-45316287D01*
X62417754Y-45526243D01*
X62442413Y-45602136D01*
X62483444Y-45728414D01*
X62579951Y-45917820D01*
X62704890Y-46089786D01*
X62855213Y-46240109D01*
X63027182Y-46365050D01*
X63035946Y-46369516D01*
X63086742Y-46417491D01*
X63103536Y-46485312D01*
X63080998Y-46551447D01*
X63035946Y-46590484D01*
X63027182Y-46594949D01*
X62855213Y-46719890D01*
X62704890Y-46870213D01*
X62579951Y-47042179D01*
X62483444Y-47231585D01*
X62417753Y-47433760D01*
X62402585Y-47529527D01*
X62384500Y-47643713D01*
X62384500Y-47856287D01*
X62394534Y-47919644D01*
X62417735Y-48066127D01*
X62417754Y-48066243D01*
X62432043Y-48110221D01*
X62483444Y-48268414D01*
X62579951Y-48457820D01*
X62704890Y-48629786D01*
X62855213Y-48780109D01*
X63027182Y-48905050D01*
X63035946Y-48909516D01*
X63086742Y-48957491D01*
X63103536Y-49025312D01*
X63080998Y-49091447D01*
X63035946Y-49130484D01*
X63027182Y-49134949D01*
X62855213Y-49259890D01*
X62704890Y-49410213D01*
X62579951Y-49582179D01*
X62483444Y-49771585D01*
X62417753Y-49973760D01*
X62384500Y-50183713D01*
X62384500Y-50396286D01*
X62417735Y-50606127D01*
X62417754Y-50606243D01*
X62483275Y-50807896D01*
X62483444Y-50808414D01*
X62579951Y-50997820D01*
X62704890Y-51169786D01*
X62855213Y-51320109D01*
X63027179Y-51445048D01*
X63027181Y-51445049D01*
X63027184Y-51445051D01*
X63216588Y-51541557D01*
X63418757Y-51607246D01*
X63628713Y-51640500D01*
X63628714Y-51640500D01*
X63841286Y-51640500D01*
X63841287Y-51640500D01*
X64051243Y-51607246D01*
X64253412Y-51541557D01*
X64442816Y-51445051D01*
X64487805Y-51412365D01*
X64614786Y-51320109D01*
X64614788Y-51320106D01*
X64614792Y-51320104D01*
X64765104Y-51169792D01*
X64765106Y-51169788D01*
X64765109Y-51169786D01*
X64850890Y-51051717D01*
X64890051Y-50997816D01*
X64894793Y-50988508D01*
X64942763Y-50937711D01*
X65010583Y-50920911D01*
X65076719Y-50943445D01*
X65115763Y-50988500D01*
X65120373Y-50997547D01*
X65159728Y-51051716D01*
X65792037Y-50419408D01*
X65809075Y-50482993D01*
X65874901Y-50597007D01*
X65967993Y-50690099D01*
X66082007Y-50755925D01*
X66145590Y-50772962D01*
X65513282Y-51405269D01*
X65513282Y-51405270D01*
X65567449Y-51444624D01*
X65756782Y-51541095D01*
X65958870Y-51606757D01*
X66168754Y-51640000D01*
X66381246Y-51640000D01*
X66591127Y-51606757D01*
X66591130Y-51606757D01*
X66793217Y-51541095D01*
X66982554Y-51444622D01*
X67036716Y-51405270D01*
X67036717Y-51405270D01*
X66404408Y-50772962D01*
X66467993Y-50755925D01*
X66582007Y-50690099D01*
X66675099Y-50597007D01*
X66740925Y-50482993D01*
X66757962Y-50419408D01*
X67390270Y-51051717D01*
X67390270Y-51051716D01*
X67429622Y-50997554D01*
X67526095Y-50808217D01*
X67591757Y-50606130D01*
X67591757Y-50606127D01*
X67625000Y-50396246D01*
X67625000Y-50183753D01*
X67591757Y-49973872D01*
X67591757Y-49973869D01*
X67526095Y-49771782D01*
X67429624Y-49582449D01*
X67390270Y-49528282D01*
X67390269Y-49528282D01*
X66757962Y-50160590D01*
X66740925Y-50097007D01*
X66675099Y-49982993D01*
X66582007Y-49889901D01*
X66467993Y-49824075D01*
X66404409Y-49807037D01*
X67036716Y-49174728D01*
X66982550Y-49135375D01*
X66972954Y-49130486D01*
X66922157Y-49082512D01*
X66905361Y-49014692D01*
X66927897Y-48948556D01*
X66972954Y-48909514D01*
X66982554Y-48904622D01*
X67036716Y-48865270D01*
X67036717Y-48865270D01*
X66404408Y-48232962D01*
X66467993Y-48215925D01*
X66582007Y-48150099D01*
X66675099Y-48057007D01*
X66740925Y-47942993D01*
X66757962Y-47879408D01*
X67390270Y-48511717D01*
X67390270Y-48511716D01*
X67429622Y-48457554D01*
X67526095Y-48268217D01*
X67591757Y-48066130D01*
X67591757Y-48066127D01*
X67625000Y-47856246D01*
X67625000Y-47643753D01*
X67591757Y-47433872D01*
X67591757Y-47433869D01*
X67526095Y-47231782D01*
X67429624Y-47042449D01*
X67390270Y-46988282D01*
X67390269Y-46988282D01*
X66757962Y-47620590D01*
X66740925Y-47557007D01*
X66675099Y-47442993D01*
X66582007Y-47349901D01*
X66467993Y-47284075D01*
X66404409Y-47267037D01*
X67073802Y-46597642D01*
X67135125Y-46564157D01*
X67149833Y-46565078D01*
X67149556Y-46562501D01*
X67232375Y-46553598D01*
X67367086Y-46503354D01*
X67367093Y-46503350D01*
X67482187Y-46417190D01*
X67482190Y-46417187D01*
X67568350Y-46302093D01*
X67568354Y-46302086D01*
X67618596Y-46167379D01*
X67618598Y-46167372D01*
X67624999Y-46107844D01*
X67625000Y-46107827D01*
X67625000Y-45460000D01*
X66708012Y-45460000D01*
X66740925Y-45402993D01*
X66775000Y-45275826D01*
X66775000Y-45144174D01*
X66740925Y-45017007D01*
X66708012Y-44960000D01*
X67625000Y-44960000D01*
X67625000Y-44312172D01*
X67624999Y-44312155D01*
X67618598Y-44252627D01*
X67618596Y-44252620D01*
X67568354Y-44117913D01*
X67568350Y-44117906D01*
X67482190Y-44002812D01*
X67482187Y-44002809D01*
X67367093Y-43916649D01*
X67367086Y-43916645D01*
X67232379Y-43866403D01*
X67232372Y-43866401D01*
X67172844Y-43860000D01*
X66525000Y-43860000D01*
X66525000Y-44776988D01*
X66467993Y-44744075D01*
X66340826Y-44710000D01*
X66209174Y-44710000D01*
X66082007Y-44744075D01*
X66025000Y-44776988D01*
X66025000Y-43860000D01*
X65377155Y-43860000D01*
X65317627Y-43866401D01*
X65317620Y-43866403D01*
X65182913Y-43916645D01*
X65182906Y-43916649D01*
X65067812Y-44002809D01*
X65067809Y-44002812D01*
X64981649Y-44117906D01*
X64981646Y-44117912D01*
X64932577Y-44249471D01*
X64890705Y-44305404D01*
X64825241Y-44329821D01*
X64756968Y-44314969D01*
X64728714Y-44293818D01*
X64614786Y-44179890D01*
X64442820Y-44054951D01*
X64253414Y-43958444D01*
X64253413Y-43958443D01*
X64253412Y-43958443D01*
X64051243Y-43892754D01*
X64051241Y-43892753D01*
X64051240Y-43892753D01*
X63889957Y-43867208D01*
X63841287Y-43859500D01*
X63628713Y-43859500D01*
X63580042Y-43867208D01*
X63418760Y-43892753D01*
X63216585Y-43958444D01*
X63027179Y-44054951D01*
X62855213Y-44179890D01*
X62704890Y-44330213D01*
X62579951Y-44502179D01*
X62483444Y-44691585D01*
X62417753Y-44893760D01*
X62416291Y-44902993D01*
X62384500Y-45103713D01*
X55650500Y-45103713D01*
X55650500Y-36089574D01*
X55650500Y-36089572D01*
X55621211Y-35980263D01*
X55609577Y-35936844D01*
X55561581Y-35853713D01*
X55530520Y-35799913D01*
X55418716Y-35688109D01*
X55418715Y-35688108D01*
X55414385Y-35683778D01*
X55414374Y-35683768D01*
X46792787Y-27062181D01*
X46759302Y-27000858D01*
X46764286Y-26931166D01*
X46806158Y-26875233D01*
X46871622Y-26850816D01*
X46880468Y-26850500D01*
X66163331Y-26850500D01*
X66163347Y-26850501D01*
X66170943Y-26850501D01*
X66329054Y-26850501D01*
X66329057Y-26850501D01*
X66481785Y-26809577D01*
X66481787Y-26809575D01*
X66481789Y-26809575D01*
X66481790Y-26809574D01*
X66538903Y-26776600D01*
X66538904Y-26776599D01*
X66618716Y-26730520D01*
X66730520Y-26618716D01*
X66730520Y-26618714D01*
X66740724Y-26608511D01*
X66740728Y-26608506D01*
X68462416Y-24886818D01*
X68523739Y-24853333D01*
X68550097Y-24850499D01*
X69897871Y-24850499D01*
X69897872Y-24850499D01*
X69957483Y-24844091D01*
X70092331Y-24793796D01*
X70207546Y-24707546D01*
X70293796Y-24592331D01*
X70344091Y-24457483D01*
X70350500Y-24397873D01*
X70350499Y-22602128D01*
X70344091Y-22542517D01*
X70342810Y-22539083D01*
X70293797Y-22407671D01*
X70293793Y-22407664D01*
X70207547Y-22292455D01*
X70207544Y-22292452D01*
X70092335Y-22206206D01*
X70092328Y-22206202D01*
X69957482Y-22155908D01*
X69957483Y-22155908D01*
X69897883Y-22149501D01*
X69897881Y-22149500D01*
X69897873Y-22149500D01*
X69897864Y-22149500D01*
X68102129Y-22149500D01*
X68102123Y-22149501D01*
X68042516Y-22155908D01*
X67907671Y-22206202D01*
X67907664Y-22206206D01*
X67792455Y-22292452D01*
X67792452Y-22292455D01*
X67706206Y-22407664D01*
X67706203Y-22407669D01*
X67657189Y-22539083D01*
X67615317Y-22595016D01*
X67549853Y-22619433D01*
X67481580Y-22604581D01*
X67453326Y-22583430D01*
X67339786Y-22469890D01*
X67167820Y-22344951D01*
X66978414Y-22248444D01*
X66978413Y-22248443D01*
X66978412Y-22248443D01*
X66776243Y-22182754D01*
X66776241Y-22182753D01*
X66776240Y-22182753D01*
X66614957Y-22157208D01*
X66566287Y-22149500D01*
X66353713Y-22149500D01*
X66305042Y-22157208D01*
X66143760Y-22182753D01*
X66070782Y-22206465D01*
X66033777Y-22218489D01*
X65941585Y-22248444D01*
X65752179Y-22344951D01*
X65580213Y-22469890D01*
X65429890Y-22620213D01*
X65304949Y-22792182D01*
X65300484Y-22800946D01*
X65252509Y-22851742D01*
X65184688Y-22868536D01*
X65118553Y-22845998D01*
X65079516Y-22800946D01*
X65075050Y-22792182D01*
X64950109Y-22620213D01*
X64799786Y-22469890D01*
X64627820Y-22344951D01*
X64438414Y-22248444D01*
X64438413Y-22248443D01*
X64438412Y-22248443D01*
X64236243Y-22182754D01*
X64236241Y-22182753D01*
X64236240Y-22182753D01*
X64074957Y-22157208D01*
X64026287Y-22149500D01*
X63813713Y-22149500D01*
X63765042Y-22157208D01*
X63603760Y-22182753D01*
X63530782Y-22206465D01*
X63493777Y-22218489D01*
X63401585Y-22248444D01*
X63212179Y-22344951D01*
X63040213Y-22469890D01*
X62889890Y-22620213D01*
X62764949Y-22792182D01*
X62760202Y-22801499D01*
X62712227Y-22852293D01*
X62644405Y-22869087D01*
X62578271Y-22846548D01*
X62539234Y-22801495D01*
X62534626Y-22792452D01*
X62495270Y-22738282D01*
X62495269Y-22738282D01*
X61862962Y-23370590D01*
X61845925Y-23307007D01*
X61780099Y-23192993D01*
X61687007Y-23099901D01*
X61572993Y-23034075D01*
X61509409Y-23017037D01*
X62141716Y-22384728D01*
X62087550Y-22345375D01*
X61898217Y-22248904D01*
X61696129Y-22183242D01*
X61486246Y-22150000D01*
X61273754Y-22150000D01*
X61063872Y-22183242D01*
X61063869Y-22183242D01*
X60861782Y-22248904D01*
X60672439Y-22345380D01*
X60618282Y-22384727D01*
X60618282Y-22384728D01*
X61250591Y-23017037D01*
X61187007Y-23034075D01*
X61072993Y-23099901D01*
X60979901Y-23192993D01*
X60914075Y-23307007D01*
X60897037Y-23370591D01*
X60264728Y-22738282D01*
X60264727Y-22738282D01*
X60225380Y-22792439D01*
X60128904Y-22981782D01*
X60063242Y-23183869D01*
X60063242Y-23183872D01*
X60030000Y-23393753D01*
X60030000Y-23606246D01*
X60063242Y-23816127D01*
X60063242Y-23816130D01*
X60128904Y-24018217D01*
X60225375Y-24207550D01*
X60264728Y-24261716D01*
X60897037Y-23629408D01*
X60914075Y-23692993D01*
X60979901Y-23807007D01*
X61072993Y-23900099D01*
X61187007Y-23965925D01*
X61250590Y-23982962D01*
X60618282Y-24615269D01*
X60618282Y-24615270D01*
X60672449Y-24654624D01*
X60861782Y-24751095D01*
X60993611Y-24793929D01*
X61051286Y-24833366D01*
X61078485Y-24897725D01*
X61066570Y-24966571D01*
X61019326Y-25018047D01*
X60955293Y-25035860D01*
X37892385Y-25035860D01*
X37844934Y-25026421D01*
X37733497Y-24980263D01*
X37733489Y-24980261D01*
X37578845Y-24949500D01*
X37578842Y-24949500D01*
X37421158Y-24949500D01*
X37421155Y-24949500D01*
X37266510Y-24980261D01*
X37266498Y-24980264D01*
X37120827Y-25040602D01*
X37120814Y-25040609D01*
X36989711Y-25128210D01*
X36989707Y-25128213D01*
X36878213Y-25239707D01*
X36878210Y-25239711D01*
X36790609Y-25370814D01*
X36790602Y-25370827D01*
X36730264Y-25516498D01*
X36730261Y-25516510D01*
X36699500Y-25671153D01*
X27356610Y-25671153D01*
X31356611Y-21671153D01*
X36949500Y-21671153D01*
X36949500Y-21828846D01*
X36980261Y-21983489D01*
X36980264Y-21983501D01*
X37040602Y-22129172D01*
X37040609Y-22129185D01*
X37128210Y-22260288D01*
X37128213Y-22260292D01*
X37239707Y-22371786D01*
X37239711Y-22371789D01*
X37370814Y-22459390D01*
X37370827Y-22459397D01*
X37516498Y-22519735D01*
X37516503Y-22519737D01*
X37671153Y-22550499D01*
X37671156Y-22550500D01*
X37671158Y-22550500D01*
X37828844Y-22550500D01*
X37828845Y-22550499D01*
X37983497Y-22519737D01*
X38129179Y-22459394D01*
X38260289Y-22371789D01*
X38371789Y-22260289D01*
X38371989Y-22259988D01*
X38372135Y-22259866D01*
X38375649Y-22255585D01*
X38376460Y-22256251D01*
X38425595Y-22215179D01*
X38494920Y-22206465D01*
X38499254Y-22207246D01*
X38539133Y-22215179D01*
X38555777Y-22218490D01*
X38555778Y-22218490D01*
X38713464Y-22218490D01*
X38713465Y-22218489D01*
X38868117Y-22187727D01*
X39013799Y-22127384D01*
X39061755Y-22095339D01*
X39128432Y-22074462D01*
X39178100Y-22083882D01*
X39195247Y-22090985D01*
X39195249Y-22090985D01*
X39195253Y-22090987D01*
X39349903Y-22121749D01*
X39349906Y-22121750D01*
X39349908Y-22121750D01*
X39507594Y-22121750D01*
X39507595Y-22121749D01*
X39662247Y-22090987D01*
X39679400Y-22083882D01*
X39748869Y-22076412D01*
X39795744Y-22095339D01*
X39800136Y-22098273D01*
X39843703Y-22127384D01*
X39989385Y-22187727D01*
X40127395Y-22215179D01*
X40144035Y-22218489D01*
X40144038Y-22218490D01*
X40144040Y-22218490D01*
X40301726Y-22218490D01*
X40301727Y-22218489D01*
X40456379Y-22187727D01*
X40597713Y-22129185D01*
X40602054Y-22127387D01*
X40602054Y-22127386D01*
X40602061Y-22127384D01*
X40650020Y-22095339D01*
X40733757Y-22039388D01*
X40800435Y-22018510D01*
X40802648Y-22018490D01*
X42562272Y-22018490D01*
X42562288Y-22018491D01*
X42569884Y-22018491D01*
X42727995Y-22018491D01*
X42727998Y-22018491D01*
X42880726Y-21977567D01*
X42924775Y-21952135D01*
X46999500Y-21952135D01*
X46999500Y-24047870D01*
X46999501Y-24047876D01*
X47005908Y-24107483D01*
X47056202Y-24242328D01*
X47056206Y-24242335D01*
X47142452Y-24357544D01*
X47142455Y-24357547D01*
X47257664Y-24443793D01*
X47257671Y-24443797D01*
X47392517Y-24494091D01*
X47392516Y-24494091D01*
X47399444Y-24494835D01*
X47452127Y-24500500D01*
X49547872Y-24500499D01*
X49607483Y-24494091D01*
X49742331Y-24443796D01*
X49857546Y-24357546D01*
X49943796Y-24242331D01*
X49994091Y-24107483D01*
X50000500Y-24047873D01*
X50000499Y-23000000D01*
X50000499Y-22431987D01*
X50000499Y-21952129D01*
X50000498Y-21952123D01*
X50000497Y-21952116D01*
X49994091Y-21892517D01*
X49981081Y-21857636D01*
X49943797Y-21757671D01*
X49943793Y-21757664D01*
X49857547Y-21642455D01*
X49857544Y-21642452D01*
X49742335Y-21556206D01*
X49742328Y-21556202D01*
X49607482Y-21505908D01*
X49607483Y-21505908D01*
X49547883Y-21499501D01*
X49547881Y-21499500D01*
X49547873Y-21499500D01*
X49547864Y-21499500D01*
X47452129Y-21499500D01*
X47452123Y-21499501D01*
X47392516Y-21505908D01*
X47257671Y-21556202D01*
X47257664Y-21556206D01*
X47142455Y-21642452D01*
X47142452Y-21642455D01*
X47056206Y-21757664D01*
X47056202Y-21757671D01*
X47005908Y-21892517D01*
X47000831Y-21939744D01*
X46999501Y-21952123D01*
X46999500Y-21952135D01*
X42924775Y-21952135D01*
X42946237Y-21939744D01*
X43017657Y-21898510D01*
X43129461Y-21786706D01*
X43129461Y-21786704D01*
X43139665Y-21776501D01*
X43139669Y-21776496D01*
X44983506Y-19932659D01*
X44983511Y-19932655D01*
X44993714Y-19922451D01*
X44993716Y-19922451D01*
X45105520Y-19810647D01*
X45184577Y-19673715D01*
X45225500Y-19520988D01*
X45225500Y-18702562D01*
X45225501Y-18702549D01*
X45225501Y-18534446D01*
X45225501Y-18534445D01*
X45184577Y-18381718D01*
X45147974Y-18318319D01*
X45105524Y-18244792D01*
X45105518Y-18244784D01*
X44888414Y-18027680D01*
X44854929Y-17966357D01*
X44859913Y-17896665D01*
X44888414Y-17852318D01*
X45011022Y-17729711D01*
X45603915Y-17136819D01*
X45665238Y-17103334D01*
X45691596Y-17100500D01*
X45734120Y-17100500D01*
X45801159Y-17120185D01*
X45846914Y-17172989D01*
X45856858Y-17242147D01*
X45848681Y-17271953D01*
X45814870Y-17353579D01*
X45814868Y-17353587D01*
X45774500Y-17556530D01*
X45774500Y-18363469D01*
X45814868Y-18566412D01*
X45814870Y-18566420D01*
X45853218Y-18659001D01*
X45894059Y-18757598D01*
X45894490Y-18758243D01*
X46009024Y-18929657D01*
X46155342Y-19075975D01*
X46155345Y-19075977D01*
X46327402Y-19190941D01*
X46518580Y-19270130D01*
X46721530Y-19310499D01*
X46721534Y-19310500D01*
X46721535Y-19310500D01*
X46928466Y-19310500D01*
X46928467Y-19310499D01*
X47131420Y-19270130D01*
X47322598Y-19190941D01*
X47494655Y-19075977D01*
X47640977Y-18929655D01*
X47755941Y-18757598D01*
X47835130Y-18566420D01*
X47875500Y-18363465D01*
X47875500Y-17556535D01*
X47835130Y-17353580D01*
X47801319Y-17271953D01*
X47793850Y-17202483D01*
X47825125Y-17140004D01*
X47885214Y-17104352D01*
X47915880Y-17100500D01*
X58428331Y-17100500D01*
X58428347Y-17100501D01*
X58435943Y-17100501D01*
X58594054Y-17100501D01*
X58594057Y-17100501D01*
X58746785Y-17059577D01*
X58796904Y-17030639D01*
X58883716Y-16980520D01*
X58995520Y-16868716D01*
X58995520Y-16868714D01*
X59005728Y-16858507D01*
X59005730Y-16858504D01*
X60280478Y-15583755D01*
X60341799Y-15550272D01*
X60406473Y-15553506D01*
X60448757Y-15567246D01*
X60658713Y-15600500D01*
X60658714Y-15600500D01*
X60871286Y-15600500D01*
X60871287Y-15600500D01*
X61081243Y-15567246D01*
X61283412Y-15501557D01*
X61472816Y-15405051D01*
X61585331Y-15323305D01*
X61644786Y-15280109D01*
X61644788Y-15280106D01*
X61644792Y-15280104D01*
X61795104Y-15129792D01*
X61795106Y-15129788D01*
X61795109Y-15129786D01*
X61920048Y-14957820D01*
X61920047Y-14957820D01*
X61920051Y-14957816D01*
X62016557Y-14768412D01*
X62082246Y-14566243D01*
X62115500Y-14356287D01*
X62115500Y-14143713D01*
X62082246Y-13933757D01*
X62016557Y-13731588D01*
X61920051Y-13542184D01*
X61920049Y-13542181D01*
X61920048Y-13542179D01*
X61795109Y-13370213D01*
X61644786Y-13219890D01*
X61472820Y-13094951D01*
X61283414Y-12998444D01*
X61283413Y-12998443D01*
X61283412Y-12998443D01*
X61081243Y-12932754D01*
X61081241Y-12932753D01*
X61081240Y-12932753D01*
X60919957Y-12907208D01*
X60871287Y-12899500D01*
X60658713Y-12899500D01*
X60610042Y-12907208D01*
X60448760Y-12932753D01*
X60246585Y-12998444D01*
X60057179Y-13094951D01*
X59885215Y-13219889D01*
X59771673Y-13333431D01*
X59710350Y-13366915D01*
X59640658Y-13361931D01*
X59584725Y-13320059D01*
X59567810Y-13289082D01*
X59518797Y-13157671D01*
X59518793Y-13157664D01*
X59432547Y-13042455D01*
X59432544Y-13042452D01*
X59317335Y-12956206D01*
X59317328Y-12956202D01*
X59182482Y-12905908D01*
X59182483Y-12905908D01*
X59122883Y-12899501D01*
X59122881Y-12899500D01*
X59122873Y-12899500D01*
X59122864Y-12899500D01*
X57327129Y-12899500D01*
X57327123Y-12899501D01*
X57267516Y-12905908D01*
X57132671Y-12956202D01*
X57132664Y-12956206D01*
X57017455Y-13042452D01*
X57017452Y-13042455D01*
X56931206Y-13157664D01*
X56931202Y-13157671D01*
X56880908Y-13292517D01*
X56874501Y-13352116D01*
X56874500Y-13352135D01*
X56874500Y-14699901D01*
X56854815Y-14766940D01*
X56838181Y-14787582D01*
X56668168Y-14957596D01*
X56396774Y-15228991D01*
X56262584Y-15363181D01*
X56201261Y-15396666D01*
X56174903Y-15399500D01*
X47670495Y-15399500D01*
X47603456Y-15379815D01*
X47557701Y-15327011D01*
X47547757Y-15257853D01*
X47576782Y-15194297D01*
X47582814Y-15187819D01*
X47640974Y-15129658D01*
X47640975Y-15129657D01*
X47640977Y-15129655D01*
X47755941Y-14957598D01*
X47835130Y-14766420D01*
X47875500Y-14563465D01*
X47875500Y-13756535D01*
X47835130Y-13553580D01*
X47755941Y-13362402D01*
X47640977Y-13190345D01*
X47640975Y-13190342D01*
X47494657Y-13044024D01*
X47363830Y-12956609D01*
X47322598Y-12929059D01*
X47293125Y-12916851D01*
X47131420Y-12849870D01*
X47131412Y-12849868D01*
X46928469Y-12809500D01*
X46928465Y-12809500D01*
X46721535Y-12809500D01*
X46721530Y-12809500D01*
X46518587Y-12849868D01*
X46518579Y-12849870D01*
X46327403Y-12929058D01*
X46155342Y-13044024D01*
X46009024Y-13190342D01*
X45894058Y-13362403D01*
X45814870Y-13553579D01*
X45814868Y-13553587D01*
X45774500Y-13756530D01*
X45774500Y-14563469D01*
X45811855Y-14751263D01*
X45814870Y-14766420D01*
X45894059Y-14957598D01*
X45907966Y-14978411D01*
X46009024Y-15129657D01*
X46067186Y-15187819D01*
X46100671Y-15249142D01*
X46095687Y-15318834D01*
X46053815Y-15374767D01*
X45988351Y-15399184D01*
X45979505Y-15399500D01*
X43651670Y-15399500D01*
X43651654Y-15399499D01*
X43644058Y-15399499D01*
X43485943Y-15399499D01*
X43439264Y-15412007D01*
X43333214Y-15440423D01*
X43333209Y-15440426D01*
X43196290Y-15519475D01*
X43196282Y-15519481D01*
X41644481Y-17071282D01*
X41644477Y-17071287D01*
X41632338Y-17092315D01*
X41627612Y-17100501D01*
X41565423Y-17208215D01*
X41524499Y-17360943D01*
X41524499Y-17360945D01*
X41524499Y-17529046D01*
X41524500Y-17529059D01*
X41524500Y-17660234D01*
X41504815Y-17727273D01*
X41503602Y-17729125D01*
X41415609Y-17860814D01*
X41415602Y-17860827D01*
X41355264Y-18006498D01*
X41355261Y-18006508D01*
X41327737Y-18144878D01*
X41295352Y-18206789D01*
X41234636Y-18241363D01*
X41230312Y-18242303D01*
X41151508Y-18257978D01*
X41151498Y-18257981D01*
X41005827Y-18318319D01*
X41005814Y-18318326D01*
X40874125Y-18406319D01*
X40807447Y-18427197D01*
X40805234Y-18427217D01*
X40263033Y-18427217D01*
X40263017Y-18427216D01*
X40255421Y-18427216D01*
X40097307Y-18427216D01*
X40020943Y-18447678D01*
X39944576Y-18468140D01*
X39935306Y-18473494D01*
X39935300Y-18473497D01*
X39807654Y-18547192D01*
X39807646Y-18547198D01*
X38544205Y-19810640D01*
X37381286Y-20973559D01*
X37381284Y-20973561D01*
X37327332Y-21027513D01*
X37269479Y-21085365D01*
X37269478Y-21085367D01*
X37259774Y-21102174D01*
X37240070Y-21127851D01*
X37128213Y-21239707D01*
X37128210Y-21239711D01*
X37040609Y-21370814D01*
X37040602Y-21370827D01*
X36980264Y-21516498D01*
X36980261Y-21516510D01*
X36949500Y-21671153D01*
X31356611Y-21671153D01*
X31843020Y-21184744D01*
X31922077Y-21047812D01*
X31963001Y-20895085D01*
X31963001Y-20736970D01*
X31963001Y-20729375D01*
X31963000Y-20729357D01*
X31963000Y-18034765D01*
X31982685Y-17967726D01*
X31983898Y-17965874D01*
X32071890Y-17834185D01*
X32071890Y-17834184D01*
X32071894Y-17834179D01*
X32132237Y-17688497D01*
X32158487Y-17556530D01*
X37134500Y-17556530D01*
X37134500Y-18363469D01*
X37174868Y-18566412D01*
X37174870Y-18566420D01*
X37213218Y-18659001D01*
X37254059Y-18757598D01*
X37254490Y-18758243D01*
X37369024Y-18929657D01*
X37515342Y-19075975D01*
X37515345Y-19075977D01*
X37687402Y-19190941D01*
X37878580Y-19270130D01*
X38081530Y-19310499D01*
X38081534Y-19310500D01*
X38081535Y-19310500D01*
X38288466Y-19310500D01*
X38288467Y-19310499D01*
X38491420Y-19270130D01*
X38682598Y-19190941D01*
X38854655Y-19075977D01*
X39000977Y-18929655D01*
X39115941Y-18757598D01*
X39195130Y-18566420D01*
X39235500Y-18363465D01*
X39235500Y-17556535D01*
X39195130Y-17353580D01*
X39115941Y-17162402D01*
X39000977Y-16990345D01*
X39000975Y-16990342D01*
X38854657Y-16844024D01*
X38707367Y-16745609D01*
X38682598Y-16729059D01*
X38491420Y-16649870D01*
X38491412Y-16649868D01*
X38288469Y-16609500D01*
X38288465Y-16609500D01*
X38081535Y-16609500D01*
X38081530Y-16609500D01*
X37878587Y-16649868D01*
X37878579Y-16649870D01*
X37687403Y-16729058D01*
X37515342Y-16844024D01*
X37369024Y-16990342D01*
X37254058Y-17162403D01*
X37174870Y-17353579D01*
X37174868Y-17353587D01*
X37134500Y-17556530D01*
X32158487Y-17556530D01*
X32163000Y-17533842D01*
X32163000Y-17376158D01*
X32163000Y-17376155D01*
X32162999Y-17376153D01*
X32160216Y-17362164D01*
X32132237Y-17221503D01*
X32132235Y-17221498D01*
X32071897Y-17075827D01*
X32071890Y-17075814D01*
X31984289Y-16944711D01*
X31984286Y-16944707D01*
X31872792Y-16833213D01*
X31872788Y-16833210D01*
X31741685Y-16745609D01*
X31741672Y-16745602D01*
X31596001Y-16685264D01*
X31595989Y-16685261D01*
X31441345Y-16654500D01*
X31441342Y-16654500D01*
X31283658Y-16654500D01*
X31283655Y-16654500D01*
X31129010Y-16685261D01*
X31128998Y-16685264D01*
X30983327Y-16745602D01*
X30983314Y-16745609D01*
X30852211Y-16833210D01*
X30852207Y-16833213D01*
X30740713Y-16944707D01*
X30740710Y-16944711D01*
X30653109Y-17075814D01*
X30653102Y-17075827D01*
X30592764Y-17221498D01*
X30592761Y-17221510D01*
X30562000Y-17376153D01*
X30562000Y-17533846D01*
X30592761Y-17688489D01*
X30592764Y-17688501D01*
X30653102Y-17834172D01*
X30653109Y-17834185D01*
X30741102Y-17965874D01*
X30761980Y-18032551D01*
X30762000Y-18034765D01*
X30762000Y-20515930D01*
X30742315Y-20582969D01*
X30725681Y-20603611D01*
X23650223Y-27679068D01*
X23588900Y-27712553D01*
X23519208Y-27707569D01*
X23463275Y-27665697D01*
X23440069Y-27610784D01*
X23426015Y-27522048D01*
X23357896Y-27312396D01*
X23357895Y-27312393D01*
X23275103Y-27149908D01*
X23257815Y-27115978D01*
X23241260Y-27093192D01*
X23128247Y-26937641D01*
X23128243Y-26937636D01*
X22972363Y-26781756D01*
X22972358Y-26781752D01*
X22832745Y-26680318D01*
X22790079Y-26624989D01*
X22784100Y-26555375D01*
X22816705Y-26493580D01*
X22832745Y-26479682D01*
X22972358Y-26378247D01*
X22972356Y-26378247D01*
X22972365Y-26378242D01*
X23128242Y-26222365D01*
X23257815Y-26044022D01*
X23357895Y-25847606D01*
X23426015Y-25637951D01*
X23460500Y-25420222D01*
X23460500Y-25199778D01*
X23426015Y-24982049D01*
X23383273Y-24850500D01*
X23357896Y-24772396D01*
X23357895Y-24772393D01*
X23298105Y-24655051D01*
X23257815Y-24575978D01*
X23241260Y-24553192D01*
X23128247Y-24397641D01*
X23128243Y-24397636D01*
X22972363Y-24241756D01*
X22972358Y-24241752D01*
X22832745Y-24140318D01*
X22790079Y-24084989D01*
X22784100Y-24015375D01*
X22816705Y-23953580D01*
X22832745Y-23939682D01*
X22972358Y-23838247D01*
X22972356Y-23838247D01*
X22972365Y-23838242D01*
X23128242Y-23682365D01*
X23257815Y-23504022D01*
X23357895Y-23307606D01*
X23426015Y-23097951D01*
X23460500Y-22880222D01*
X23460500Y-22659778D01*
X23426015Y-22442049D01*
X23377410Y-22292455D01*
X23357896Y-22232396D01*
X23357895Y-22232393D01*
X23323237Y-22164375D01*
X23257815Y-22035978D01*
X23241260Y-22013192D01*
X23128247Y-21857641D01*
X23128243Y-21857636D01*
X22972363Y-21701756D01*
X22972358Y-21701752D01*
X22832745Y-21600318D01*
X22790079Y-21544989D01*
X22784100Y-21475375D01*
X22816705Y-21413580D01*
X22832745Y-21399682D01*
X22972358Y-21298247D01*
X22972356Y-21298247D01*
X22972365Y-21298242D01*
X23128242Y-21142365D01*
X23257815Y-20964022D01*
X23357895Y-20767606D01*
X23426015Y-20557951D01*
X23460500Y-20340222D01*
X23460500Y-20119778D01*
X23426015Y-19902049D01*
X23376574Y-19749882D01*
X23357896Y-19692396D01*
X23357895Y-19692393D01*
X23270558Y-19520988D01*
X23257815Y-19495978D01*
X23211685Y-19432485D01*
X23128247Y-19317641D01*
X23128243Y-19317636D01*
X22972363Y-19161756D01*
X22972358Y-19161752D01*
X22832745Y-19060318D01*
X22790079Y-19004989D01*
X22784100Y-18935375D01*
X22816705Y-18873580D01*
X22832745Y-18859682D01*
X22972358Y-18758247D01*
X22972356Y-18758247D01*
X22972365Y-18758242D01*
X23128242Y-18602365D01*
X23257815Y-18424022D01*
X23357895Y-18227606D01*
X23426015Y-18017951D01*
X23460500Y-17800222D01*
X23460500Y-17579778D01*
X23426015Y-17362049D01*
X23376032Y-17208215D01*
X23357896Y-17152396D01*
X23357895Y-17152393D01*
X23310601Y-17059576D01*
X23257815Y-16955978D01*
X23186999Y-16858507D01*
X23128247Y-16777641D01*
X23128243Y-16777636D01*
X22972363Y-16621756D01*
X22972358Y-16621752D01*
X22832745Y-16520318D01*
X22790079Y-16464989D01*
X22784100Y-16395375D01*
X22816705Y-16333580D01*
X22832745Y-16319682D01*
X22972358Y-16218247D01*
X22972356Y-16218247D01*
X22972365Y-16218242D01*
X23128242Y-16062365D01*
X23257815Y-15884022D01*
X23357895Y-15687606D01*
X23426015Y-15477951D01*
X23460500Y-15260222D01*
X23460500Y-15039778D01*
X23426015Y-14822049D01*
X23375488Y-14666540D01*
X23357896Y-14612396D01*
X23357895Y-14612393D01*
X23323237Y-14544375D01*
X23257815Y-14415978D01*
X23214447Y-14356287D01*
X23128247Y-14237641D01*
X23128243Y-14237636D01*
X22972363Y-14081756D01*
X22972358Y-14081752D01*
X22794025Y-13952187D01*
X22794024Y-13952186D01*
X22794022Y-13952185D01*
X22614922Y-13860928D01*
X22614920Y-13860926D01*
X22597611Y-13852106D01*
X22597603Y-13852103D01*
X22387952Y-13783985D01*
X22214639Y-13756535D01*
X22214607Y-13756530D01*
X37134500Y-13756530D01*
X37134500Y-14563469D01*
X37171855Y-14751263D01*
X37174870Y-14766420D01*
X37254059Y-14957598D01*
X37267966Y-14978411D01*
X37369024Y-15129657D01*
X37515342Y-15275975D01*
X37515345Y-15275977D01*
X37687402Y-15390941D01*
X37878580Y-15470130D01*
X38046610Y-15503553D01*
X38081530Y-15510499D01*
X38081534Y-15510500D01*
X38081535Y-15510500D01*
X38288466Y-15510500D01*
X38288467Y-15510499D01*
X38491420Y-15470130D01*
X38682598Y-15390941D01*
X38854655Y-15275977D01*
X39000977Y-15129655D01*
X39115941Y-14957598D01*
X39195130Y-14766420D01*
X39235500Y-14563465D01*
X39235500Y-13756535D01*
X39195130Y-13553580D01*
X39115941Y-13362402D01*
X39000977Y-13190345D01*
X39000975Y-13190342D01*
X38854657Y-13044024D01*
X38723830Y-12956609D01*
X38682598Y-12929059D01*
X38653125Y-12916851D01*
X38491420Y-12849870D01*
X38491412Y-12849868D01*
X38288469Y-12809500D01*
X38288465Y-12809500D01*
X38081535Y-12809500D01*
X38081530Y-12809500D01*
X37878587Y-12849868D01*
X37878579Y-12849870D01*
X37687403Y-12929058D01*
X37515342Y-13044024D01*
X37369024Y-13190342D01*
X37254058Y-13362403D01*
X37174870Y-13553579D01*
X37174868Y-13553587D01*
X37134500Y-13756530D01*
X22214607Y-13756530D01*
X22170222Y-13749500D01*
X21949778Y-13749500D01*
X21905361Y-13756535D01*
X21732047Y-13783985D01*
X21522396Y-13852103D01*
X21522393Y-13852104D01*
X21325974Y-13952187D01*
X21147641Y-14081752D01*
X21147636Y-14081756D01*
X20991756Y-14237636D01*
X20991752Y-14237641D01*
X20862187Y-14415974D01*
X20762104Y-14612393D01*
X20762103Y-14612396D01*
X20693985Y-14822047D01*
X20659500Y-15039778D01*
X20659500Y-15260221D01*
X20693985Y-15477952D01*
X20762103Y-15687603D01*
X20762104Y-15687606D01*
X20825579Y-15812180D01*
X20862049Y-15883756D01*
X20862187Y-15884025D01*
X20991752Y-16062358D01*
X20991756Y-16062363D01*
X21147636Y-16218243D01*
X21147641Y-16218247D01*
X21287254Y-16319682D01*
X21329920Y-16375012D01*
X21335899Y-16444625D01*
X21303293Y-16506420D01*
X21287254Y-16520318D01*
X21147641Y-16621752D01*
X21147636Y-16621756D01*
X20991756Y-16777636D01*
X20991752Y-16777641D01*
X20862187Y-16955974D01*
X20762104Y-17152393D01*
X20762103Y-17152396D01*
X20693985Y-17362047D01*
X20659500Y-17579778D01*
X20659500Y-17800221D01*
X20693985Y-18017952D01*
X20762103Y-18227603D01*
X20762104Y-18227606D01*
X20830122Y-18361096D01*
X20862049Y-18423756D01*
X20862187Y-18424025D01*
X20991752Y-18602358D01*
X20991756Y-18602363D01*
X21147636Y-18758243D01*
X21147641Y-18758247D01*
X21287254Y-18859682D01*
X21329920Y-18915012D01*
X21335899Y-18984625D01*
X21303293Y-19046420D01*
X21287254Y-19060318D01*
X21147641Y-19161752D01*
X21147636Y-19161756D01*
X20991756Y-19317636D01*
X20991752Y-19317641D01*
X20862187Y-19495974D01*
X20762104Y-19692393D01*
X20762103Y-19692396D01*
X20693985Y-19902047D01*
X20659500Y-20119778D01*
X20659500Y-20340221D01*
X20693985Y-20557952D01*
X20762103Y-20767603D01*
X20762104Y-20767606D01*
X20793896Y-20829999D01*
X20862049Y-20963756D01*
X20862187Y-20964025D01*
X20991752Y-21142358D01*
X20991756Y-21142363D01*
X21147636Y-21298243D01*
X21147641Y-21298247D01*
X21287254Y-21399682D01*
X21329920Y-21455012D01*
X21335899Y-21524625D01*
X21303293Y-21586420D01*
X21287254Y-21600318D01*
X21147641Y-21701752D01*
X21147636Y-21701756D01*
X20991756Y-21857636D01*
X20991752Y-21857641D01*
X20862187Y-22035974D01*
X20762104Y-22232393D01*
X20762103Y-22232396D01*
X20693985Y-22442047D01*
X20659500Y-22659778D01*
X20659500Y-22880221D01*
X20693985Y-23097952D01*
X20762103Y-23307603D01*
X20762104Y-23307606D01*
X20826595Y-23434174D01*
X20862049Y-23503756D01*
X20862187Y-23504025D01*
X20991752Y-23682358D01*
X20991756Y-23682363D01*
X21147636Y-23838243D01*
X21147641Y-23838247D01*
X21287254Y-23939682D01*
X21329920Y-23995012D01*
X21335899Y-24064625D01*
X21303293Y-24126420D01*
X21287254Y-24140318D01*
X21147641Y-24241752D01*
X21147636Y-24241756D01*
X20991756Y-24397636D01*
X20991752Y-24397641D01*
X20862187Y-24575974D01*
X20762104Y-24772393D01*
X20762103Y-24772396D01*
X20693985Y-24982047D01*
X20659500Y-25199778D01*
X20659500Y-25420221D01*
X20693985Y-25637952D01*
X20762103Y-25847603D01*
X20762104Y-25847606D01*
X20793896Y-25909999D01*
X20862049Y-26043756D01*
X20862187Y-26044025D01*
X20991752Y-26222358D01*
X20991756Y-26222363D01*
X21147636Y-26378243D01*
X21147641Y-26378247D01*
X21287254Y-26479682D01*
X21329920Y-26535012D01*
X21335899Y-26604625D01*
X21303293Y-26666420D01*
X21287254Y-26680318D01*
X21147641Y-26781752D01*
X21147636Y-26781756D01*
X20991756Y-26937636D01*
X20991752Y-26937641D01*
X20862187Y-27115974D01*
X20762104Y-27312393D01*
X20762103Y-27312396D01*
X20693985Y-27522047D01*
X20659500Y-27739778D01*
X20659500Y-27960221D01*
X20693985Y-28177952D01*
X20762103Y-28387603D01*
X20762104Y-28387606D01*
X20793896Y-28449999D01*
X20862049Y-28583756D01*
X20862187Y-28584025D01*
X20991752Y-28762358D01*
X20991756Y-28762363D01*
X21147636Y-28918243D01*
X21147641Y-28918247D01*
X21261632Y-29001065D01*
X21325978Y-29047815D01*
X21454375Y-29113237D01*
X21522393Y-29147895D01*
X21522396Y-29147896D01*
X21732048Y-29216015D01*
X21755216Y-29219684D01*
X21820786Y-29230069D01*
X21883920Y-29259998D01*
X21920852Y-29319309D01*
X21919854Y-29389171D01*
X21889069Y-29440223D01*
X20716112Y-30613181D01*
X20654789Y-30646666D01*
X20628431Y-30649500D01*
X17086670Y-30649500D01*
X17086654Y-30649499D01*
X17079058Y-30649499D01*
X16920943Y-30649499D01*
X16844579Y-30669961D01*
X16768214Y-30690423D01*
X16768209Y-30690426D01*
X16631290Y-30769475D01*
X16631282Y-30769481D01*
X15787582Y-31613181D01*
X15726259Y-31646666D01*
X15699901Y-31649500D01*
X14352129Y-31649500D01*
X14352123Y-31649501D01*
X14292516Y-31655908D01*
X14157671Y-31706202D01*
X14157664Y-31706206D01*
X14042455Y-31792452D01*
X14042452Y-31792455D01*
X13956206Y-31907664D01*
X13956202Y-31907671D01*
X13905908Y-32042517D01*
X13899501Y-32102116D01*
X13899500Y-32102135D01*
X12500500Y-32102135D01*
X12500500Y-16003051D01*
X12500649Y-15996967D01*
X12503078Y-15947514D01*
X12517052Y-15663068D01*
X12518245Y-15650962D01*
X12521337Y-15630118D01*
X12566849Y-15323296D01*
X12569218Y-15311385D01*
X12637242Y-15039818D01*
X13040000Y-15039818D01*
X13040000Y-15260181D01*
X13074473Y-15477835D01*
X13142567Y-15687410D01*
X13242611Y-15883756D01*
X13288932Y-15947513D01*
X13875388Y-15361057D01*
X13880890Y-15381591D01*
X13959882Y-15518408D01*
X14071592Y-15630118D01*
X14208409Y-15709110D01*
X14228940Y-15714611D01*
X13642485Y-16301065D01*
X13642485Y-16301067D01*
X13668105Y-16319681D01*
X13710771Y-16375010D01*
X13716750Y-16444624D01*
X13684145Y-16506419D01*
X13668105Y-16520317D01*
X13642485Y-16538930D01*
X13642485Y-16538932D01*
X14228941Y-17125388D01*
X14208409Y-17130890D01*
X14071592Y-17209882D01*
X13959882Y-17321592D01*
X13880890Y-17458409D01*
X13875388Y-17478941D01*
X13288932Y-16892485D01*
X13288931Y-16892485D01*
X13242616Y-16956233D01*
X13142567Y-17152589D01*
X13074473Y-17362164D01*
X13040000Y-17579818D01*
X13040000Y-17800181D01*
X13074473Y-18017835D01*
X13142567Y-18227410D01*
X13242611Y-18423756D01*
X13288932Y-18487513D01*
X13875388Y-17901057D01*
X13880890Y-17921591D01*
X13959882Y-18058408D01*
X14071592Y-18170118D01*
X14208409Y-18249110D01*
X14228940Y-18254611D01*
X13642485Y-18841065D01*
X13642485Y-18841067D01*
X13668105Y-18859681D01*
X13710771Y-18915010D01*
X13716750Y-18984624D01*
X13684145Y-19046419D01*
X13668105Y-19060317D01*
X13642485Y-19078930D01*
X13642485Y-19078932D01*
X14228941Y-19665388D01*
X14208409Y-19670890D01*
X14071592Y-19749882D01*
X13959882Y-19861592D01*
X13880890Y-19998409D01*
X13875388Y-20018941D01*
X13288932Y-19432485D01*
X13288931Y-19432485D01*
X13242616Y-19496233D01*
X13142567Y-19692589D01*
X13074473Y-19902164D01*
X13040000Y-20119818D01*
X13040000Y-20340181D01*
X13074473Y-20557835D01*
X13142567Y-20767410D01*
X13242611Y-20963756D01*
X13288932Y-21027513D01*
X13875388Y-20441057D01*
X13880890Y-20461591D01*
X13959882Y-20598408D01*
X14071592Y-20710118D01*
X14208409Y-20789110D01*
X14228940Y-20794611D01*
X13642485Y-21381065D01*
X13642485Y-21381067D01*
X13668105Y-21399681D01*
X13710771Y-21455010D01*
X13716750Y-21524624D01*
X13684145Y-21586419D01*
X13668105Y-21600317D01*
X13642485Y-21618930D01*
X13642485Y-21618932D01*
X14228941Y-22205388D01*
X14208409Y-22210890D01*
X14071592Y-22289882D01*
X13959882Y-22401592D01*
X13880890Y-22538409D01*
X13875388Y-22558941D01*
X13288932Y-21972485D01*
X13288931Y-21972485D01*
X13242616Y-22036233D01*
X13142567Y-22232589D01*
X13074473Y-22442164D01*
X13040000Y-22659818D01*
X13040000Y-22880181D01*
X13074473Y-23097835D01*
X13142567Y-23307410D01*
X13242611Y-23503756D01*
X13288932Y-23567513D01*
X13875388Y-22981057D01*
X13880890Y-23001591D01*
X13959882Y-23138408D01*
X14071592Y-23250118D01*
X14208409Y-23329110D01*
X14228940Y-23334611D01*
X13642485Y-23921065D01*
X13642485Y-23921067D01*
X13668105Y-23939681D01*
X13710771Y-23995010D01*
X13716750Y-24064624D01*
X13684145Y-24126419D01*
X13668105Y-24140317D01*
X13642485Y-24158930D01*
X13642485Y-24158932D01*
X14228941Y-24745388D01*
X14208409Y-24750890D01*
X14071592Y-24829882D01*
X13959882Y-24941592D01*
X13880890Y-25078409D01*
X13875388Y-25098941D01*
X13288932Y-24512485D01*
X13288931Y-24512485D01*
X13242616Y-24576233D01*
X13142567Y-24772589D01*
X13074473Y-24982164D01*
X13040000Y-25199818D01*
X13040000Y-25420181D01*
X13074473Y-25637835D01*
X13142567Y-25847410D01*
X13242611Y-26043756D01*
X13288932Y-26107513D01*
X13875388Y-25521057D01*
X13880890Y-25541591D01*
X13959882Y-25678408D01*
X14071592Y-25790118D01*
X14208409Y-25869110D01*
X14228940Y-25874611D01*
X13642485Y-26461065D01*
X13642485Y-26461067D01*
X13668105Y-26479681D01*
X13710771Y-26535010D01*
X13716750Y-26604624D01*
X13684145Y-26666419D01*
X13668105Y-26680317D01*
X13642485Y-26698930D01*
X13642485Y-26698932D01*
X14228941Y-27285388D01*
X14208409Y-27290890D01*
X14071592Y-27369882D01*
X13959882Y-27481592D01*
X13880890Y-27618409D01*
X13875388Y-27638941D01*
X13288932Y-27052485D01*
X13288931Y-27052485D01*
X13242616Y-27116233D01*
X13142567Y-27312589D01*
X13074473Y-27522164D01*
X13040000Y-27739818D01*
X13040000Y-27960181D01*
X13074473Y-28177835D01*
X13142567Y-28387410D01*
X13242611Y-28583756D01*
X13288932Y-28647513D01*
X13875388Y-28061057D01*
X13880890Y-28081591D01*
X13959882Y-28218408D01*
X14071592Y-28330118D01*
X14208409Y-28409110D01*
X14228940Y-28414611D01*
X13642485Y-29001065D01*
X13642485Y-29001066D01*
X13706243Y-29047388D01*
X13902589Y-29147432D01*
X14112164Y-29215526D01*
X14329819Y-29250000D01*
X14550181Y-29250000D01*
X14767835Y-29215526D01*
X14977410Y-29147432D01*
X15173760Y-29047386D01*
X15237513Y-29001066D01*
X15237514Y-29001066D01*
X14651058Y-28414611D01*
X14671591Y-28409110D01*
X14808408Y-28330118D01*
X14920118Y-28218408D01*
X14999110Y-28081591D01*
X15004611Y-28061058D01*
X15591066Y-28647514D01*
X15591066Y-28647513D01*
X15637386Y-28583760D01*
X15737432Y-28387410D01*
X15805526Y-28177835D01*
X15840000Y-27960181D01*
X15840000Y-27739818D01*
X15805526Y-27522164D01*
X15737432Y-27312589D01*
X15637388Y-27116243D01*
X15591066Y-27052485D01*
X15591065Y-27052485D01*
X15004611Y-27638940D01*
X14999110Y-27618409D01*
X14920118Y-27481592D01*
X14808408Y-27369882D01*
X14671591Y-27290890D01*
X14651057Y-27285387D01*
X15237513Y-26698932D01*
X15237513Y-26698931D01*
X15211893Y-26680317D01*
X15169227Y-26624987D01*
X15163248Y-26555374D01*
X15195854Y-26493579D01*
X15211893Y-26479680D01*
X15237513Y-26461065D01*
X14651058Y-25874611D01*
X14671591Y-25869110D01*
X14808408Y-25790118D01*
X14920118Y-25678408D01*
X14999110Y-25541591D01*
X15004611Y-25521058D01*
X15591066Y-26107514D01*
X15591066Y-26107513D01*
X15637386Y-26043760D01*
X15737432Y-25847410D01*
X15805526Y-25637835D01*
X15840000Y-25420181D01*
X15840000Y-25199818D01*
X15805526Y-24982164D01*
X15737432Y-24772589D01*
X15637388Y-24576243D01*
X15591066Y-24512485D01*
X15591065Y-24512485D01*
X15004611Y-25098940D01*
X14999110Y-25078409D01*
X14920118Y-24941592D01*
X14808408Y-24829882D01*
X14671591Y-24750890D01*
X14651057Y-24745387D01*
X15237513Y-24158932D01*
X15237513Y-24158931D01*
X15211893Y-24140317D01*
X15169227Y-24084987D01*
X15163248Y-24015374D01*
X15195854Y-23953579D01*
X15211893Y-23939680D01*
X15237513Y-23921065D01*
X14651058Y-23334611D01*
X14671591Y-23329110D01*
X14808408Y-23250118D01*
X14920118Y-23138408D01*
X14999110Y-23001591D01*
X15004611Y-22981058D01*
X15591066Y-23567514D01*
X15591066Y-23567513D01*
X15637386Y-23503760D01*
X15737432Y-23307410D01*
X15805526Y-23097835D01*
X15840000Y-22880181D01*
X15840000Y-22659818D01*
X15805526Y-22442164D01*
X15737432Y-22232589D01*
X15637388Y-22036243D01*
X15591066Y-21972485D01*
X15591065Y-21972485D01*
X15004611Y-22558940D01*
X14999110Y-22538409D01*
X14920118Y-22401592D01*
X14808408Y-22289882D01*
X14671591Y-22210890D01*
X14651057Y-22205387D01*
X15237513Y-21618932D01*
X15237513Y-21618931D01*
X15211893Y-21600317D01*
X15169227Y-21544987D01*
X15163248Y-21475374D01*
X15195854Y-21413579D01*
X15211893Y-21399680D01*
X15237513Y-21381065D01*
X14651058Y-20794611D01*
X14671591Y-20789110D01*
X14808408Y-20710118D01*
X14920118Y-20598408D01*
X14999110Y-20461591D01*
X15004611Y-20441058D01*
X15591066Y-21027514D01*
X15591066Y-21027513D01*
X15637386Y-20963760D01*
X15737432Y-20767410D01*
X15805526Y-20557835D01*
X15840000Y-20340181D01*
X15840000Y-20119818D01*
X15805526Y-19902164D01*
X15737432Y-19692589D01*
X15637388Y-19496243D01*
X15591066Y-19432485D01*
X15591065Y-19432485D01*
X15004611Y-20018940D01*
X14999110Y-19998409D01*
X14920118Y-19861592D01*
X14808408Y-19749882D01*
X14671591Y-19670890D01*
X14651057Y-19665387D01*
X15237513Y-19078932D01*
X15237513Y-19078931D01*
X15211893Y-19060317D01*
X15169227Y-19004987D01*
X15163248Y-18935374D01*
X15195854Y-18873579D01*
X15211893Y-18859680D01*
X15237513Y-18841065D01*
X14651058Y-18254611D01*
X14671591Y-18249110D01*
X14808408Y-18170118D01*
X14920118Y-18058408D01*
X14999110Y-17921591D01*
X15004611Y-17901058D01*
X15591066Y-18487514D01*
X15591066Y-18487513D01*
X15637386Y-18423760D01*
X15737432Y-18227410D01*
X15805526Y-18017835D01*
X15840000Y-17800181D01*
X15840000Y-17579818D01*
X15805526Y-17362164D01*
X15737432Y-17152589D01*
X15637388Y-16956243D01*
X15591066Y-16892485D01*
X15591065Y-16892485D01*
X15004611Y-17478940D01*
X14999110Y-17458409D01*
X14920118Y-17321592D01*
X14808408Y-17209882D01*
X14671591Y-17130890D01*
X14651057Y-17125387D01*
X15237513Y-16538932D01*
X15237513Y-16538931D01*
X15211893Y-16520317D01*
X15169227Y-16464987D01*
X15163248Y-16395374D01*
X15195854Y-16333579D01*
X15211893Y-16319680D01*
X15237513Y-16301065D01*
X14651058Y-15714611D01*
X14671591Y-15709110D01*
X14808408Y-15630118D01*
X14920118Y-15518408D01*
X14999110Y-15381591D01*
X15004611Y-15361058D01*
X15591066Y-15947514D01*
X15591066Y-15947513D01*
X15637386Y-15883760D01*
X15737432Y-15687410D01*
X15805526Y-15477835D01*
X15840000Y-15260181D01*
X15840000Y-15039818D01*
X15805526Y-14822164D01*
X15737432Y-14612589D01*
X15637388Y-14416243D01*
X15591066Y-14352485D01*
X15591065Y-14352485D01*
X15004611Y-14938940D01*
X14999110Y-14918409D01*
X14920118Y-14781592D01*
X14808408Y-14669882D01*
X14671591Y-14590890D01*
X14651057Y-14585387D01*
X15237513Y-13998932D01*
X15173756Y-13952611D01*
X14977410Y-13852567D01*
X14767835Y-13784473D01*
X14550181Y-13750000D01*
X14329819Y-13750000D01*
X14112164Y-13784473D01*
X13902589Y-13852567D01*
X13706233Y-13952616D01*
X13642485Y-13998931D01*
X13642485Y-13998932D01*
X14228941Y-14585388D01*
X14208409Y-14590890D01*
X14071592Y-14669882D01*
X13959882Y-14781592D01*
X13880890Y-14918409D01*
X13875388Y-14938941D01*
X13288932Y-14352485D01*
X13288931Y-14352485D01*
X13242616Y-14416233D01*
X13142567Y-14612589D01*
X13074473Y-14822164D01*
X13040000Y-15039818D01*
X12637242Y-15039818D01*
X12649709Y-14990047D01*
X12653240Y-14978411D01*
X12709146Y-14822164D01*
X12764835Y-14666525D01*
X12769476Y-14655318D01*
X12911124Y-14355828D01*
X12916840Y-14345136D01*
X13087145Y-14060998D01*
X13093888Y-14050905D01*
X13291232Y-13784818D01*
X13298935Y-13775433D01*
X13521405Y-13529975D01*
X13529975Y-13521405D01*
X13775433Y-13298935D01*
X13784818Y-13291232D01*
X14050905Y-13093888D01*
X14060998Y-13087145D01*
X14345136Y-12916840D01*
X14355828Y-12911124D01*
X14655318Y-12769476D01*
X14666525Y-12764835D01*
X14978412Y-12653239D01*
X14990043Y-12649710D01*
X15311385Y-12569218D01*
X15323296Y-12566849D01*
X15650962Y-12518244D01*
X15663068Y-12517052D01*
X15996967Y-12500648D01*
X16003051Y-12500500D01*
X16065892Y-12500500D01*
X67934108Y-12500500D01*
X67996949Y-12500500D01*
X68003032Y-12500648D01*
G37*
%TD.AperFunction*%
%TD*%
M02*
