%TF.GenerationSoftware,KiCad,Pcbnew,10.0.5*%
%TF.CreationDate,2026-08-25T09:53:29+01:00*%
%TF.ProjectId,USB_C_PD_Prototyping_Board,5553425f-435f-4504-945f-50726f746f74,rev?*%
%TF.SameCoordinates,Original*%
%TF.FileFunction,Legend,Bot*%
%TF.FilePolarity,Positive*%
%FSLAX46Y46*%
G04 Gerber Fmt 4.6, Leading zero omitted, Abs format (unit mm)*
G04 Created by KiCad (PCBNEW 10.0.5) date 2026-08-25 09:53:29*
%MOMM*%
%LPD*%
G01*
G04 APERTURE LIST*
%ADD10C,0.150000*%
%ADD11C,0.120000*%
G04 APERTURE END LIST*
D10*
X65338333Y-42284819D02*
X65338333Y-42999104D01*
X65338333Y-42999104D02*
X65385952Y-43141961D01*
X65385952Y-43141961D02*
X65481190Y-43237200D01*
X65481190Y-43237200D02*
X65624047Y-43284819D01*
X65624047Y-43284819D02*
X65719285Y-43284819D01*
X64957380Y-42284819D02*
X64290714Y-42284819D01*
X64290714Y-42284819D02*
X64719285Y-43284819D01*
X20338333Y-42284819D02*
X20338333Y-42999104D01*
X20338333Y-42999104D02*
X20385952Y-43141961D01*
X20385952Y-43141961D02*
X20481190Y-43237200D01*
X20481190Y-43237200D02*
X20624047Y-43284819D01*
X20624047Y-43284819D02*
X20719285Y-43284819D01*
X19433571Y-42284819D02*
X19624047Y-42284819D01*
X19624047Y-42284819D02*
X19719285Y-42332438D01*
X19719285Y-42332438D02*
X19766904Y-42380057D01*
X19766904Y-42380057D02*
X19862142Y-42522914D01*
X19862142Y-42522914D02*
X19909761Y-42713390D01*
X19909761Y-42713390D02*
X19909761Y-43094342D01*
X19909761Y-43094342D02*
X19862142Y-43189580D01*
X19862142Y-43189580D02*
X19814523Y-43237200D01*
X19814523Y-43237200D02*
X19719285Y-43284819D01*
X19719285Y-43284819D02*
X19528809Y-43284819D01*
X19528809Y-43284819D02*
X19433571Y-43237200D01*
X19433571Y-43237200D02*
X19385952Y-43189580D01*
X19385952Y-43189580D02*
X19338333Y-43094342D01*
X19338333Y-43094342D02*
X19338333Y-42856247D01*
X19338333Y-42856247D02*
X19385952Y-42761009D01*
X19385952Y-42761009D02*
X19433571Y-42713390D01*
X19433571Y-42713390D02*
X19528809Y-42665771D01*
X19528809Y-42665771D02*
X19719285Y-42665771D01*
X19719285Y-42665771D02*
X19814523Y-42713390D01*
X19814523Y-42713390D02*
X19862142Y-42761009D01*
X19862142Y-42761009D02*
X19909761Y-42856247D01*
%TO.C,J7*%
D11*
X62355000Y-43830000D02*
X62355000Y-51670000D01*
X65005000Y-43830000D02*
X62355000Y-43830000D01*
X65005000Y-46480000D02*
X65005000Y-43830000D01*
X67655000Y-43830000D02*
X66275000Y-43830000D01*
X67655000Y-45210000D02*
X67655000Y-43830000D01*
X67655000Y-46480000D02*
X65005000Y-46480000D01*
X67655000Y-46480000D02*
X67655000Y-51670000D01*
X67655000Y-51670000D02*
X62355000Y-51670000D01*
%TO.C,J6*%
X17355000Y-43830000D02*
X17355000Y-51670000D01*
X20005000Y-43830000D02*
X17355000Y-43830000D01*
X20005000Y-46480000D02*
X20005000Y-43830000D01*
X22655000Y-43830000D02*
X21275000Y-43830000D01*
X22655000Y-45210000D02*
X22655000Y-43830000D01*
X22655000Y-46480000D02*
X20005000Y-46480000D01*
X22655000Y-46480000D02*
X22655000Y-51670000D01*
X22655000Y-51670000D02*
X17355000Y-51670000D01*
%TD*%
M02*
